STARTFONT 2.1
FONT -CBS-Song-Medium-R-Normal-Fantizi-40-400-75-75-C-400-CNS11643.1992-4
SIZE 40 80 80
FONTBOUNDINGBOX 40 40 0 -6
STARTPROPERTIES 23
FONTNAME_REGISTRY ""
FOUNDRY "CBS"
FAMILY_NAME "Song"
WEIGHT_NAME "Medium"
SLANT "R"
SETWIDTH_NAME "Normal"
ADD_STYLE_NAME "Fantizi"
PIXEL_SIZE 40
POINT_SIZE 400
RESOLUTION_X 75
RESOLUTION_Y 75
SPACING "C"
AVERAGE_WIDTH 400
CHARSET_REGISTRY "CNS11643.1992"
CHARSET_ENCODING "4"
COPYRIGHT "March 1994 by Central Bureau of Standards, Ministry of Economy, ROC"
WEIGHT 19329
RESOLUTION 110
X_HEIGHT 34
QUAD_WIDTH 40
DEFAULT_CHAR 32382
FONT_ASCENT 34
FONT_DESCENT 6
ENDPROPERTIES
CHARS 7299
STARTCHAR 2121
ENCODING 8481
SWIDTH 903 0
DWIDTH 40 0
BBX 40 40 0 -6
BITMAP
00000000f0
0000000ff8
000001fffc
00007ff800
0c1ff80000
0ffc000000
0e00000000
0e00000000
0e00000000
0e00000000
0e00000000
0e00000000
0e00000000
0e00000000
0e00000000
0e00000000
0e00000000
0e00000000
0e00000000
0e00000000
0e00000000
0e00000000
0e00000000
0e00000000
0e00000000
0e00000000
1c00000000
1c00000000
1c00000000
1c00000000
1c00000000
1800000000
3800000000
3800000000
3000000000
3000000000
6000000000
6000000000
c000000000
8000000000
ENDCHAR
STARTCHAR 2122
ENCODING 8482
SWIDTH 903 0
DWIDTH 40 0
BBX 40 40 0 -6
BITMAP
0000000000
0000e00000
0003f00000
000ff00000
003e700000
00fc700000
03f0700000
0fc0700000
7f00700000
7c00380000
3800380000
0000380000
0000380000
0000380000
00001c0000
00001c0000
00001c0000
00001c0000
00000e0000
00000e0000
00000f0000
0000070000
0000070000
0000038000
0000038000
000001c000
000001e000
000000e000
0000007000
0000007800
0000003c00
0000001e00
0000000f00
0000000780
00000003e0
00000001f8
00000000ff
000000007f
000000003e
000000000e
ENDCHAR
STARTCHAR 2123
ENCODING 8483
SWIDTH 903 0
DWIDTH 40 0
BBX 40 40 0 -6
BITMAP
0000000000
0000600000
0000f00000
fffff80000
0000780000
0000700000
0000700000
0000700000
0000700000
0000700000
0000700000
0000380000
0000380000
0000380000
0000380000
0000380000
00001c0000
00001c0000
00001c0000
00000e0000
00000e0000
0000070000
0000070000
0000078000
0000038000
000003c000
000001e000
000000e000
000000f000
0000007800
0000003c00
0000001e00
0000000f00
0000000780
00000003e0
00000001f8
00000000ff
000000007f
000000003e
000000000e
ENDCHAR
STARTCHAR 2124
ENCODING 8484
SWIDTH 903 0
DWIDTH 40 0
BBX 40 40 0 -6
BITMAP
00c0000000
00f8000000
00f0000000
00e0000000
00e0000000
00e0000000
00e0000000
00e0000000
00e0000000
00e0000000
00e0000000
00e0000000
00e0000000
00e0000000
00e0000000
00e0000000
00e0000000
00e0000000
00e0000000
00e0000000
00e0000000
00e0000000
00e0000000
00e0000000
00e0000000
00e0000000
00e0000000
00e0000000
00e0000010
00e0000010
00e0000030
00e0000030
00e0000060
00e0000060
00e00000e0
00f00001f0
00fffffff0
007fffffe0
003fffff80
0000000000
ENDCHAR
STARTCHAR 2125
ENCODING 8485
SWIDTH 903 0
DWIDTH 40 0
BBX 40 40 0 -6
BITMAP
0000030000
000003e000
000003c000
0000078000
0000078000
0000070000
00000f0000
00000e0000
00001c0000
00003c0000
0000380000
0000700000
0000e00000
0001c00000
0003800000
0007000000
000e000000
001c000000
0038000000
003c000000
000e000000
0007000000
0003800000
0001c00000
0000e00000
0000700000
0000380000
00001c0000
00001c0000
00000e0000
00000f0000
0000070000
0000078000
0000038000
000003c000
000003c000
000001e000
000001e000
000001e000
000000c000
ENDCHAR
STARTCHAR 2126
ENCODING 8486
SWIDTH 903 0
DWIDTH 40 0
BBX 40 40 0 -6
BITMAP
0000000000
0000000018
000000003c
fffffffffe
000e000000
000e000000
001c000000
001c000000
0038000000
0038000000
0070000000
0070000000
00e0000180
00e00003c0
01ffffffe0
00c00001e0
00000001c0
00000001c0
00000001c0
00000001c0
00000001c0
00000001c0
00000001c0
00000001c0
0000000380
0000000380
0000000380
0000000380
0000000700
0000000700
0000000e00
0000000e00
0000001c00
0000001c00
0000003800
0000007800
0003fff000
00001fe000
000003c000
0000038000
ENDCHAR
STARTCHAR 2127
ENCODING 8487
SWIDTH 903 0
DWIDTH 40 0
BBX 40 40 0 -6
BITMAP
0000000c00
0000000f80
00c0000f00
00f8000e00
00f0000e00
00e0000e00
00e0000e00
00e0000e00
00e0000e00
00e0000e00
00e0000e00
00e0000e00
00e0000e00
00e0000e00
00e0000e00
00e0000e00
00e0000e00
00e0000e00
00e0000e00
00e0000e00
00e0000e00
00e0000e00
00e0000e00
00e0000e00
00e0000e00
00e0000e00
01fffffe00
00c0000e00
0000000e00
0000000e00
0000000e00
0000000e00
0000000e00
0000000e00
0000000e00
0000000e00
0000000e00
0000000e00
0000000e00
0000000c00
ENDCHAR
STARTCHAR 2128
ENCODING 8488
SWIDTH 903 0
DWIDTH 40 0
BBX 40 40 0 -6
BITMAP
0000000000
000000c000
000001e000
3ffffff000
000000f000
000000e000
000001c000
000001c000
0000038000
0000038000
0000070000
0000070000
00000e0030
00000e0078
00001ffffc
00000c003c
0000000038
0000000038
0000000038
0000000038
0000000038
0000000038
0000000038
0000000038
0000000038
0000000038
0000000038
0000000038
0000000038
0000000038
0000000078
0000000070
0000000070
00000000f0
00000000e0
00000001e0
000003ffc0
0000001f80
0000000700
0000000600
ENDCHAR
STARTCHAR 2129
ENCODING 8489
SWIDTH 903 0
DWIDTH 40 0
BBX 40 40 0 -6
BITMAP
0000000000
0060001800
0070003c00
007ffffe00
0070001e00
0070001c00
0070001c00
0070001c00
0070001c00
0070001c00
0070001c00
0070001c00
0070001c00
0070001c00
0070001c00
0070001c00
0070001c00
0070001c00
0070001c00
0070001c00
0070001c00
0070001c00
0070001c00
0070001c00
0070001c00
00e0001c00
00e0001c00
00e0001c00
00e0001c00
01c0001c00
01c0001c00
01c0001c00
0380001c00
0380001c00
0700001c00
0600001e00
0c00001ffe
1800000fff
30000007ff
6000000000
ENDCHAR
STARTCHAR 212a
ENCODING 8490
SWIDTH 903 0
DWIDTH 40 0
BBX 40 40 0 -6
BITMAP
0000003000
0000003e00
0000003c00
0000003800
0000003800
0018003800
001f003800
001e003800
001c003800
001c003800
001c003800
001c003800
001c003800
001c003800
001c003800
001c003800
001c003800
001c003800
001c003800
001c003800
001c003800
001c003800
001c003800
001c003800
001c003800
001c003800
001c003800
001c003800
001c003800
001c003800
0018003800
0000003800
0000003800
0000003800
0000003800
0000007800
0000fff800
000007f000
000000e000
000000c000
ENDCHAR
STARTCHAR 212b
ENCODING 8491
SWIDTH 903 0
DWIDTH 40 0
BBX 40 40 0 -6
BITMAP
0000000000
0000000000
0600000600
0700000f00
07ffffff80
0700000780
0700000700
0700000700
0700000700
0700000700
0700000700
0700000700
0700000700
0700000700
0700000700
0700000700
0700000700
0700000700
0700000700
0700000700
0700000700
0700000700
0700000f00
07001fff00
0700007e00
0700001c00
0700001800
0700000000
0700000000
0700000000
0700000010
0700000010
0700000030
0700000030
0700000060
07800000e0
07fffffff0
03fffffff0
01ffffffe0
0000000000
ENDCHAR
STARTCHAR 212c
ENCODING 8492
SWIDTH 903 0
DWIDTH 40 0
BBX 40 40 0 -6
BITMAP
0001800180
0001f001f0
0001e001e0
0003c003c0
0003c003c0
0003800380
0007800780
0007000700
000e000e00
001e001e00
001c001c00
0038003800
0070007000
00e000e000
01c001c000
0380038000
0700070000
0e000e0000
1c001c0000
1e001e0000
0700070000
0380038000
01c001c000
00e000e000
0070007000
0038003800
001c001c00
000e000e00
000e000e00
0007000700
0007800780
0003800380
0003c003c0
0001c001c0
0001e001e0
0001e001e0
0000f000f0
0000f000f0
0000f000f0
0000600060
ENDCHAR
STARTCHAR 212d
ENCODING 8493
SWIDTH 903 0
DWIDTH 40 0
BBX 40 40 0 -6
BITMAP
0000000000
1800000030
1c00000078
1ffffffffc
1c0000003c
1c00000038
1c00000038
1c00000038
1c00000038
1c00000038
1c00000038
1c00000038
1c00000038
1c00000038
1c00000038
1c00000038
1c00000c38
1c00001e38
1cffffff38
1c00000038
1c00000038
1c00000038
1c00000038
1c00000038
1c00000038
1c00000038
1c00000038
1c00000038
1c00000038
1c00000038
1c00000038
1c00000038
1c00000038
1c00000038
1c00000038
1c00000078
1c00003ff8
1c000003f0
1c000000e0
18000000c0
ENDCHAR
STARTCHAR 212e
ENCODING 8494
SWIDTH 903 0
DWIDTH 40 0
BBX 40 40 0 -6
BITMAP
0000000000
1800000030
1f0000003e
1e0000003c
1c00000038
1c00000038
1c00000038
1c00000038
1c00000038
1c00000038
1c00000038
1c00000038
1c00000038
1c00000038
1c00000038
1c00000038
1c00000638
1c00000f38
1dffffffb8
1c00000038
1c00000038
1c00000038
1c00000038
1c00000038
1c00000038
1c00000038
1c00000038
1c00000038
1c00000038
1c00000038
1c00000038
1c00000038
1c00000038
1c00000038
1c00000038
1c00000038
1c00000038
3ffffffff8
1800000038
0000000030
ENDCHAR
STARTCHAR 212f
ENCODING 8495
SWIDTH 903 0
DWIDTH 40 0
BBX 40 40 0 -6
BITMAP
00c0000000
00f8000000
00f0000000
00e0000000
00e0000000
01e0000000
01c0000030
01c0000078
03fffffffc
038000003c
0700000038
0600000038
0e00000038
0c00000038
1800000038
3000000038
6000000038
c000000038
0000000038
0000006038
000000f038
03fffff838
0000000038
0000000038
0000000038
0000000038
0000000038
0000000038
0000000038
0000000038
0000000038
0000000038
0000000078
0000000070
00000000f0
00000001e0
00000fffc0
0000007f80
0000000f00
0000000e00
ENDCHAR
STARTCHAR 2130
ENCODING 8496
SWIDTH 903 0
DWIDTH 40 0
BBX 40 40 0 -6
BITMAP
0000000000
0000000c00
0000001e00
7fffffff00
0000000f00
0000000e00
000c000e00
000f800e00
000f000e00
000e000e00
000e000e00
000e000e00
000e000e00
000e000e00
000e000e00
000e000e00
000e018e00
000e03ce00
ffffffee01
000e000e01
000e000e03
000e000e03
000e000f06
000e000fff
000e0007ff
000e0003fe
000e000000
000e000000
000e000000
000e000000
000e000000
000e000000
000e000000
000e000000
000e000000
000e000000
000e000000
000e000000
000e000000
000c000000
ENDCHAR
STARTCHAR 2131
ENCODING 8497
SWIDTH 903 0
DWIDTH 40 0
BBX 40 40 0 -6
BITMAP
0000000000
0060000300
0070000780
007fffffc0
00700003c0
0070000380
0070000380
0070000380
0070c00380
0070600380
0070300380
0070180380
00701c0380
00700e0380
0070070380
0070078380
0070038380
0070038380
0070018380
0070000380
0070000380
0070000380
0070000380
0070000380
0070000380
0070000780
00700fff80
0070007f00
0070000e00
0070000c00
0070000000
0070000000
0070000000
0070000000
0070000000
0070000000
0070000000
0070000000
0070000000
0060000000
ENDCHAR
STARTCHAR 2132
ENCODING 8498
SWIDTH 903 0
DWIDTH 40 0
BBX 40 40 0 -6
BITMAP
0000000000
0000000300
0000000780
1fffffffc0
0000000fc0
0000001f00
0000003c00
0000007800
000000e000
0000038000
0000070000
00001c0000
0000380000
0000380000
0000380000
0000380000
0000380000
0000380000
000038000c
000038001e
00003fffff
0000380000
0000380000
0000380000
0000380000
0000380000
0000380000
0000380000
0000380000
0000380000
0000380000
0000380000
0000380000
0000380000
0000380000
0000780000
003ff80000
0003f00000
0000e00000
0000c00000
ENDCHAR
STARTCHAR 2133
ENCODING 8499
SWIDTH 903 0
DWIDTH 40 0
BBX 40 40 0 -6
BITMAP
0000000000
00000000c0
00000001e0
07fffffff0
00000003f0
00000007c0
0000000f00
0000001e00
0000003800
000000e000
000001c000
0000070000
00000e0000
00000e0000
00000e0000
00000e0000
00000e0000
00000e0000
00000e0000
00000e0000
0000fe0000
000fce0000
01fc0e0000
ffc00e0000
fe000e0000
70000e0000
30000e0000
00000e0000
00000e0000
00000e0000
00000e0000
00000e0000
00000e0000
00000e0000
00000e0000
00001e0000
000ffe0000
0000fc0000
0000380000
0000300000
ENDCHAR
STARTCHAR 2134
ENCODING 8500
SWIDTH 903 0
DWIDTH 40 0
BBX 40 40 0 -6
BITMAP
0000600000
00007c0000
0000780000
0000700000
0000700000
0000700000
0000700000
0000700000
0000700000
0000700018
000070003c
7ffffffffe
0000770000
0000770000
0000770000
0000770000
0000770000
0000e70000
0000e70000
0000e70000
0000e70000
0001c70000
0001c70000
0001c70000
0003870000
0003870000
0007070000
0007070000
000e070000
000e070000
001c070001
0038070001
0070070003
00e0070003
01c0070006
038007800e
070007ffff
0e0003ffff
380001fffe
e000000000
ENDCHAR
STARTCHAR 2135
ENCODING 8501
SWIDTH 903 0
DWIDTH 40 0
BBX 40 40 0 -6
BITMAP
0000300000
00003e0000
00003c0000
0000380000
1800380060
1f0038007c
1e00380078
1c00380070
1c00380070
1c00380070
1c00380070
1c00380070
1c00380070
1c00380070
1c00380070
1c00380070
1c00380070
1c00380070
1c00380070
1c00380070
1c00380070
3ffffffff0
1800380070
0000380060
0000700000
0000700000
0000700000
0000e00000
0000e00000
0001c00000
0001c00000
0003800000
0007000000
000e000000
001c000000
0038000000
0070000000
00e0000000
0380000000
1e00000000
ENDCHAR
STARTCHAR 2136
ENCODING 8502
SWIDTH 903 0
DWIDTH 40 0
BBX 40 40 0 -6
BITMAP
0000300000
00003e0000
00003c0000
0000380000
0000380000
0000380000
0000380000
0000380000
000838c000
0008386000
0008383000
0018381800
0018381c00
0038380e00
0038380f00
0078380f00
00f8380700
00f0380700
00f0380300
0060380000
0000380000
0000380000
0000380000
0000380000
0000380000
0000380000
0000380000
0000380000
0000380000
0000380000
0000380000
0000380000
0000380000
0000380000
0000380000
0000380000
0000380000
0000380000
0000380000
0000300000
ENDCHAR
STARTCHAR 2137
ENCODING 8503
SWIDTH 903 0
DWIDTH 40 0
BBX 40 40 0 -6
BITMAP
0000300000
00003e0000
00003c0000
0000380000
0000380000
0000380000
0000380000
0000380000
0000380060
00003800f0
1ffffffff8
0000380000
0000380000
0000380000
0000380000
0000380000
0000380000
00003801e0
0000381f00
000039f800
00003f8000
0003f80000
003ff80000
1ffe380000
1fe0380000
0e00380000
0600380000
0000380000
0000380000
0000380000
0000380000
0000380000
0000380000
0000380000
0000380000
0000780000
007ff80000
0003f00000
0000e00000
0000c00000
ENDCHAR
STARTCHAR 2138
ENCODING 8504
SWIDTH 903 0
DWIDTH 40 0
BBX 40 40 0 -6
BITMAP
0000001800
0000001e00
0070003c00
001c007800
000780f000
0001e1e000
00007f8000
00001f0000
00001f0000
00007b8000
0000e1c000
000380e000
000e00e000
0078007000
03c0007000
0000007800
000000f800
000001f800
000003dc00
0000079c00
00000e1c00
00001c1c00
0000701c00
0000e01c00
0003801c00
0007001c00
001c001c00
0070001c00
03c0001c00
1e00001c00
0000003800
0000003800
0000003800
0000007000
000000f000
000001e000
000fffc000
00007f8000
00000f0000
00000e0000
ENDCHAR
STARTCHAR 2139
ENCODING 8505
SWIDTH 903 0
DWIDTH 40 0
BBX 40 40 0 -6
BITMAP
0000000000
0000000030
0000000078
3ffffffffc
0000e0003c
0000e00038
0000e00038
0000e00038
0000e00038
01c0e00038
0070e00038
001ce00038
0006e00038
0003e00038
0001c00038
0001e00038
0001f00038
0001f80038
0001dc0038
00038e0038
00038f0038
0007070038
0007030038
000e000038
000e000078
001c000070
0038000070
00700000f0
00e00000e0
01c00003e0
038007ffc0
0700007f80
0e00000f00
3800000e00
e000000000
0000000000
000000000c
000000001e
ffffffffff
0000000000
ENDCHAR
STARTCHAR 213a
ENCODING 8506
SWIDTH 903 0
DWIDTH 40 0
BBX 40 40 0 -6
BITMAP
0000300000
00003e0000
00003c0000
0000380000
0000380e00
0000383f00
000039ff80
00003fe000
0001fe0000
001fb80000
03f8380000
0000380000
0000380000
0000380000
0000380700
0000383f80
000039ffc0
00003fe000
0001fe0000
001fb80000
03f8380000
0000380000
0000380000
0000380000
0000380380
0000381fc0
000039ffe0
00003ff000
0001fe0000
001fb80000
07f8380000
0000380000
0000380000
0000380000
0000380000
0000380000
0000380000
0000380000
0000380000
0000300000
ENDCHAR
STARTCHAR 213b
ENCODING 8507
SWIDTH 903 0
DWIDTH 40 0
BBX 40 40 0 -6
BITMAP
0000000000
0000000300
0000000780
03ffffffc0
0000000000
0000000000
0000000000
0000000000
0000000000
0000000000
0000000000
0000000000
0000000000
0000000000
0000000030
0000000078
3ffffffffc
0000000000
0000000000
0000000000
0000000000
0000000000
0000000000
0000000300
0000000780
03ffffffc0
0000000000
0000000000
0000000000
0000000000
0000000000
0000000000
0000000000
0000000000
0000000000
0000000000
0000000030
0000000078
3ffffffffc
0000000000
ENDCHAR
STARTCHAR 213c
ENCODING 8508
SWIDTH 903 0
DWIDTH 40 0
BBX 40 40 0 -6
BITMAP
0000300000
00003e0000
00003c0000
0000380000
0000740000
0000e60000
0000e30000
0001c18000
000380c000
000700e000
000e007000
001c003800
0038301e00
00703e0f80
00e03c07e0
01c03801ff
03803800ff
0e0038003c
380038000c
e000380000
0000380000
0000380060
00003800f0
1ffffffff8
0000380000
0000380000
0000380000
0000380000
0000380000
0000380000
0000380000
0000380000
0000380000
0000380000
0000380000
0000380000
0000380000
0000380000
0000380000
0000300000
ENDCHAR
STARTCHAR 213d
ENCODING 8509
SWIDTH 903 0
DWIDTH 40 0
BBX 40 40 0 -6
BITMAP
0000300000
00003e0000
00003c0000
0000380000
0000380000
0000380000
0000380060
00003800f0
7ffffffff8
1c00380000
1c00380000
1c00380000
1c00380000
1c00380000
1c00380000
1c00380000
1c00380000
1c00700000
1e00700000
1ffffffff8
0ffffffffc
07fffffffc
0000e70000
0001c70000
0001c70000
0003870000
0003870000
0007070000
000e070000
000e070000
001c070001
0038070001
0070070003
00e0070003
01c0070006
038007800e
070007ffff
0e0003ffff
380001fffe
e000000000
ENDCHAR
STARTCHAR 213e
ENCODING 8510
SWIDTH 903 0
DWIDTH 40 0
BBX 40 40 0 -6
BITMAP
0000000000
1800000030
1c00000078
1ffffffffc
1c0000003c
1c00000038
1c00000038
1c00000038
1c00000038
1c00000038
1c00000038
1c00000038
1c00000638
1c00000f38
1dffffffb8
1c00000038
1c00000038
1c00000038
1c00000038
1c00000038
1c00000038
1c00000038
1c00000038
1c00000638
1c00000f38
1dffffffb8
1c00000038
1c00000038
1c00000038
1c00000038
1c00000038
1c00000038
1c00000038
1c00000038
1c00000038
1c00000078
1c00003ff8
1c000003f0
1c000000e0
18000000c0
ENDCHAR
STARTCHAR 213f
ENCODING 8511
SWIDTH 903 0
DWIDTH 40 0
BBX 40 40 0 -6
BITMAP
0000300000
00003e0000
00003c0000
0000380000
0000700000
0000700000
0000fc0000
0000e60000
0001c38000
000380e000
0007007800
000e001c00
001c000f00
0038000380
00700001e0
00e03000f0
03803e007c
07003c003e
1c0038001e
700038000e
0000700000
0000780000
0000f80000
0000ec0000
0001cc0000
0001c60000
0003830000
0007038000
000701c000
000e01e000
001c00f000
0038007800
0070003c00
00e0001f00
01c0000f80
03800007e0
07000003ff
0e000001ff
38000000f8
e000000038
ENDCHAR
STARTCHAR 2140
ENCODING 8512
SWIDTH 903 0
DWIDTH 40 0
BBX 40 40 0 -6
BITMAP
0000000018
000000001f
000018001e
00003c001c
7ffffe001c
01c01e181c
01c01c1f1c
01c01c1e1c
01c01c1c1c
01c01c1c1c
01c01c1c1c
01c01c1c1c
01c01c1c1c
01c01c1c1c
01c01c1c1c
01c01c1c1c
01c01c1c1c
01c01c1c1c
01c01c1c1c
01c01c1c1c
01c01c1c1c
01c01c1c1c
01801c1c1c
03801c1c1c
03801c1c1c
03801c1c1c
03801c1c1c
03001c1c1c
07001c1c1c
07001c181c
06001c001c
0e001c001c
0c003c001c
1c0038001c
1800f8001c
387ff0003c
3007e00ffc
6001c001f8
c001800070
8000000060
ENDCHAR
STARTCHAR 2141
ENCODING 8513
SWIDTH 903 0
DWIDTH 40 0
BBX 40 40 0 -6
BITMAP
0000000000
0000c0000c
0001e0001e
fffff7ffff
0380f0380f
0380e0380e
0380e0380e
0380e0380e
0380e0380e
0380e0380e
0380e0380e
0380e0380e
0380e0380e
0380e0380e
0380e0380e
0380e0380e
0380e0380e
0380e0380e
0380e0380e
0380e0380e
0380e0380e
0380e0380e
0700e0700e
0700e0700e
0700e0700e
0700e0700e
0700e0700e
0600e0e00e
0e00e0e00e
0e00e0e00e
0e00e1c00e
0c00e1c00e
1c01e1800e
1801c3801e
1807c3003e
31ff871ffc
303f0601f8
600e0c0070
c00c180060
8000300000
ENDCHAR
STARTCHAR 2142
ENCODING 8514
SWIDTH 903 0
DWIDTH 40 0
BBX 40 40 0 -6
BITMAP
0600000000
07c0000000
0780000000
0700000000
0700000000
07000000c0
07000001e0
07fffffff0
0700000000
0700000000
0700000000
0700000000
0700000000
0700000000
0780000000
07fffffff8
03fffffffc
01fffffffc
0000300000
00003e0000
00003c0000
0000380000
0000380000
0000380000
000038000c
000038001e
ffffffffff
0000380000
0000380000
0000380000
0000380000
0000380000
0000380000
0000380000
0000380000
0000380000
0000380000
0000380000
0000380000
0000300000
ENDCHAR
STARTCHAR 2143
ENCODING 8515
SWIDTH 903 0
DWIDTH 40 0
BBX 40 40 0 -6
BITMAP
0000000000
6001860018
7003c7003c
7fffe7fffe
7001e7001e
7001c7001c
7001c7001c
7001c7001c
7001c7001c
7001c7001c
7001c7001c
7001c7001c
7001c7001c
7001c7001c
7001c7001c
7001c7001c
7001c7001c
7001c7001c
7001c7001c
7001c7001c
7003c7003c
71ffc71ffc
701f8701f8
7007070070
7006070060
7000070000
7000070000
7000070000
7000070000
7000070000
7000070001
7001c70001
7007070003
703c070003
71f0070006
7fc007800e
7f0007ffff
7c0003ffff
380001fffe
1800000000
ENDCHAR
STARTCHAR 2144
ENCODING 8516
SWIDTH 903 0
DWIDTH 40 0
BBX 40 40 0 -6
BITMAP
0006000000
0007800000
000f001800
000e003c00
001ffffe00
0038003e00
0070003800
00e0007000
01c0006000
038000c018
070001803c
0ffffffffe
3b80000000
0380000000
0380000000
0380000000
0380000000
0380000000
0380000000
0380000000
0380000000
0380000000
0380000000
0380000000
0380000000
0380000000
0380000000
0700000000
0700000000
0700000000
0700000000
0600000000
0e00000000
0e00000000
0c00000000
1c00000000
1800000000
3000000000
6000000000
c000000000
ENDCHAR
STARTCHAR 2145
ENCODING 8517
SWIDTH 903 0
DWIDTH 40 0
BBX 40 40 0 -6
BITMAP
0000000000
0000000000
00c0000c00
00f8000f80
00f0000f00
00e0000e00
00e0000e00
00e0000e00
00e0000e00
00e0000e00
01c0001c00
01c0001c00
01c0001c00
01c0001c00
01c0001c00
0380003800
0380003800
0380003800
0380003800
0300003000
0700007000
0700007000
0700007000
060c0060c0
0e0600e060
0e0600e030
0c0300c030
1c0301c018
1c0381c018
180181801c
3801c3800c
3001c3000e
7001e7000e
601fe601ff
fff8efff87
ff00eff007
7000e70007
3000630003
0000000000
0000000000
ENDCHAR
STARTCHAR 2146
ENCODING 8518
SWIDTH 903 0
DWIDTH 40 0
BBX 40 40 0 -6
BITMAP
0000060000
000007c000
0000078000
0000070000
0000070000
300c070000
381e070000
3fff070000
380f070000
380e070000
380e070000
380e070000
380e070000
380e070000
380e070000
380e070000
380e070000
380e070000
380e070000
380e070000
380e070000
380e070000
380e070000
380e070000
380e070000
380e070000
380e070000
3ffe070000
380e070000
380c070000
3800070001
3000070001
0000070003
0000070003
0000070006
000007800e
000007ffff
000003ffff
000001fffe
0000000000
ENDCHAR
STARTCHAR 2147
ENCODING 8519
SWIDTH 903 0
DWIDTH 40 0
BBX 40 40 0 -6
BITMAP
0000000000
0000000000
000000000c
000000001e
ffffffffff
0000000000
0000000000
0000000000
0000000000
0000000000
0000000000
0000000000
0000000000
0c00000060
0e000000f0
0ffffffff8
0e00000070
0e00000070
0e00000070
0e00000070
0e00000070
0e00000070
0e00000070
0e00000070
0e00000070
0e00000070
0e00000070
0e00000070
0e00000070
0e00000070
0e00000070
0e00000070
0e00000070
0e00000070
0e00000070
0ffffffff0
0e00000070
0e00000060
0c00000000
0000000000
ENDCHAR
STARTCHAR 2148
ENCODING 8520
SWIDTH 903 0
DWIDTH 40 0
BBX 40 40 0 -6
BITMAP
0000000000
0000000000
0000000f00
000000ff80
00001fffc0
0003ffc000
007fb80000
0fe0380000
0000380000
0000380000
0000380000
0000380000
0000380000
0000380000
0000380000
0000380000
0000380000
0000380000
0000380060
00003800f0
1ffffffff8
0000380000
0000380000
0000380000
0000380000
0000380000
0000380000
0000380000
0000380000
0000380000
0000380000
0000380000
0000380000
0000380000
0000380000
000038000c
000038001e
ffffffffff
0000000000
0000000000
ENDCHAR
STARTCHAR 2149
ENCODING 8521
SWIDTH 903 0
DWIDTH 40 0
BBX 40 40 0 -6
BITMAP
0600000000
07c0000000
0780000000
0700000000
0700000000
0700000000
0700000000
0700000000
0700000000
0700000000
0700180000
07003c0000
0ffffe0000
06001e0000
00001c0000
00001c0000
00001c0000
00001c0000
00001c0000
00001c000c
00001c001e
ffffffffff
00003c0000
00003e0000
00003e0000
0000730000
0000730000
0000e18000
0000e0c000
0001c0e000
0003807000
0007003800
000e001c00
001c000f00
00380007c0
00e00003f0
01c00000ff
070000007f
1c0000001e
f000000006
ENDCHAR
STARTCHAR 214a
ENCODING 8522
SWIDTH 903 0
DWIDTH 40 0
BBX 40 40 0 -6
BITMAP
0000030000
0000018000
000c00c000
000f80e000
000f006000
001e003000
001c003800
003c001c00
0038000e00
0070000700
00e00003c0
01c00001f0
03800000ff
070000003f
0e0000601e
383000f006
e03ffff800
0038007800
0038007000
0038007000
0038007000
0038007000
0038007000
0038007000
0038007000
0038007000
0038007000
0038007000
0070007000
0070007000
0070007000
00e0007001
00e0007001
01c0007003
0380007003
0700007806
0e00007fff
1c00003fff
3800001ffe
e000000000
ENDCHAR
STARTCHAR 214b
ENCODING 8523
SWIDTH 903 0
DWIDTH 40 0
BBX 40 40 0 -6
BITMAP
0000030000
0000018000
000c00c000
000f80e000
000f006000
001e003000
001c003800
003c001c00
0038000e00
0070000700
00e00003c0
01c00001f0
03800000ff
070000003f
0e0000001e
3830006006
e03e007c00
003c007800
0038007000
0038007000
0038007000
0038007000
0038007000
0038007000
0038007000
0038007000
0038007000
0038007000
0070007000
0070007000
0070007000
00e0007001
00e0007001
01c0007003
0380007003
0700007806
0e00007fff
1c00003fff
3800001ffe
e000000000
ENDCHAR
STARTCHAR 214c
ENCODING 8524
SWIDTH 903 0
DWIDTH 40 0
BBX 40 40 0 -6
BITMAP
0000000380
0000007fc0
00000fffe0
0003ffe000
00fff80000
1fe0380000
0000380000
0000380000
0000380000
0000380000
0000380000
1800380060
1c003800f0
1ffffffff8
1c00380078
1c00380070
1c00380070
1c00380070
1c00380070
1c00380070
1c00380070
1c00380070
1c00380070
1c00380070
1c00380070
1c00380070
1c00380070
1c00380070
1c00380070
1c00380070
1c003800f0
1c00387ff0
1c003807e0
1c003801c0
1800380180
0000380000
0000380000
0000380000
0000380000
0000300000
ENDCHAR
STARTCHAR 214d
ENCODING 8525
SWIDTH 903 0
DWIDTH 40 0
BBX 40 40 0 -6
BITMAP
0000000000
0000000030
0000000078
3ffffffffc
001c003800
001c003800
001c003800
001c003800
001c003800
001c003800
001c003800
001c003800
001c003800
001c003800
001c003800
001c003800
001c00380c
001c00381e
ffffffffff
001c003800
001c003800
001c003800
001c003800
001c003800
001c003800
001c003800
0038003800
0038003800
0038003800
0070003800
0070003800
00e0003800
00e0003800
01c0003800
0380003800
0700003800
0e00003800
1c00003800
3800003800
e000003000
ENDCHAR
STARTCHAR 214e
ENCODING 8526
SWIDTH 903 0
DWIDTH 40 0
BBX 40 40 0 -6
BITMAP
0000000000
000000000c
000000001e
7fffffffff
00000f0000
00000e0000
00000e0000
00001c0000
00001c0000
0000380000
00003c0000
00007c0000
00007e0000
0000fe0000
0001fb0000
0001b98000
0003b8c000
000738e000
000e387000
001c383800
0038381c00
0070380e00
00e0380780
01c03803e0
03803801f8
07003800ff
0e0038003f
380038001e
e000380006
0000380000
0000380000
0000380000
0000380000
0000380000
0000380000
0000380000
0000380000
0000380000
0000380000
0000300000
ENDCHAR
STARTCHAR 214f
ENCODING 8527
SWIDTH 903 0
DWIDTH 40 0
BBX 40 40 0 -6
BITMAP
0000000000
0c00000060
07000000f0
0381fffff8
01c0000078
01c00000e0
00c00001c0
0000000380
0000000700
0008000e00
0008001c00
c018003800
7010007000
383000e000
1c3001c000
1c60038000
0c60070000
00600e0000
00c01c0000
00c01c0000
01c0380000
0180700000
0380700000
0300e00000
0700e00000
0701c00000
0e01c00000
1e03800000
fe03800000
3c03800000
1c03800001
1c03800001
0e03800003
0e03800003
0f03c00006
0f01e0000e
0f00ffffff
0f007fffff
06001ffffe
0000000000
ENDCHAR
STARTCHAR 2150
ENCODING 8528
SWIDTH 903 0
DWIDTH 40 0
BBX 40 40 0 -6
BITMAP
0000000000
0000000000
0000000000
0000000000
0000000000
0000000000
0000000000
0000000000
0000000000
0000000000
0000000000
0000000000
0000000000
0000000000
0000000000
0000000000
0800000060
0818030030
080c018018
180600c01c
180700e00e
380380700f
7003807007
f003807007
e001803007
c000000003
0000000000
0000000000
0000000000
0000000000
0000000000
0000000000
0000000000
0000000000
0000000000
0000000000
0000000000
0000000000
0000000000
0000000000
ENDCHAR
STARTCHAR 2151
ENCODING 8529
SWIDTH 903 0
DWIDTH 40 0
BBX 40 40 0 -6
BITMAP
0000000000
0000000000
0000000000
0000000000
0000000000
0000000000
0000000000
0000000000
00000003c0
000000ffe0
00007ffff0
003ffc0000
1ffc000000
0000000000
0000000000
0000000180
03006000c0
03c0300060
0780180070
07001c0038
0e000e003c
0c000f001c
180007001c
300007000c
6000030000
0000000000
0000000000
0000000000
0000000000
0000000000
0000000000
0000000000
0000000000
0000000000
0000000000
0000000000
0000000000
0000000000
0000000000
0000000000
ENDCHAR
STARTCHAR 2152
ENCODING 8530
SWIDTH 903 0
DWIDTH 40 0
BBX 40 40 0 -6
BITMAP
0000000000
1800000030
1c00000078
1ffffffffc
1c0000003c
1c00000038
1c00000038
1c00001838
1c00001f38
1c00001e38
1c60001c38
1c38001c38
1c0c003838
1c07003838
1c03807038
1c01c07038
1c00e0e038
1c0071c038
1c0039c038
1c001f8038
1c000f0038
1c000f0038
1c001f8038
1c0039c038
1c0070e038
1c00e07038
1c01c03838
1c03801c38
1c07000e38
1c0e000f38
1c1c000738
1c70000338
1dc0000038
1c00000038
1c00000038
1c00000078
1c00003ff8
1c000003f0
1c000000e0
18000000c0
ENDCHAR
STARTCHAR 2153
ENCODING 8531
SWIDTH 903 0
DWIDTH 40 0
BBX 40 40 0 -6
BITMAP
0000000000
0000000000
0000000000
0000000000
0000000000
0000000000
0000000000
0000000000
0000000000
0000000000
00c0000c00
00f8000f80
00f0000f00
00e0000e00
00e0000e00
00e0000e00
00e1000e04
00e3800e0e
ffffc3ffff
00e0000e00
00e0000e00
00e0000e00
00e0000e00
00e0000e00
00e0000e00
00e0000e00
00c0000c00
0000000000
0000000000
0000000000
0000000000
0000000000
0000000000
0000000000
0000000000
0000000000
0000000000
0000000000
0000000000
0000000000
ENDCHAR
STARTCHAR 2154
ENCODING 8532
SWIDTH 903 0
DWIDTH 40 0
BBX 40 40 0 -6
BITMAP
0000000000
0000000000
0000000000
3000000000
1c00000000
0f00000000
0780000000
0380000000
0180000000
0000000000
0000000000
0000000000
0000000000
0180000000
03c0000000
ffe0000000
03e0000000
0380000000
0700000000
0700000000
0e00000000
0e60000000
1cf0000000
3ff8000000
38f8000000
30e0000000
00e0000000
01c0000000
01c0000000
0380000000
0380000000
0700000000
0e00000000
1fc0000000
7ff8000000
f87f80000f
600ffffffe
0001fffff8
00003fffe0
0000000000
ENDCHAR
STARTCHAR 2155
ENCODING 8533
SWIDTH 903 0
DWIDTH 40 0
BBX 40 40 0 -6
BITMAP
0180000600
01f00007c0
01e0300780
01c03e0700
01c03c0700
01c0380700
01c0380700
01c0380700
01c0380700
01c0380700
01c0380700
01c0380700
01c0380700
01c0380700
01c0380704
01c038070e
ffffffffff
01c0380700
01c0380700
01c0380700
01c0380700
01c0380700
01c0380700
01c0380700
01c0380700
01c0380700
01c0380700
01c0380700
01c0380700
01c0380700
01c0380700
01c0380700
01c0380700
01c0380700
01c0300700
01c0000700
0180000604
000000000e
ffffffffff
0000000000
ENDCHAR
STARTCHAR 2156
ENCODING 8534
SWIDTH 903 0
DWIDTH 40 0
BBX 40 40 0 -6
BITMAP
07000001c0
0380000380
01c0000700
00e0000e00
0070001c00
0038003800
00fc007c00
03ce00e780
0f0701c1f0
fc0383807f
f001c7001f
6000ee0006
0000000000
0000300000
00003e0000
00003c0000
0000380000
0000380000
0000380000
0000380000
0000380000
0000380000
0000380000
0000380000
0000380000
0000380000
0000380000
0000380000
0000380000
0000380000
0000380000
0000380000
0000380000
0000380000
0000380000
0000380000
0000380000
0000380000
0000380000
0000300000
ENDCHAR
STARTCHAR 2157
ENCODING 8535
SWIDTH 903 0
DWIDTH 40 0
BBX 40 40 0 -6
BITMAP
0180000000
01f0000000
01e0000000
01c0000000
01c00000c0
01c00001e0
03fffffff0
0380000000
0300180000
07001f0000
06001e0000
0c001c0000
19801c0000
31f01c0000
61e01c0000
01c01c0180
01c01c03c0
01c01fffe0
01fffc01e0
3fc01c01c0
01c01c01c0
01c01c01c0
01c01c0380
01c01c0380
01c01c0300
01c01c0700
01c01c0600
01c01c0c00
01c01c1800
01c0180000
01c0000008
01c0000008
01c0000018
01c0000018
01c0000030
01e0000070
01fffffff8
00fffffff8
007ffffff0
0000000000
ENDCHAR
STARTCHAR 2158
ENCODING 8536
SWIDTH 903 0
DWIDTH 40 0
BBX 40 40 0 -6
BITMAP
018000c000
01f0007000
01e0003800
01c0003804
038300180e
0383ffffff
0383800000
0703800000
0703800000
0703800000
0e03800000
0e03800000
1e03800000
1e03800000
3e03800000
3e03800000
6e03800000
6e03800000
ce03800000
8e03800000
0e03800000
0e03800000
0e03800000
0e03800000
0e03800000
0e03800000
0e03800000
0e03800000
0e03800000
0e07000000
0e07000000
0e07000000
0e07000000
0e06000000
0e0e000000
0e0c000000
0e0c000000
0e18000000
0e30000000
0c60000000
ENDCHAR
STARTCHAR 2159
ENCODING 8537
SWIDTH 903 0
DWIDTH 40 0
BBX 40 40 0 -6
BITMAP
0060000000
007c000000
0078c00018
0070e0003c
00f0fffffe
00e0e0001e
00e0e0001c
01c0e0001c
01c0e0001c
0380e0001c
0380e0001c
0780e0001c
0780e0001c
0f80e0001c
0f80e0001c
1f80e0001c
3b80e0001c
3380e0001c
6380e0001c
c380e0001c
0380e0001c
0380e0001c
0380e0001c
0380e0001c
0380e0001c
0380e0001c
0380e0001c
0380e0001c
0380e0001c
0380e0001c
0380e0001c
0380e0001c
0380e0001c
0380e0001c
0380e0001c
0380fffffc
0380e0001c
0380e00018
0380c00000
0300000000
ENDCHAR
STARTCHAR 215a
ENCODING 8538
SWIDTH 903 0
DWIDTH 40 0
BBX 40 40 0 -6
BITMAP
0060300000
007c3e0000
00783c0000
0070380000
00f0380000
00e0380000
00e0700000
01c070000c
01c070001e
0380ffffff
0380e0000f
0780c0000e
0781c0000e
0f8180000e
0f8380000e
1f8300000e
3b8600000e
338c0c000e
638007000e
c38003800e
038001c00e
038000e00e
038000f00e
038000700e
038000300e
038000000e
038000000e
038000000e
038000000e
038000000e
038000001e
038000001c
038000001c
038000003c
0380000038
03800000f8
038001fff0
0380001fe0
03800003c0
0300000380
ENDCHAR
STARTCHAR 215b
ENCODING 8539
SWIDTH 903 0
DWIDTH 40 0
BBX 40 40 0 -6
BITMAP
0060000000
007c0000e0
00780003f0
0070001ff8
00f000ff00
00e007f000
00e03f0000
01c3e70000
01c0070000
0380070000
0380070000
0780070000
0780070000
0f80070000
0f80070000
1f80070000
3b8007000c
338007001e
638007ffff
c38fff0000
0380070000
0380070000
0380070000
0380070000
0380070000
0380070000
0380070000
0380070000
0380070000
0380070000
0380070001
0380070001
0380070003
0380070003
0380070006
038007800e
038007ffff
038003ffff
038001fffe
0300000000
ENDCHAR
STARTCHAR 215c
ENCODING 8540
SWIDTH 903 0
DWIDTH 40 0
BBX 40 40 0 -6
BITMAP
0000600000
00007c0000
0000780000
0000700000
0000700000
0000700000
00007000c0
00007001e0
00007ffff0
0000700000
0000700000
0000700000
0000700000
0000700000
0000700000
0000700000
000070000c
000070001e
ffffffffff
0000000000
0000000000
0000000000
0018018000
001f01f000
001e01e000
001c01c000
001c01c000
001c01c000
001c01c000
003801c000
003801c000
007001c001
007001c001
00e001c003
01c001c003
038001e006
070001ffff
0e0000ffff
3800007ffe
e000000000
ENDCHAR
STARTCHAR 215d
ENCODING 8541
SWIDTH 903 0
DWIDTH 40 0
BBX 40 40 0 -6
BITMAP
0000000000
0000000018
000000003c
7ffffffffe
0000000000
0000000000
0000000000
0000000000
06000000c0
07000001e0
07fffffff0
07000000f0
07000000e0
07000000e0
07000000e0
07000000e0
07000010e0
07000038e0
073ffffce0
07000000e0
07000000e0
07000000e0
07000000e0
07000000e0
07000000e0
07000000e6
ffffffffff
07000000e0
07000000e0
07000000e0
07000000e0
07000000e0
07000000e0
07000000e0
07000000e0
07000001e0
070000ffe0
0700000fc0
0700000380
0600000300
ENDCHAR
STARTCHAR 215e
ENCODING 8542
SWIDTH 903 0
DWIDTH 40 0
BBX 40 40 0 -6
BITMAP
0000600000
0000780000
0000700000
0000700000
0000e00000
0000e0000c
0001c0001e
ffffffffff
000380c000
0007806000
0007003000
000e003800
001e001c00
001c000e00
0038000700
0070000380
00e00001e0
01c00000f8
038380007f
0700f0003f
0e003e001e
38000f8006
e00003e000
000001f000
0000007000
0000003000
0000000000
0000000000
0000000000
0000000000
00000003c0
0000003e00
000003f800
00003f8000
0007fc0000
00ffe00000
00ff000000
0078000000
0038000000
0018000000
ENDCHAR
STARTCHAR 215f
ENCODING 8543
SWIDTH 903 0
DWIDTH 40 0
BBX 40 40 0 -6
BITMAP
0000000000
0c000000c0
0e000001e0
0ffffffff0
0e000000f0
0e000000e0
0e003000e0
0e003e00e0
0e003c00e0
0e003800e0
0e003800e0
0e003800e0
0e303830e0
0e3c383ce0
0e383838e0
0e383838e0
0e383838e0
0e383838e0
0e383838e0
0e383838e0
0e383838e0
0e383838e0
0e383838e0
0e383838e0
0e383838e0
0e383838e0
0e383838e0
0e383838e0
1c383838e0
1c383838e0
1c383838e0
1c38383871
1838383871
187ffff873
383000383b
300000303e
300000001e
600000000f
c000000007
8000000003
ENDCHAR
STARTCHAR 2160
ENCODING 8544
SWIDTH 903 0
DWIDTH 40 0
BBX 40 40 0 -6
BITMAP
0000000000
3000000030
3e0030003e
3c003e003c
38003c0038
3800380038
3800380038
3800380038
3800380038
3800380038
3800380038
3800381838
3800383c38
38fffffe38
3800380038
3800380038
3800380038
3800380038
3800380038
3800380038
3800380038
3800380038
3800380038
3800380038
3800380038
3800380038
3800380038
3800380638
3800380f38
3bffffffb8
3800000038
3800000038
3800000038
3800000038
3800000038
3800000038
3800000038
7ffffffff8
3000000038
0000000030
ENDCHAR
STARTCHAR 2161
ENCODING 8545
SWIDTH 903 0
DWIDTH 40 0
BBX 40 40 0 -6
BITMAP
0000000018
000000001f
000000001e
000000001c
000040001c
0000e0c01c
7ffff0f81c
007000f01c
007000e01c
007000e01c
007000e01c
007000e01c
007000e01c
007000e01c
007000e01c
007000e01c
007000e01c
007000e01c
007000e01c
007000e01c
007000e01c
007000e01c
007000e01c
007000e01c
007000e01c
007000e01c
007000e01c
007078e01c
0077c0e01c
03fe00c01c
ffe000001c
fe0000001c
700000001c
300000001c
000000001c
000000003c
0000001ffc
00000001f8
0000000070
0000000060
ENDCHAR
STARTCHAR 2162
ENCODING 8546
SWIDTH 903 0
DWIDTH 40 0
BBX 40 40 0 -6
BITMAP
0000000060
000040007c
0000e00078
fffff00070
070e018070
070e01f070
070e01e070
070e01c070
070e01c070
070e01c070
070e01c070
070e01c070
070e01c070
070e01c070
070e01c070
070e01c070
070e01c070
070e01c070
070e01c070
070e01c070
070e01c070
070e01c070
070e01c070
070e01c070
070e01c070
0e0e018070
0e0e000070
0e0e000070
0e0e0000f0
0c0e003ff0
1c0e0007e0
1c0e0001c1
180e000181
180e000003
300e000003
300f000006
600fffffff
6007ffffff
c003fffffe
8000000000
ENDCHAR
STARTCHAR 2163
ENCODING 8547
SWIDTH 903 0
DWIDTH 40 0
BBX 40 40 0 -6
BITMAP
0600001800
07c0001f00
0780001e00
0700001c00
0f00001c00
0e00001c00
0e00401c00
1c00e01c00
1ffff01c00
3800001c0c
3000001c1e
600007ffff
c000001c0f
8000001c0e
0006001c0e
000f001c0e
7fff801c0e
0007801c0e
000e001c0e
001c001c0e
0038001c0e
0070001c0e
00e0001c0e
01c000380e
038000380e
070000380e
0e0000380e
1c0000700e
380000700e
700000700e
700020e00e
e00020e00e
e00061c00e
e00061c01e
f000c3801c
ffffe3003c
7fffe61ff8
1fffcc03f0
00001800e0
00003000c0
ENDCHAR
STARTCHAR 2164
ENCODING 8548
SWIDTH 903 0
DWIDTH 40 0
BBX 40 40 0 -6
BITMAP
0000003000
0001803e00
000fc03c00
007fe03800
07f8003800
7e70003800
0070003800
0070003800
0070003800
007000380c
007000381e
00700fffff
007000380f
007000380e
007030380e
fffff8380e
007000380e
007000380e
007000380e
007000380e
007000380e
007000380e
007000380e
007000700e
007000700e
007000700e
007000700e
007000e00e
007000e00e
007000e00e
007001c00e
007001c00e
007003800e
007003801e
007007001c
007006003c
00700c3ff8
00701803f0
00703000e0
00606000c0
ENDCHAR
STARTCHAR 2165
ENCODING 8549
SWIDTH 903 0
DWIDTH 40 0
BBX 40 40 0 -6
BITMAP
0000000000
3000000018
380000003c
3ffffffffe
3800000000
3801800000
3801e00000
3801c00000
3801c03000
3801807800
3803fffc00
3803807c00
3807007000
3806007000
380c007000
381800e000
383000e000
386000e000
380001c000
380001e000
380003e000
380003b000
3800071000
3800071800
38000e0c00
38001c0600
3800380700
3800700380
3800e001c0
3801c000f0
380380007e
380e00003e
381c00001c
387000000c
39c0000000
3800000000
3800000006
7fffffffff
3000000000
0000000000
ENDCHAR
STARTCHAR 2166
ENCODING 8550
SWIDTH 903 0
DWIDTH 40 0
BBX 40 40 0 -6
BITMAP
0000000000
180000000c
1c0000001e
1fffffffff
1c00000000
1c00000000
1c00000000
1c00000060
1c000000f0
1c3ffffff8
1c00038000
1c00038000
1c00038000
1c00038000
1c00038000
1c00038000
1c00038000
1c00038000
1c00038000
1c0003800c
1c0003801e
1cffffffff
1c00038000
1c00038000
1c00038000
1c00038000
1c00038000
1800038000
1800038000
3800038000
3800038000
3000038000
3000038000
3000038000
6000038000
6000038000
4000038000
c000038000
8000038000
0000030000
ENDCHAR
STARTCHAR 2167
ENCODING 8551
SWIDTH 903 0
DWIDTH 40 0
BBX 40 40 0 -6
BITMAP
0000000000
180000000c
1c0000001e
1fffffffff
1c00000000
1c00000000
1c00000380
1c00001fe0
1c0000fff0
1c000fe000
1c00fe0000
1c3fce0000
1c000e0000
1c000e0000
1c000e0000
1c000e0000
1c000e0000
1c000e0000
1c000e0000
1c000e0018
1c000e003c
1dfffffffe
1c000e0000
1c000e0000
1c000e0000
1c000e0000
1c000e0000
18000e0000
18000e0000
38000e0000
38000e0000
30000e0002
30000e0002
30000e0006
60000e0006
60000f000c
40000ffffe
c00007fffe
800003fffc
0000000000
ENDCHAR
STARTCHAR 2168
ENCODING 8552
SWIDTH 903 0
DWIDTH 40 0
BBX 40 40 0 -6
BITMAP
0000300000
00003e0000
0c003c00c0
0f803800f8
0f003800f0
0e003800e0
0e003800e0
0e003800e0
0e003800e0
0e003800e0
1fffffffe0
0c003800e0
00003800c0
0000380000
0000380c00
0000381e00
03ffffff00
0060001f00
0020001c00
0030001c00
0010003800
0018003800
000c007000
000600e000
000700e000
000381c000
0001c38000
0000f70000
00007e0000
00003c0000
00007f0000
0000f78000
0001c3e000
000780f800
000e007f00
0038001fe0
00e00007ff
03800001ff
1e0000007e
f00000000e
ENDCHAR
STARTCHAR 2169
ENCODING 8553
SWIDTH 903 0
DWIDTH 40 0
BBX 40 40 0 -6
BITMAP
0000300000
00003e0000
00003c0000
0000380000
0000380300
0000380780
07ffffffc0
00003803c0
0000380380
0000380380
0000380380
0000380380
0000380380
000038038c
000038039e
ffffffffff
0000380000
0000380000
0000380000
0000380c00
0000381e00
03ffffff00
0010001f00
0018001c00
000c003c00
000e003800
0007007000
000380e000
0001c1c000
0000f38000
00007f0000
00003e0000
00007f8000
0000f3e000
0003c0f800
000f003f80
003c000fff
01f00003ff
0f8000007e
f80000000e
ENDCHAR
STARTCHAR 216a
ENCODING 8554
SWIDTH 903 0
DWIDTH 40 0
BBX 40 40 0 -6
BITMAP
0000180300
00001f03e0
00001e03c0
00001c0380
00001c0380
60301c0380
70781c0380
7ffc1c0380
703c1c0380
70381c0380
70381c0380
70381c0380
70381c0380
70381c0380
70381c0380
70381c0380
70381c0380
70381c0380
70381c0380
70381c0380
70381c0380
70381c0380
70381c0380
70381c0380
70381c0380
70381c0380
7038380380
7ff8380380
7038380380
7030380380
7000300380
6000700381
0000600381
0000600383
0000c00383
0000c003c6
00018003ff
00030001ff
00060000fe
000c000000
ENDCHAR
STARTCHAR 216b
ENCODING 8555
SWIDTH 903 0
DWIDTH 40 0
BBX 40 40 0 -6
BITMAP
0000030000
0000018000
000c00c000
000f806000
000f006000
000e003000
000e001800
001c001c00
001c000e00
0038000700
0038000780
00700003c0
00e00001f0
01c00000f8
038000007f
070000003f
0e0000001e
3800000006
e000000300
0180000780
01ffffffc0
01c00003c0
01c0000380
01c0000380
01c0000380
01c0000380
01c0000380
01c0000380
01c0000380
01c0000380
01c0000380
01c0000380
01c0000380
01c0000380
01c0000380
01c0000380
01ffffff80
01c0000380
01c0000300
0180000000
ENDCHAR
STARTCHAR 216c
ENCODING 8556
SWIDTH 903 0
DWIDTH 40 0
BBX 40 40 0 -6
BITMAP
0000000000
0180000180
01c00003c0
01ffffffe0
01c00001e0
01c00001c0
01c00001c0
01c00001c0
01c00001c0
01c00001c0
01c00001c0
01c00001c0
01c00001c0
01ffffffc0
01c00001c0
0180000180
0000000000
0000000000
0000000060
00000000f0
1ffffffff8
0000e00078
0000e00070
0000e00070
0000e00070
0001c00070
0001c00070
0003800070
0003800070
0007000070
0007000070
000e000070
001c000070
00380000f0
00700000e0
00e00003e0
038007ffc0
0700007f80
1c00000f00
f000000e00
ENDCHAR
STARTCHAR 216d
ENCODING 8557
SWIDTH 903 0
DWIDTH 40 0
BBX 40 40 0 -6
BITMAP
0000000000
3000000030
3800000078
3ffffffffc
380000003c
3800000038
3800300038
38003e0038
38003c0038
3800380038
3800380038
3800700038
3800700038
3800700038
3800e00038
3800e00038
3800c00038
3801c00038
3801800038
3803800038
3803000038
3807000038
380600c038
380c006038
381c003038
3818001838
3830000c38
3860000e38
38c007ff38
39ffff0738
39ff800738
38e0000738
3860000338
3800000038
3800000038
3800000038
3ffffffff8
3800000038
3800000030
3000000000
ENDCHAR
STARTCHAR 216e
ENCODING 8558
SWIDTH 903 0
DWIDTH 40 0
BBX 40 40 0 -6
BITMAP
0000000000
3000000030
3800000078
3ffffffffc
380000003c
3800000038
3800000038
3801800038
3800c00038
3800600038
3800300038
3800180038
3800180038
38001c0038
38001c0038
38001e0038
38003e0038
38003e0038
3800330038
3800730038
3800738038
3800e1c038
3800e1c038
3801c0e038
380380f038
3803807838
3807007c38
380e003e38
381c001fb8
3838000fb8
3870000738
38e0000338
3b80000038
3800000038
3800000038
3800000038
3ffffffff8
3800000038
3800000030
3000000000
ENDCHAR
STARTCHAR 216f
ENCODING 8559
SWIDTH 903 0
DWIDTH 40 0
BBX 40 40 0 -6
BITMAP
0000000000
3000000030
3800000078
3ffffffffc
380000003c
3800000038
3800000038
3800000038
3800000038
3800000038
3800030038
3800078038
3fffffc038
380003c038
3800038038
3800038038
3800038038
3800038038
3800038038
3800038038
3800038038
3800038038
3800038038
3800038038
3800038038
3800038038
3800038038
3fffff8038
3800038038
3800030038
3800000038
3800000038
3800000038
3800000038
3800000038
3800000038
3ffffffff8
3800000038
3800000030
3000000000
ENDCHAR
STARTCHAR 2170
ENCODING 8560
SWIDTH 903 0
DWIDTH 40 0
BBX 40 40 0 -6
BITMAP
0000300000
00003e0000
00003c0000
0000380000
0000380000
0000380000
00003800c0
00003801e0
0ffffffff0
0000380000
0000380000
0000380000
0000380000
0000380000
0000380000
0000380000
000038000c
000038001e
ffffffffff
000e00e000
000e00e000
000e00e000
000e00e000
000e00e000
000e00e000
000e00e000
001c00e000
001c00e000
001c00e000
003800e000
003800e001
007000e001
007000e003
00e000e003
01c000e006
038000f00e
070000ffff
0e00007fff
3800003ffe
e000000000
ENDCHAR
STARTCHAR 2171
ENCODING 8561
SWIDTH 903 0
DWIDTH 40 0
BBX 40 40 0 -6
BITMAP
0000000000
180000000c
1c0000001e
1fffffffff
1c00000000
1c00000000
1c00060000
1c0007c000
1c00078000
1c00070000
1c00070000
1c00070000
1c00070000
1c00070000
1c00070000
1c00070020
1c00070070
1c7ffffff8
1c00070000
1c00070000
1c00070000
1c00070000
1c00070000
1c00070000
1c00070000
1c00070000
1c00070000
1800070000
1800070000
3800070000
3800070000
3000070000
3000070000
3000070000
600007000c
600007001e
47ffffffff
c000000000
8000000000
0000000000
ENDCHAR
STARTCHAR 2172
ENCODING 8562
SWIDTH 903 0
DWIDTH 40 0
BBX 40 40 0 -6
BITMAP
0000600000
00007c0000
0000780000
0000700000
0000700000
0000e00000
0000e00018
0001c0003c
7ffffffffe
000380c000
0007806000
0007003000
000e003800
001e001c00
001c000e00
0038000700
0070000380
00e00001e0
01c00000f8
038000007f
070000003f
0e0000001e
3800000306
e1ffffff80
0000000000
0000000000
0000000000
0000000000
0000000000
0000000000
0000000000
0000000000
0000000000
0000000000
0000000000
0000000030
0000000078
3ffffffffc
0000000000
0000000000
ENDCHAR
STARTCHAR 2173
ENCODING 8563
SWIDTH 903 0
DWIDTH 40 0
BBX 40 40 0 -6
BITMAP
0180000000
01f0000000
01e0000000
01c0000000
01c0000000
01c0000000
0380000000
0380000018
038000003c
03fffffffe
07000e0000
06000e0000
0e000e0000
0c000e0000
18000e0000
30000e0000
60000e0000
c0000e0000
00c00e0000
00f80e0600
00f00e0300
00e00e0180
00e00e00c0
01c00e0060
01c00e0070
03800e0038
03000e003c
07000e001e
06000e001e
0c000e000e
18000e000e
30000e0006
60000e0000
00000e0000
00000e0000
00001e0000
000ffe0000
0000fc0000
0000380000
0000300000
ENDCHAR
STARTCHAR 2174
ENCODING 8564
SWIDTH 903 0
DWIDTH 40 0
BBX 40 40 0 -6
BITMAP
0000000000
1800000030
1c00000078
1ffffffffc
1c0000003c
1c00000038
1c00000038
1c00000038
1c00000038
1c00000038
1c00000038
1c00000038
1ffffffff8
1c00000038
1c00000030
1c00000000
1c00000000
1c00000000
1c00000000
1c00000060
1c000000f0
1c7ffffff8
1c00000000
1c00000000
1c00000000
1c00000000
1800000000
3800000000
3800000000
3800000000
3000000000
3000000000
7000000000
6000000000
6000000000
400000000c
c00000001e
87ffffffff
0000000000
0000000000
ENDCHAR
STARTCHAR 2175
ENCODING 8565
SWIDTH 903 0
DWIDTH 40 0
BBX 40 40 0 -6
BITMAP
0000000300
00600003c0
0030000780
0018000700
000c000e00
0006000c00
0007001800
0003803000
0003806060
030180c0f0
03fffffff8
0380000078
0380000070
0380000070
0380000070
0380000070
0380000070
0380000070
0380000070
0380000070
0380000070
0380000070
03fffffff0
0380000070
0380000060
0380000000
0380000000
0380000000
0380000000
0300000000
0700000000
0700000000
0600000000
0e00000000
0c00000000
1c00000000
1800000000
3000000000
6000000000
c000000000
ENDCHAR
STARTCHAR 2176
ENCODING 8566
SWIDTH 903 0
DWIDTH 40 0
BBX 40 40 0 -6
BITMAP
0000180000
00001f0000
0c001e0030
0f801c003e
0f001c003c
0e001c0038
0e001c0038
0e001c0038
0e001c0038
0e001c0038
1ffffffff8
0c00000030
0000000000
0000000000
1800000006
1fffffffff
1c00000000
1c00000000
1c00000000
1c00000000
1c00000000
1c00000000
1c00000000
1c00000000
1c00000000
1c00000000
1c00000000
1c00000000
1800000000
1800000000
3800000000
3800000000
3000000000
3000000000
3000000000
6000000000
6000000000
4000000000
c000000000
8000000000
ENDCHAR
STARTCHAR 2177
ENCODING 8567
SWIDTH 903 0
DWIDTH 40 0
BBX 40 40 0 -6
BITMAP
0180000000
01f0000000
01e00600c0
01c00701e0
01c007fff0
01c00700f0
01c60700e0
61cf0700e0
7fff8700e0
71c78700e0
71c70700e0
71c70700e0
71c70700e0
71c70700e0
71c70700e0
71c70700e0
71c70700e0
71c70700e0
71c70700e0
71c70700e0
71c70700e0
71c70700e0
71c70700e0
71c70700e0
71c70700e0
71c70700e0
71c70e00e0
71c70e00e0
71ff0e00e0
71ce0e00e0
61cc0c00e0
01c01c00e1
01c01c00e1
01c01800e3
01c03800e3
01c03000e6
01c07000ff
01c060007f
01c0c0003e
0181800000
ENDCHAR
STARTCHAR 2178
ENCODING 8568
SWIDTH 903 0
DWIDTH 40 0
BBX 40 40 0 -6
BITMAP
0000000c00
00c0000f00
0060001e00
0030001c00
0018003800
001c007000
000e006000
000e00c060
00060180f0
3ffffffff8
0000380000
0000380000
0000380000
0000380000
0000380000
0000380000
0000380000
0000380000
0000380000
0000380000
000038000c
000038001e
ffffffffff
0000380000
0000380000
0000380000
0000380000
0000380000
0000380000
0000380000
0000380000
0000380000
0000380000
0000380000
0000380000
0000380000
0000380000
0000380000
0000380000
0000300000
ENDCHAR
STARTCHAR 2179
ENCODING 8569
SWIDTH 903 0
DWIDTH 40 0
BBX 40 40 0 -6
BITMAP
0060000000
0078000000
00f0180018
00e01c003c
01c01ffffe
01c01c001e
03801c001c
07001c001c
06001c001c
0c001c001c
18181c001c
301e1c001c
603c1c001c
00381c001c
00701c001c
00f01c001c
00e01c001c
01c01c001c
03c01c001c
03c01c001c
07c01c001c
0fc01c001c
0dc01c003c
19c01c1ffc
31c01c01f8
61c01c0070
c1c01c0060
01c01c0000
01c01c0000
01c01c0000
01c01c0000
01c01c0001
01c01c0001
01c01c0003
01c01c0003
01c01e0006
01c01fffff
01c00fffff
01c007fffe
0180000000
ENDCHAR
STARTCHAR 217a
ENCODING 8570
SWIDTH 903 0
DWIDTH 40 0
BBX 40 40 0 -6
BITMAP
0180000000
01f0300018
01e03e001f
01c03c001e
01c038001c
01c038001c
01c038001c
01c038001c
01c038001c
01c638001c
ffff38001c
01c038001c
01c038001c
01c038001c
01c038001c
01c038001c
01c038001c
01c038001c
01c738001c
01fc38001c
03f038001c
1fc038001c
ffc038001c
fdc038001c
71c038001c
31c038001c
01c038001c
01c038001c
01c038001c
01c038001c
01c038001c
01c038001c
01c038001c
01c038001c
01c038001c
03c038001c
ffc07ffffc
1f8030001c
070000001c
0600000018
ENDCHAR
STARTCHAR 217b
ENCODING 8571
SWIDTH 903 0
DWIDTH 40 0
BBX 40 40 0 -6
BITMAP
0180000018
01f000001f
01e018001e
01c01f001c
01c01e001c
01c01c001c
01c01c001c
01c01c001c
01c01c001c
01c61c001c
ffff1c001c
01c01c001c
01c01c001c
01c01c001c
01c01c001c
01c01c001c
01c01c001c
01c01c001c
01c71c001c
01fc1c001c
03f01c001c
1fc01c001c
ffc01c001c
fdc01c001c
71c01c001c
31c03ffffc
01c018001c
01c000001c
01c000001c
01c000001c
01c000001c
01c000001c
01c000001c
01c000001c
01c000001c
03c000001c
ffc000001c
1f8000001c
070000001c
0600000018
ENDCHAR
STARTCHAR 217c
ENCODING 8572
SWIDTH 903 0
DWIDTH 40 0
BBX 40 40 0 -6
BITMAP
0000000000
0c000000c0
0e000001e0
0ffffffff0
0e000000f0
0e000000e0
0e000000e0
0e000000e0
0e000000e0
0e000000e0
0e000000e0
0e000000e0
0fffffffe0
0e003800e0
0e003800e0
0e003800e0
0e003800e0
0e003800e0
0e003800e0
0e003800e0
0e003800e0
0fffffffe0
0e003800e0
0e003800c0
0c00380000
0000380000
0000380000
0000380000
0000380000
0000380000
0000380000
0000380000
0000380000
0000380000
0000380000
0000380000
0000380000
0000380000
0000380000
0000300000
ENDCHAR
STARTCHAR 217d
ENCODING 8573
SWIDTH 903 0
DWIDTH 40 0
BBX 40 40 0 -6
BITMAP
0000300000
00003e0000
18003c0060
1f0038007c
1e00380078
1c00380070
1c00380070
1c00380070
1c00380070
1c00380070
1c00380070
1c00380070
3ffffffff0
1800380070
0000780060
0000fc0000
0000fe0000
0001ff0000
0003bb8000
0003b9c000
000738e000
000e387000
001e383800
003c381c00
0038380e00
0070380700
00e0380380
01c03801c0
03803800f0
070038007f
0e0038003f
1c0038001c
380038000c
6000380000
c000380000
0000380000
0000380000
0000380000
0000380000
0000300000
ENDCHAR
STARTCHAR 217e
ENCODING 8574
SWIDTH 903 0
DWIDTH 40 0
BBX 40 40 0 -6
BITMAP
00000000e0
00000007f0
0000003ff8
000001fc00
00003f8000
0000380000
0000380000
0000380000
0000380000
0000380000
0000380000
0000380000
0000380018
000038003c
7ffffffffe
0000780000
00007c0000
0000fe0000
0000fa0000
0001bb0000
0003b90000
0003398000
000738c000
000e386000
000e387000
001c383800
0038381c00
0070380e00
00e0380780
01c03803c0
03803801f0
07003800ff
0e0038007f
1c0038001c
700038000c
c000380000
0000380000
0000380000
0000380000
0000300000
ENDCHAR
STARTCHAR 2221
ENCODING 8737
SWIDTH 903 0
DWIDTH 40 0
BBX 40 40 0 -6
BITMAP
0000000000
0000000000
0000000000
3000000030
3800000078
3ffffffffc
380701c03c
380701c038
380701c038
380701c038
380701c038
380701c038
380701c038
380701c038
380701c038
380701c038
380701c038
380701c038
380701c038
380701c038
380701c038
380701c038
380701c038
380701c038
380701c038
380701c038
380701c038
380701c038
380701c038
380701c038
380701c038
380701c038
380701c038
3ffffffff8
3800000038
3800000030
3000000000
0000000000
0000000000
0000000000
ENDCHAR
STARTCHAR 2222
ENCODING 8738
SWIDTH 903 0
DWIDTH 40 0
BBX 40 40 0 -6
BITMAP
0000000000
6030000000
7078180180
7ffc1c03c0
703c1fffe0
70381c01e0
70301c01c0
70701c01c0
70601c01c0
70601c01c0
70c01c01c0
70c01c01c0
71801c01c0
71801c01c0
70801c01c0
70c01c01c0
70601c01c0
70701c01c0
70301c01c0
70381c01c0
70381c01c0
701c1c01c0
701c1c01c0
701c1c01c0
701c1c01c0
701c1801c0
701c3801c0
703c3801c0
7ffc3801c0
71f83001c0
70703001c0
70607001c1
70006001c1
70006001c3
7000c001c3
7000c001e6
70018001ff
70030000ff
700600007e
600c000000
ENDCHAR
STARTCHAR 2223
ENCODING 8739
SWIDTH 903 0
DWIDTH 40 0
BBX 40 40 0 -6
BITMAP
0000060000
603007c000
7078078000
7ffc070000
703c070000
7038070000
7030070000
7070070000
7060070000
7060070180
70c00703c0
70c1ffffe0
71800701e0
71800701c0
70800701c0
70c00701c0
70600701c0
70700701c0
70300701c0
70380701c0
70380701c0
701c0701c0
701c0701c0
701c0e01c0
701c0e01c0
701c0e01c0
701c0e01c0
703c1c01c0
7ffc1c01c0
71f81801c0
70703801c0
70603001c1
70007001c1
70006001c3
7000c001c3
70018001e6
70030001ff
70060000ff
700c00007e
6018000000
ENDCHAR
STARTCHAR 2224
ENCODING 8740
SWIDTH 903 0
DWIDTH 40 0
BBX 40 40 0 -6
BITMAP
0000000000
000000000c
000000001e
ffffffffff
0000380000
0000380000
0000380000
0000380000
0000380000
1800380060
1c003800f0
1ffffffff8
1c00700078
1c00700070
1c00700070
1c00700070
1c00e60070
1c00e30070
1c00c18070
1c01c0c070
1c0180e070
1c03807070
1c07003870
1c06003c70
1c0c001e70
1c18001e70
1c30000e70
1c60000e70
1cc0000670
1d80000070
1c00000070
1c00000070
1c00000070
1c00000070
1c00000070
1c00000070
1ffffffff0
1c00000070
1c00000060
1800000000
ENDCHAR
STARTCHAR 2225
ENCODING 8741
SWIDTH 903 0
DWIDTH 40 0
BBX 40 40 0 -6
BITMAP
0000000780
0000007fc0
000c1fffe0
000ffe0000
000e000000
000e0000c0
000e0001e0
000ffffff0
000e0000f0
000e0000e0
000e0000e0
000e0000e0
0c0e0000e0
0f8fffffe0
0f0e0000e0
0e0e0000e0
0e0e0000e0
0e0e0000e0
0e0e0000e0
0e0fffffe0
0e0e0000c0
0e0e000000
0e0e000030
0e0e000078
1ffffffffc
0c0e00003c
001c000038
001c000038
001c000038
0038000038
0038000038
0070000038
0070000038
00e0000078
01c0000070
03800000f0
070001ffe0
0e00000fc0
3800000380
e000000300
ENDCHAR
STARTCHAR 2226
ENCODING 8742
SWIDTH 903 0
DWIDTH 40 0
BBX 40 40 0 -6
BITMAP
0000000000
0000000380
0000003fc0
000003ffe0
00007fe000
030ff80000
03fc000000
0380000000
03800001c0
0380001fe0
038001fff0
03861ff000
0387fc0000
0387040000
0387040000
0387040000
0387060000
0387060060
03870600f0
03870301e0
0387030380
0387030700
0387018e00
0387019800
038700f000
038700c000
0387006000
0387007000
0707003800
0707001c00
0707000e00
0e07000700
0e0701c3c0
0c070701e0
1c073c00f0
1807f0007f
3807e0003f
3007c0001c
600380000c
c001800000
ENDCHAR
STARTCHAR 2227
ENCODING 8743
SWIDTH 903 0
DWIDTH 40 0
BBX 40 40 0 -6
BITMAP
00000007c0
0000007fe0
00001ffff0
0003ffc000
007ff80000
1ff0380000
0000380000
0000380000
0000380000
0000380000
0000380000
0000380060
000c3800f0
001e3801f8
003c3803e0
00703c0780
00e03c0e00
01c03e1c00
07003a7000
0e003bc000
3800390000
e000398000
000038c000
0000386000
0006387000
000f383800
001e381c00
0038380f00
00703807c0
01c03803f0
03803801ff
0e003800ff
380038003e
e00038000e
0000380000
0000380000
0000380000
0000380000
0000380000
0000300000
ENDCHAR
STARTCHAR 2228
ENCODING 8744
SWIDTH 903 0
DWIDTH 40 0
BBX 40 40 0 -6
BITMAP
0000000000
0003000000
0007800000
7fffc00000
0007c00000
000f000000
000e000018
001c60003c
003c7ffffe
003870381e
007070381c
007070381c
00e070381c
01e070381c
01c070381c
038070381c
038070381c
070070381c
0e007ffffc
0e0070381c
1c0070381c
1c0070381c
380070381c
380070381c
700070381c
700070381c
700070381c
e00070381c
e0007ffffc
e000700018
e000600001
e000000001
e000000003
e000000003
f000000006
7c0000000e
3fffffffff
1fffffffff
07fffffffe
0000000000
ENDCHAR
STARTCHAR 2229
ENCODING 8745
SWIDTH 903 0
DWIDTH 40 0
BBX 40 40 0 -6
BITMAP
006000c000
007c00f800
007800f000
007000e000
00f000e000
00e000e000
00e000e000
01c080e000
01c080e00c
038080e01e
0381ffffff
078180e01f
078380e01c
0f8780e018
0f8700e030
1f8600e020
3b8000e000
338001c000
638001c000
c38001f000
038001fe00
038003bc00
038003b800
038003b800
0380073800
0380073800
0380073800
03800e3800
03800e3800
03801c3800
03801c3800
0380383801
0380703801
0380703803
0380e03803
0381c03c06
0383803fff
0387001fff
038e000ffe
0338000000
ENDCHAR
STARTCHAR 222a
ENCODING 8746
SWIDTH 903 0
DWIDTH 40 0
BBX 40 40 0 -6
BITMAP
0060000000
007c00000c
0078c0001e
0070ffffff
00f0e00000
00e0e00000
00e0e00000
01c0e00000
01c0e00018
0380e3003c
0380e3fffe
0780e3801e
0780e3801c
0f80e3801c
0f80e3801c
1f80e3801c
3b80e3801c
3380e3801c
6380e3801c
c380e3801c
0380e3801c
0380e3801c
0380e3801c
0380e3803c
0380e39ffc
0381c381f8
0381c38070
0381c38060
0381c38000
0381838000
0383838001
0383838001
0383038003
0387038003
0386038006
038603c00e
038c03ffff
038c01ffff
039800fffe
0310000000
ENDCHAR
STARTCHAR 222b
ENCODING 8747
SWIDTH 903 0
DWIDTH 40 0
BBX 40 40 0 -6
BITMAP
0060000c00
007c300600
00783e0300
00703c0180
00f0380180
00e03800c0
00e07000e0
01c0700070
01c0e00078
0380e0003c
0381c0001f
078180001f
078300000e
0f86ffffe6
0f8c0e0000
1f980e0000
3b800e0000
33801c0000
63801c0000
c380380060
03803800f0
03807ffff8
0380300078
0380000070
0380000070
0380000070
0380000070
0380000070
0380000070
03800000e0
03800000e0
03800000e0
03800001c0
03800001c0
0380000380
0380000780
03803fff00
038001fe00
0380003c00
0300003800
ENDCHAR
STARTCHAR 222c
ENCODING 8748
SWIDTH 903 0
DWIDTH 40 0
BBX 40 40 0 -6
BITMAP
0000300000
00003e0000
00003c0000
000038000c
000038001e
ffffffffff
0000380000
0000380000
1800380070
1ffffffff8
1c00380078
1c00380070
1c00380070
1c00380070
1c00380070
1c00380070
1c00383ff0
1c003803f0
1c003800e0
18003800c0
0000300000
0000000000
0000300000
00003e0000
00003c0000
0000380000
0000780000
00007c0000
0000e60000
0001c30000
0003818000
000700e000
000e007000
001c003c00
0038001f00
00e00007e0
01c00003ff
07000000ff
1c0000003e
f00000000e
ENDCHAR
STARTCHAR 222d
ENCODING 8749
SWIDTH 903 0
DWIDTH 40 0
BBX 40 40 0 -6
BITMAP
0030000000
003e000018
003c00003c
0079fffffe
0070070000
0070070000
00e0070000
00e0070000
01c0070000
01c0070000
03c00e0000
03c00e0180
07c00e03c0
07c00fffe0
0fc00e01e0
0fc00e01c0
1dc01c01c0
39c01c01c0
31c01c01c0
61c01c01c0
c1c01c01c0
01c0380380
01c0380380
01c0380380
01c0380380
01c0380380
01c07fff80
01c0300700
01c0000700
01c0000700
01c0000700
01c0000700
01c0000e00
01c0000e00
01c0000e00
01c0000e04
01c0000e0e
01c7ffffff
01c0000000
0180000000
ENDCHAR
STARTCHAR 222e
ENCODING 8750
SWIDTH 903 0
DWIDTH 40 0
BBX 40 40 0 -6
BITMAP
0060000000
007c00000c
007800001e
0073ffffff
00f0e00000
00e0e00000
00e0e00060
01c0e00078
01c0e60078
0380e30070
0380e18070
0780e1c0e0
0780e0e0e0
0f80e060e0
0f80e071c0
1f80e039c0
3b80e019c0
3380e01f80
6380e00f80
c380e00f00
0380e00700
0380e00f80
0380e00f80
0380e01dc0
0380e019c0
0380e038e0
0380e070e0
0380e06070
0380e0c070
0380e18038
0380e30038
0380e60018
0380ec0000
0380e00000
0380e00000
0380f00000
0380fffffe
03807fffff
03803fffff
0300000000
ENDCHAR
STARTCHAR 222f
ENCODING 8751
SWIDTH 903 0
DWIDTH 40 0
BBX 40 40 0 -6
BITMAP
0060000000
007c000000
0078c00018
0070e0003c
00f0fffffe
00e0e0001e
00e0e0001c
01c0e0001c
01c0e0001c
0380e0001c
0380e0001c
0780e0001c
0780e0001c
0f80e3001c
0f80e1801c
1f80e0c01c
3b80e0601c
3380e0301c
6380e0181c
c380e01c1c
0380e00e1c
0380e00f1c
0380e0071c
0380e0071c
0380e0031c
0380e0001c
0380e0001c
0380e0001c
0380e0001c
0380e0001c
0380e0001c
0380e0001c
0380e0001c
0380e0001c
0380e0001c
0380fffffc
0380e0001c
0380e00018
0380c00000
0300000000
ENDCHAR
STARTCHAR 2230
ENCODING 8752
SWIDTH 903 0
DWIDTH 40 0
BBX 40 40 0 -6
BITMAP
0030006000
003e007c00
003c007800
0078007000
0070007000
0070007000
00e0007000
00e000700c
01c000701e
01c0007fff
03c0007000
03c0007000
07c0007000
07c0007000
0fc0007000
0fc0007030
1dc0007078
39c1fffffc
31c010007c
61c0180070
c1c0080070
01c00c0070
01c00c00e0
01c00600e0
01c00601c0
01c00301c0
01c0038380
01c001c700
01c000ee00
01c000fc00
01c0007c00
01c0007c00
01c000ff00
01c001c780
01c00783e0
01c00e01f8
01c03c00ff
01c0f0003f
01c3c0001e
019e000006
ENDCHAR
STARTCHAR 2231
ENCODING 8753
SWIDTH 903 0
DWIDTH 40 0
BBX 40 40 0 -6
BITMAP
0180600c00
01f07c0f80
01e0780f00
01c0700e00
0380e00e00
0380e00e00
0380e00e00
0701c00e00
0701c00e00
0701c00e00
0e03800e00
0e03800e00
1e07800e00
1e07800e00
3e0f800e00
3e0f800e00
6e1b800f00
6e1b801d00
ce33801d00
8e23801d00
0e03801d00
0e03801d80
0e03801980
0e03803980
0e038038c0
0e038038c0
0e038030c0
0e038070e0
0e038070e0
0e03806060
0e0380e070
0e0380c070
0e0381c038
0e03818038
0e0383803c
0e0383001e
0e0386001f
0e038c000f
0e0398000e
0c03300006
ENDCHAR
STARTCHAR 2232
ENCODING 8754
SWIDTH 903 0
DWIDTH 40 0
BBX 40 40 0 -6
BITMAP
0006018000
0007c1f000
000781e000
000701c000
000701c000
000701c000
300701c018
380701c03c
3fff01fffe
380701c01e
380701c01c
380701c01c
380701c01c
380701c01c
380701c01c
380701c01c
380701c01c
380701c01c
380701c01c
380701c01c
380701c01c
7fff01fffc
300701c01c
000701c018
000e01c000
000e01c000
000e01c000
001c01c000
001c01c000
003801c000
003801c001
007001c001
007001c003
00e001c003
01c001c006
038001e00e
070001ffff
0e0000ffff
3800007ffe
e000000000
ENDCHAR
STARTCHAR 2233
ENCODING 8755
SWIDTH 903 0
DWIDTH 40 0
BBX 40 40 0 -6
BITMAP
0000000000
00c00000c0
00e00001e0
00fffffff0
00e0000000
00e0000000
00e0000000
00e0000000
00e0000000
00e0000c00
00e0001e00
00ffffff00
00e0000000
00e0000000
00e0000000
00e0000000
00e0000000
00e000000c
00e000001e
ffffffffff
0000000000
0000000000
001800c000
001f00f800
001e00f000
001c00e000
001c00e000
001c00e000
001c00e000
003800e000
003800e001
007000e001
007000e003
00e000e003
01c000e006
038000f00e
070000ffff
0e00007fff
3800003ffe
e000000000
ENDCHAR
STARTCHAR 2234
ENCODING 8756
SWIDTH 903 0
DWIDTH 40 0
BBX 40 40 0 -6
BITMAP
0000030000
000c018000
000f80c000
000f006000
001e003000
001c001800
0038000e00
0070000700
00e00003c0
01c00001f8
03800000ff
070000003f
0e0000001e
3800000186
e3ffffffc0
0000380000
0000380000
0000380000
0000380000
0000380000
0000380000
0000380000
000038000c
000038001e
ffffffffff
0000700000
0000e00000
0000e00000
0001c0e000
0003803800
0007000e00
000e000700
001c0003c0
00380001e0
00700000f0
00e0000078
038000003c
070000001e
1c0000000e
7000000006
ENDCHAR
STARTCHAR 2235
ENCODING 8757
SWIDTH 903 0
DWIDTH 40 0
BBX 40 40 0 -6
BITMAP
0000030000
000c018000
000f80c000
000f006000
001e003000
001c001800
0038000e00
0070000700
00e03003c0
01c03e01f8
03803c00ff
070038003f
0e0038001e
3800380006
e000380180
06003803c0
07ffffffe0
07003801e0
07003801c0
07003801c0
07003801c0
07003801c0
07003801c0
07003801c0
07003801c0
07003801c0
07ffffffc0
07003801c0
0600380180
0000380000
0000380000
0000380000
0000380000
0000380000
0000380000
0000380000
0000380000
0000380000
0000380000
0000300000
ENDCHAR
STARTCHAR 2236
ENCODING 8758
SWIDTH 903 0
DWIDTH 40 0
BBX 40 40 0 -6
BITMAP
0000000000
00c0000c00
00e0001e00
00ffffff00
00e0000f00
00e0000e00
00e0000e00
00e0000e00
00e0600e00
00e0700e00
00e07ffe00
00e0700e00
00e0700e00
00e0700e00
00e0700e00
00e0700e00
30e0700e30
38e0700e78
3ffffffffc
380000003c
3800000038
3800000038
3800000038
3800000038
3800000038
3800000038
3800000038
3800000038
3800000038
3800000038
3800000038
3800000038
3800000038
3800000038
3800000038
3800000078
3800007ff8
38000003f0
38000000e0
30000000c0
ENDCHAR
STARTCHAR 2237
ENCODING 8759
SWIDTH 903 0
DWIDTH 40 0
BBX 40 40 0 -6
BITMAP
0000000000
0800000000
080000000c
180000001e
1fffffffff
380000001f
700000001c
f000000018
e000060030
c000030020
000c018000
000f81c000
000f00c000
000e006000
001c007000
0018003800
0038001e00
0070000f00
00e00007c0
01c18003f0
0381f001ff
0701e000ff
0e01c00078
1c01c00018
7003800000
0003800000
0007000000
0007003000
000e001800
000e000c00
001c000e00
0038000700
0070000380
00e003ffc0
01c0fe01c0
07ffc001c0
07fc0001c0
03c00000c0
01c0000000
0000000000
ENDCHAR
STARTCHAR 2238
ENCODING 8760
SWIDTH 903 0
DWIDTH 40 0
BBX 40 40 0 -6
BITMAP
0000000000
0000000000
0000018000
600000c000
3800006000
1c00007000
0e00003800
0f00003c00
0700001e00
0300001e00
0020180e00
00201e0e00
00601c0600
00401c0000
00c01c0000
00c01c0000
01801c0000
01801c0000
03821c0000
03021c0000
03021c0000
07021c00c0
06061c0060
0e061c0030
0e061c0038
1c0e1c001c
fc0e1c001e
7c0e1c000e
381e1c000f
381c1c0007
1c3c1c0047
1c3c1c0047
1c381c00c3
1e381c00c0
1e301e0180
1e001fffc0
1e000fffc0
0c0007ff80
0000000000
0000000000
ENDCHAR
STARTCHAR 2239
ENCODING 8761
SWIDTH 903 0
DWIDTH 40 0
BBX 40 40 0 -6
BITMAP
0060000018
007c00001f
007800001e
007000001c
007000001c
007000301c
0070003e1c
0070303c1c
007078381c
fffffc381c
007000381c
007000381c
007000381c
007000381c
007000381c
007060381c
0070f0381c
7ffff8381c
0800f8381c
0c00e0381c
0600e0381c
0200e0381c
0301c0381c
0181c0381c
00c380381c
00e380381c
007700381c
003e00381c
003e00381c
001e00301c
003f00001c
007780001c
00e3c0001c
01c1e0001c
0380f0001c
070078003c
0e00381ffc
38001801f8
e000000070
0000000060
ENDCHAR
STARTCHAR 223a
ENCODING 8762
SWIDTH 903 0
DWIDTH 40 0
BBX 40 40 0 -6
BITMAP
0030000018
003e00001f
003c00001e
003800001c
003800001c
003808301c
00381c3e1c
fffffe3c1c
003800381c
003800381c
003800381c
003800381c
303830381c
383878381c
3ffffc381c
38383c381c
383838381c
383838381c
383838381c
383838381c
383838381c
383838381c
383838381c
383838381c
383838381c
383838381c
383838381c
383838381c
383838381c
383838301c
383878001c
383ff8001c
3838f0001c
3838e0001c
3038c0001c
003800003c
0038001ffc
00380001f8
0038000070
0030000060
ENDCHAR
STARTCHAR 223b
ENCODING 8763
SWIDTH 903 0
DWIDTH 40 0
BBX 40 40 0 -6
BITMAP
000c000018
000600001f
030300001e
03c180001c
0380c0001c
038060301c
0380703e1c
0700383c1c
07001c381c
06001e381c
0e000e381c
0c000e381c
1c0006381c
180000381c
300060381c
6000f0381c
cffff8381c
01c078381c
01c070381c
01c070381c
01c070381c
01c070381c
01c070381c
01c070381c
01c070381c
01c070381c
01c070381c
038070381c
038070381c
038070301c
070070001c
070070001c
060070001c
0e00f0001c
0c00e0001c
1c01e0003c
187fc01ffc
30078001f8
6007000070
c006000060
ENDCHAR
STARTCHAR 223c
ENCODING 8764
SWIDTH 903 0
DWIDTH 40 0
BBX 40 40 0 -6
BITMAP
0300c00018
03e0f8001f
03c0f0001e
0380e0001c
0380e0001c
0380e0181c
0380e01f1c
0380e01e1c
0380e01c1c
0380e61c1c
7fffff1c1c
0380e01c1c
0380e01c1c
0380e01c1c
0380e01c1c
0380e01c1c
0380e01c1c
0380e01c1c
0380e01c1c
0380e01c1c
0380e01c1c
0380e31c1c
ffffff9c1c
0380e01c1c
0380e01c1c
0380e01c1c
0380e01c1c
0380e01c1c
0700e01c1c
0700e0181c
0700e0001c
0700e0001c
0e00e0001c
0e00e0001c
0c00e0001c
1c00e0003c
1800e00ffc
3000e001f8
6000e00070
c000c00060
ENDCHAR
STARTCHAR 223d
ENCODING 8765
SWIDTH 903 0
DWIDTH 40 0
BBX 40 40 0 -6
BITMAP
0000600018
000078001f
7000f0001e
1c00e0001c
0701c0001c
038380301c
00e7003e1c
007e003c1c
001c00381c
003f00381c
007780381c
00e1e0381c
01c0f0381c
038078381c
07003c381c
0e001c381c
38000c381c
e00000381c
000000381c
0000c0381c
0000f8381c
0000f0381c
7000e0381c
1c00e0381c
0701c0381c
0381c0381c
00e380381c
007b80381c
003f00381c
001f00301c
001f80001c
003bc0001c
0071e0001c
00e0f0001c
01c078001c
03803c003c
07001e1ffc
0e000e01f8
3800060070
e000000060
ENDCHAR
STARTCHAR 223e
ENCODING 8766
SWIDTH 903 0
DWIDTH 40 0
BBX 40 40 0 -6
BITMAP
0030000018
003e00001f
003c00001e
003800001c
003870001c
003bf8301c
003ffc3e1c
03f8003c1c
7f3800381c
003800381c
003800381c
003800381c
003800381c
003810381c
003838381c
7ffffc381c
003800381c
003800381c
003800381c
003800381c
003800381c
003800381c
003808381c
00381c381c
fffffe381c
003800381c
003800381c
007000381c
007000381c
007000301c
00e000001c
00e000001c
01c000001c
01c000001c
038000001c
070000003c
0e00001ffc
1c000001f8
3800000070
e000000060
ENDCHAR
STARTCHAR 223f
ENCODING 8767
SWIDTH 903 0
DWIDTH 40 0
BBX 40 40 0 -6
BITMAP
0180001800
00c0001f00
00e0001e00
0070001c00
0070201c00
0030701c00
fffff81c00
0000001c00
0000001c00
0000001c0c
0000001c1e
0c0307ffff
0e07801c0f
0fffc01c0e
0e03c01c0e
0e03801c0e
0e03801c0e
0e03801c0e
0e03801c0e
0e03801c0e
0e03801c0e
0e03801c0e
0e03801c0e
0e0380380e
0e0380380e
0e0380380e
0e0380380e
0e0380700e
0e0380700e
0e0380700e
1c038ce00e
1c03b8e00e
1c03f1c00e
1803e1c01e
3803c3801c
300183003c
7000061ff8
60000c03f0
c0001800e0
80003000c0
ENDCHAR
STARTCHAR 2240
ENCODING 8768
SWIDTH 903 0
DWIDTH 40 0
BBX 40 40 0 -6
BITMAP
1800001800
1f00001f00
1e00001e00
1c00001c00
1c00401c00
1c00e01c00
1ffff01c00
3800001c00
3000001c00
6000001c0c
c000801c1e
0001c7ffff
3fffe01c0f
0000001c0e
0000001c0e
0000001c0e
0003001c0e
0007801c0e
7fffc01c0e
0003c01c0e
0007001c0e
000e001c0e
001c001c0e
003800380e
00e000380e
01c000380e
038000380e
070000700e
0e0000700e
1c0000700e
380020e00e
700020e00e
700061c00e
700061c01e
7800c3801c
7fffe3003c
3fffe61ff8
0fffcc03f0
00001800e0
00003000c0
ENDCHAR
STARTCHAR 2241
ENCODING 8769
SWIDTH 903 0
DWIDTH 40 0
BBX 40 40 0 -6
BITMAP
0000001800
0003801f00
001fc01e00
01ffe01c00
3ff0001c00
0070001c00
0070001c00
0070001c00
0070001c00
0070001c0c
0070001c1e
007047ffff
0070e01c0f
7ffff01c0e
0070001c0e
0070001c0e
0070001c0e
0070001c0e
0070001c0e
0070001c0e
0070201c0e
0070701c0e
fffff81c0e
007000380e
007000380e
007000380e
007000380e
007000700e
007000700e
007000700e
007000e00e
007000e00e
007001c00e
007001c01e
007003801c
00f003003c
7ff0061ff8
07e00c03f0
01c01800e0
01803000c0
ENDCHAR
STARTCHAR 2242
ENCODING 8770
SWIDTH 903 0
DWIDTH 40 0
BBX 40 40 0 -6
BITMAP
0000c01800
0003e01f00
001ff01e00
18fe001c00
1fe0001c00
1c00001c00
1c00001c00
1c00001c00
1c00001c00
1c00001c0c
1c00001c1e
1c0023ffff
1c00701c0f
1ffff81c0e
1c07001c0e
1c07001c0e
1c07001c0e
1c07001c0e
1c07001c0e
1c07001c0e
1c07001c0e
1c07001c0e
1c07001c0e
1c0700380e
1c0700380e
1c0700380e
1c0700380e
1c0700700e
1c0700700e
180700700e
380700e00e
380700e00e
380701c00e
300701c01e
300703801c
700703003c
6007063ff8
60070c03f0
c0071800e0
80063000c0
ENDCHAR
STARTCHAR 2243
ENCODING 8771
SWIDTH 903 0
DWIDTH 40 0
BBX 40 40 0 -6
BITMAP
0000000000
3000000018
380000003c
3ffffffffe
3800000000
3800000000
380000c000
3800c06000
3800f03000
3801e01800
3801c01c00
3803800e00
3807000700
3806000380
380c0001e0
38181800fc
38301f007c
38601e0038
38c01c0018
3980380000
3800380000
3800700000
3800600000
3800e03000
3800c01800
3801800c00
3803800600
3803000300
3806000380
380c007fc0
38181fe1e0
387ffc00e0
387f8000e0
3838000060
3818000000
3800000004
380000000e
7fffffffff
3000000000
0000000000
ENDCHAR
STARTCHAR 2244
ENCODING 8772
SWIDTH 903 0
DWIDTH 40 0
BBX 40 40 0 -6
BITMAP
0000300000
00003e0000
00003c0000
0000380000
0000380000
0000380000
000038000c
000038001e
ffffffffff
0000380000
0000380000
0000380000
0180380600
01f03807c0
01e0380780
01c0380700
01c0380700
01c0380700
01c4380708
01ce38071c
ffff39fffe
01c0380700
01c0380700
01c0380700
01c0380700
01c0380700
01c0380700
01c0380700
01c0380700
01c0380700
01c0380700
01c0380700
01c0380700
01c0380700
0180380600
0000380000
0000380000
0000380000
0000380000
0000300000
ENDCHAR
STARTCHAR 2245
ENCODING 8773
SWIDTH 903 0
DWIDTH 40 0
BBX 40 40 0 -6
BITMAP
0000000000
0007000038
000f8000fc
007fc003fe
07f0003f80
7ce003f700
00e0000700
00e0000700
00e0000700
00e0000700
00e0000700
00e0000700
00e0000700
00e0000700
00e0800704
00e1c0070e
ffffe7ffff
00e0000700
00e0000700
00e0000700
00e0000700
00e0000700
00e0000700
00e0000700
00e0000700
00e0000700
00e0000700
00e0000700
01c0000700
01c0000700
01c0000700
0380000700
0380000700
0700000700
0600000700
0c00000700
1800000700
3000000700
6000000700
c000000600
ENDCHAR
STARTCHAR 2246
ENCODING 8774
SWIDTH 903 0
DWIDTH 40 0
BBX 40 40 0 -6
BITMAP
0000000000
6018006018
7c1f00703c
781e007ffe
701c00701e
701c00701c
701c00701c
701c00701c
701c00701c
701c00701c
701c00701c
701c00701c
701c00701c
701c08701c
719c1c701c
7fdffe701c
701c00701c
701c00701c
701c00701c
701c00701c
701c00701c
701c00701c
701c00701c
701c00701c
701c00701c
701c00701c
701c00701c
701c00701c
701c00703c
701c027ffc
701c0271f8
71dc067070
771c067060
7e1e0c7000
7c1ffe7000
780ffe7000
7007fc7000
3000007000
0000007000
0000006000
ENDCHAR
STARTCHAR 2247
ENCODING 8775
SWIDTH 903 0
DWIDTH 40 0
BBX 40 40 0 -6
BITMAP
0000000000
180000000c
1c0000001e
1fffffffff
1c00000000
1c00060000
1c0007c000
1c00078000
1c000f0000
1c000f8000
1c001dc000
1c001ce000
1c00387000
1c00703800
1c00e01c00
1c01c00e00
1c03800700
1c070003c0
1c0e0001f0
1c1d8018ff
1c39e01e3f
1ce1c01c1e
1f81c01c06
1c01c01c00
1c01c01c00
1c01c01c00
1c01c01c00
1801c01c00
1801c01c00
3803801c00
3803801c00
3003801c00
3007001c00
3007001c00
600e001c00
601c001c00
4038001c00
c070001c00
80e0001c00
0380001800
ENDCHAR
STARTCHAR 2248
ENCODING 8776
SWIDTH 903 0
DWIDTH 40 0
BBX 40 40 0 -6
BITMAP
0000600000
00007c0000
0000780000
0000f00000
0000e00000
0001c00000
0003800000
0007003000
000e001800
001c000c00
0038000600
0070000300
00e0000180
01c003ffc0
07ffff81e0
07ff8000e0
03c00000e0
01c0000060
0000000000
0000000000
0000000000
00c0000600
00f80007c0
00f0000780
00e0000700
00e0000700
01c0000e00
01c0000e00
0380001c00
0380001c00
0700003800
060c003060
0c06006030
180300c018
300181800c
603fc301fe
fff0e7ff87
fe00e7f007
7000e38007
3000618003
ENDCHAR
STARTCHAR 2249
ENCODING 8777
SWIDTH 903 0
DWIDTH 40 0
BBX 40 40 0 -6
BITMAP
0000000300
00000007c0
0f00001f00
01f0003c00
003e00f000
0007e3c000
0000ff0000
00001f8000
00007ff000
0000f0fe00
0003c01f80
000f0007e0
003c0001f8
01e00000f8
0f03000038
7803e00000
0003c00000
0003800000
000380000c
000380001e
ffffffffff
0007000000
0007000000
0007060000
000e07c000
000e078000
001c0f0000
001c0e0000
00381e0000
00383c0000
0070380300
00e07001c0
01c0e000e0
0381c00070
0703800038
0e07003ffc
1c1ffff01c
701ff8001c
c00f00000c
0007000000
ENDCHAR
STARTCHAR 224a
ENCODING 8778
SWIDTH 903 0
DWIDTH 40 0
BBX 40 40 0 -6
BITMAP
00c0000600
00f0000780
00e0000700
00e0000700
01c0000e00
0180000c00
0380001c00
0300001800
060c003060
0c06006030
180300c018
300181800c
603fc301fe
fff0e7ff87
fe00e7f007
7000e38007
3000618003
0000000000
0000000000
0018006000
001c00f000
001ffff800
001c007800
001c007000
001c007000
001c007000
001c007000
001c007000
001c007000
0038007000
0038007001
0070007001
0070007003
00e0007003
01c0007006
038000780e
0700007fff
0e00003fff
3800001ffe
e000000000
ENDCHAR
STARTCHAR 224b
ENCODING 8779
SWIDTH 903 0
DWIDTH 40 0
BBX 40 40 0 -6
BITMAP
0000000780
000001ffc0
0000ffffe0
007ffc0000
1ff0000000
0000000180
00018001e0
0600e003c0
0380700380
01c0380700
00e03c0600
00701c0c00
00700c1800
0030003000
0000000000
0000001c00
03fffffe00
0060001e00
0020001c00
0030001c00
0010003800
0018003800
000c007000
000600e000
000700e000
000381c000
0001c38000
0000f70000
00007e0000
00003c0000
00007f0000
0000f78000
0001c3e000
000780f800
000e007f00
0038001fe0
00e00007ff
03800001ff
1e0000007c
f00000001c
ENDCHAR
STARTCHAR 224c
ENCODING 8780
SWIDTH 903 0
DWIDTH 40 0
BBX 40 40 0 -6
BITMAP
0000c00000
0000700000
0000380000
00001c0000
00001c000c
00000c001e
ffffffffff
0380000000
0380000000
0380000000
0380000000
0380000000
0380000000
0380000000
0380000000
03c0000000
03ffffffc0
01ffffffe0
00ffffffe0
0000000000
0000000000
0000000000
0300000180
03800003c0
03ffffffe0
03800001e0
03800001c0
03800001c0
03800001c0
03800001c0
03800001c0
03800001c0
03800001c0
03800001c0
03800001c0
03800001c0
03ffffffc0
03800001c0
0380000180
0300000000
ENDCHAR
STARTCHAR 224d
ENCODING 8781
SWIDTH 903 0
DWIDTH 40 0
BBX 40 40 0 -6
BITMAP
0000000000
0000000300
0000000780
1fffffffc0
00000003c0
0000000380
0000000380
0000000380
0000000380
0c00000380
0fffffff80
0e00000300
0e00000000
0e00000008
0e00000008
0e00000018
0e00000018
0f00000030
0ffffffff8
07fffffff8
03fffffff0
0000000000
0000000000
0000000000
0600000180
07000003c0
07ffffffe0
07000001e0
07000001c0
07000001c0
07000001c0
07000001c0
07000001c0
07000001c0
07000001c0
07000001c0
07ffffffc0
07000001c0
0700000180
0600000000
ENDCHAR
STARTCHAR 224e
ENCODING 8782
SWIDTH 903 0
DWIDTH 40 0
BBX 40 40 0 -6
BITMAP
0000000000
000000000c
000000001e
ffffffffff
0000700000
0000700000
0000700000
0000700000
00007e0000
000073c000
000070f000
0000703c00
0000701f00
0000700780
0000700380
0000700180
0000700000
0000700000
0000700000
0000700000
0000700000
0000600000
0600000180
07000003c0
07ffffffe0
07000001e0
07000001c0
07000001c0
07000001c0
07000001c0
07000001c0
07000001c0
07000001c0
07000001c0
07000001c0
07000001c0
07ffffffc0
07000001c0
0700000180
0600000000
ENDCHAR
STARTCHAR 224f
ENCODING 8783
SWIDTH 903 0
DWIDTH 40 0
BBX 40 40 0 -6
BITMAP
0000600000
00007c0000
0000780000
0000700000
0000700000
0000700000
0000700000
0000700180
00007003c0
00007fffe0
0000700000
0000700000
0000700000
0000700000
0000700000
0000700000
000070000c
000070001e
ffffffffff
0000000000
0000000000
0000000000
0600000180
07000003c0
07ffffffe0
07000001e0
07000001c0
07000001c0
07000001c0
07000001c0
07000001c0
07000001c0
07000001c0
07000001c0
07000001c0
07000001c0
07ffffffc0
07000001c0
0700000180
0600000000
ENDCHAR
STARTCHAR 2250
ENCODING 8784
SWIDTH 903 0
DWIDTH 40 0
BBX 40 40 0 -6
BITMAP
0000000000
0000000060
00000000f0
00007ffff8
0000000000
6030000000
7078000000
7ffc000000
703c000000
7038000000
703800000c
703800001e
703bffffff
7038038000
7038038000
7038038000
7038070000
7038070000
7038070000
70380e0030
70380e0078
70381ffffc
70380c003c
7038000038
7038000038
7038000038
7038000038
7038000038
7ff8000038
7038000038
7030000038
7000000038
6000000038
0000000078
0000000070
00000000f0
000007ffe0
0000000fc0
0000000380
0000000300
ENDCHAR
STARTCHAR 2251
ENCODING 8785
SWIDTH 903 0
DWIDTH 40 0
BBX 40 40 0 -6
BITMAP
0000000070
03000001f8
03e00007fc
03c0001fc0
038000fc00
038007e000
03807ce000
038000e000
038000e000
038000e000
038000e000
038000e000
039800e000
7ffc00e000
038000e000
038000e00c
038000e01e
038000ffff
0381ffe000
038000e000
038000e000
038000e000
038000e000
038000e000
038000e000
038000e000
038e00e000
03f800e000
03e000e000
0f8000e000
fe0000e001
fc0000e001
700000e003
300000e003
000000e006
000000f00e
000000ffff
0000007fff
0000003ffe
0000000000
ENDCHAR
STARTCHAR 2252
ENCODING 8786
SWIDTH 903 0
DWIDTH 40 0
BBX 40 40 0 -6
BITMAP
0000000000
0000000300
0000000780
07ffffffc0
00000003c0
0000000380
0000000380
0000000380
03ffffff80
0000000380
0000000380
0000000384
000000038e
ffffffffff
000c000000
000f800000
000f000000
000e000180
001e0003c0
001fffffe0
00380003e0
0070000380
00e0000780
01c7000700
0381c00e00
0700f01c00
1c00783800
7000387000
000018e000
000001c000
0000078000
00000e0000
00003c0000
0000f00000
0003c00000
000f000000
003c000000
01e0000000
0f00000000
f800000000
ENDCHAR
STARTCHAR 2253
ENCODING 8787
SWIDTH 903 0
DWIDTH 40 0
BBX 40 40 0 -6
BITMAP
0000c00000
0000f00000
0000e00000
0000e00000
0001c0000c
0001c0001e
ffffffffff
000380c000
0007806000
0007003000
000e003800
001e001c00
001c000e00
0038000700
0070000380
00e01801e0
01c01f00f8
03801e007f
07001c003f
0e001c001e
38001c0006
e0001c0000
00c01c0000
00f01c0c00
00e01c0700
00e01c0380
01c01c01c0
01c01c00e0
03801c0070
03001c0078
06001c0038
0c001c0038
18001c0018
30001c0000
60001c0000
00003c0000
001ffc0000
0001f80000
0000700000
0000600000
ENDCHAR
STARTCHAR 2254
ENCODING 8788
SWIDTH 903 0
DWIDTH 40 0
BBX 40 40 0 -6
BITMAP
0000300000
00007c0000
0001f00000
0003c00000
000f003000
003c007c00
00f001f000
00f003c000
00380f0000
001c1e0000
0006780000
0003e00000
0003c00600
000f000300
001c000180
00700000c0
01c003ffe0
0fffffc070
0fff800038
0780000038
0380300018
00003e0000
00003c0000
0000380000
000038000c
000038001e
ffffffffff
0000700000
0000e00000
0000e00000
0001c07000
0003801c00
0007000700
000e0003c0
001c0000f0
0070000078
00e000003c
038000001e
1e0000000e
f000000006
ENDCHAR
STARTCHAR 2255
ENCODING 8789
SWIDTH 903 0
DWIDTH 40 0
BBX 40 40 0 -6
BITMAP
0000006000
0c00003800
0f80001c00
0f00001c04
0e00600c0e
0e007fffff
0e00700000
0e30700000
0e38700000
0e38700000
0efe700000
fff8700000
ff38700000
6e38700000
0e38700000
0e38700000
0e38700000
1c38700000
1c38700000
1c38700000
1c38700000
3870700000
3870700000
3870700000
7070700000
70e0700000
7ce0700000
0fc0700000
03c0700000
03e0e00000
07f0e00000
0778e00000
0e3ce00000
0c1cc00000
180dc00000
3001800000
6001800000
c003000000
0006000000
000c000000
ENDCHAR
STARTCHAR 2256
ENCODING 8790
SWIDTH 903 0
DWIDTH 40 0
BBX 40 40 0 -6
BITMAP
0000000000
0c00000010
0f80000038
0f007ffffc
0e00003800
0e00003800
0e00003800
0e30003800
0e38003800
0e38003800
0efe003800
fff8003800
ff38003800
6e38003800
0e38003804
0e3800380e
0e39ffffff
1c38003800
1c38003800
1c38003800
1c38003800
3870003800
3870003800
3870003800
7070003800
70e0003800
7ce0003800
0fc0003800
03c0003800
03e0003800
07f0003800
0778003800
0e3c003800
0c1c003800
180c003800
3000007800
60003ff800
c00003f000
000000e000
000000c000
ENDCHAR
STARTCHAR 2257
ENCODING 8791
SWIDTH 903 0
DWIDTH 40 0
BBX 40 40 0 -6
BITMAP
0000006000
0c00007c00
0f80007800
0f00007000
0e00007000
0e0000e000
0e0000e000
0e1800e000
0e1c01c000
0e1c01c000
0e3f018000
fffc038000
fe1c038600
6e1c030780
0e1c070700
0e1c060f00
0e1c0e0e00
1c1c0c0e00
1c1c1c1c00
1c1c181c00
1c1c303800
3838303800
3838607000
3838c07000
707080e000
707000e000
7ce001c000
0fe001c000
03c00380c0
01e0030060
03f8070030
073c060018
061e0e001c
0c0e1c000e
18061803fe
30007fff87
60007fe007
c0003c0007
00001c0003
0000000000
ENDCHAR
STARTCHAR 2258
ENCODING 8792
SWIDTH 903 0
DWIDTH 40 0
BBX 40 40 0 -6
BITMAP
0c00000000
0f8000c000
0f0000f800
0e0000f000
0e0000e060
0e0000e078
0e0c00e070
1c1e00e070
1fff00e072
1c0f1fffff
180e00e070
380e00e070
300e00e070
300e01c070
600e01c0e0
600e0380e0
c01c0380e0
801c0701c0
001c0e01c0
001c1f8380
00380cf380
0038003f00
0038000f80
0070001de0
0078003878
007800703c
00ec01c01e
00e607000e
01c33c0006
01c3800000
0381c00000
0300e00000
0700700000
0e003c0000
0c001f0000
18000fe000
300003ffff
600000fffe
c000001ffc
8000000000
ENDCHAR
STARTCHAR 2259
ENCODING 8793
SWIDTH 903 0
DWIDTH 40 0
BBX 40 40 0 -6
BITMAP
0000000000
0c0000000c
0f8000001e
0f01ffffff
0e000701c0
0e000701c0
0e000701c0
0e300701c0
0e380701c0
0e380701c0
0efe0701c0
fff80701c0
ff380701c0
6e380701c0
0e380701c0
0e380701c0
0e380701c0
1c380701c0
1c380701c0
1c380701c0
1c380701c0
38700701c0
38700701c0
38700e01c0
70700e01c0
70e00e01c0
7ce00e01c0
0fc01c01c0
03c01c01c0
03e01c01c0
07f03801c0
07783801c0
0e3c7001c0
0c1c7001c0
180ce001c0
3000c001c0
60018001c0
c0030001c0
00060001c0
000c000180
ENDCHAR
STARTCHAR 225a
ENCODING 8794
SWIDTH 903 0
DWIDTH 40 0
BBX 40 40 0 -6
BITMAP
0000600000
0000300000
080038000c
080018001e
1fffffffff
180000001f
380000001c
7000000018
f000000010
e000000040
c0000000e0
0ffffffff0
00c0000000
00f8000000
00f0000000
00e0000000
00e0000060
01c00000f0
01fffffff8
0180000078
0380000070
0300000070
0600000070
0c00000070
1800000070
3000000070
0000000070
0000000070
0000000070
0000000070
0000000070
0000000070
0000000070
00000000f0
00000000e0
00000001e0
000003ffc0
0000001f80
0000000700
0000000600
ENDCHAR
STARTCHAR 225b
ENCODING 8795
SWIDTH 903 0
DWIDTH 40 0
BBX 40 40 0 -6
BITMAP
0000c00000
0000700000
0000380000
08001c0000
08001c000c
18000c001e
1fffffffff
380000001f
700000001c
f006000018
e007c00030
c007800020
0007000000
0007000000
0007000000
0007000c00
000e001e00
000fffff00
000e000f00
000e000e00
001c000e00
001c000e00
001c000e00
0038001c00
0038001c00
0038001c00
0070001c00
0070001c00
0070003800
00fffff800
0060003800
0000003800
0000003800
0000007000
0000007000
0000007000
000000700c
000000701e
ffffffffff
0000000000
ENDCHAR
STARTCHAR 225c
ENCODING 8796
SWIDTH 903 0
DWIDTH 40 0
BBX 40 40 0 -6
BITMAP
0000300000
00003e0000
00003c0000
0000380000
0000380000
0000380180
00003803c0
00003fffe0
0000380000
0000380000
0000380000
0000380000
0000380000
000038000c
000038001e
ffffffffff
0000000000
0000300000
00003e0000
00003c0000
0000380000
0000380000
0000380000
0180380000
01e0380c00
01c0380700
01c0380380
03803801c0
03803800e0
0700380070
0600380078
0c00380038
1800380038
3000380018
6000380000
c000780000
003ff80000
0003f00000
0000e00000
0000c00000
ENDCHAR
STARTCHAR 225d
ENCODING 8797
SWIDTH 903 0
DWIDTH 40 0
BBX 40 40 0 -6
BITMAP
0300000000
03e0000000
03c0000008
038000001c
03800ffffe
0380000e00
0380000e00
0380000e00
0380000e00
0381000e00
0383800e00
ffffc00e00
039c000e04
039c000e0e
039c1fffff
039c000e00
039c000e00
039c000e00
039c000e00
039c000e00
039c000e00
039c000e00
071c000e00
071c000e00
071c000e00
071c000e00
071c000e00
0e1c000e00
0e1c001e00
0e1c0ffe00
0c1c00fc01
1c1c003801
1c1c003003
181c000003
381c000006
301e00000e
701fffffff
600fffffff
c007fffffe
8000000000
ENDCHAR
STARTCHAR 225e
ENCODING 8798
SWIDTH 903 0
DWIDTH 40 0
BBX 40 40 0 -6
BITMAP
0000000000
1800000060
1c000000f0
1ffffffff8
1c00000078
1c00000070
1c00000070
1c00000070
1c00000070
1c00000070
1c00000070
1c00000070
1ffffffff0
1c00000070
1c00000060
1c00000000
1c00000000
1c00000000
1c00000000
1c30000060
1c380000f0
1c3ffffff8
1c38000078
1c38000070
1c38000070
1c38000070
1838000070
3838000070
3838000070
3838000070
3038000070
3038000070
7038000070
6038000070
6038000070
4038000070
c03ffffff0
8038000070
0038000060
0030000000
ENDCHAR
STARTCHAR 225f
ENCODING 8799
SWIDTH 903 0
DWIDTH 40 0
BBX 40 40 0 -6
BITMAP
0060003000
0030003c00
0018003800
001c007000
000e006000
000e00c00c
000601801e
ffffffffff
0000380000
0000380000
0000380000
0000380000
0c003800c0
0f803800f8
0f003800f0
0e003800e0
0e003800e0
0e003800e0
0e003800e0
0e003800e0
0e003800e0
0e003800e0
0e003800e0
0e003800e0
1fffffffe0
0c007000e0
00007000c0
0000e00000
0000e00000
0001c00000
0001c00000
0003800000
0007000000
000e000000
001c000000
0038000000
0070000000
00e0000000
0380000000
1e00000000
ENDCHAR
STARTCHAR 2260
ENCODING 8800
SWIDTH 903 0
DWIDTH 40 0
BBX 40 40 0 -6
BITMAP
0000000000
0180000010
01f0000038
01e01ffffc
01c0001c00
01c0001c00
01c0001c00
01c0001c00
01c0001c00
61c6001c00
79c7801c00
71c7001c00
71c7001c00
71c7001c00
71c7001c00
71c7001c04
71c7001c0e
71c77fffff
71c7001c00
71c7001c00
71c7001c00
71c7001c00
71c7001c00
71c7001c00
71c7001c00
71c7001c00
71c7001c00
71c7001c00
71c7001c00
71c7001c00
ffff001c00
6007001c00
0006001c00
0000001c00
0000001c00
0000001c00
0000001c00
0000001c00
0000001c00
0000001800
ENDCHAR
STARTCHAR 2261
ENCODING 8801
SWIDTH 903 0
DWIDTH 40 0
BBX 40 40 0 -6
BITMAP
0000300000
00003e0000
0c003c00c0
0f803800f8
0f003800f0
0e003800e0
0e003800e0
0e003800e0
0e003800e0
0e003800e0
1fffffffe0
0c000000e0
00000000c0
0000000000
0060003000
0070007800
007ffffc00
0070003c00
0070003800
0070003800
0070003800
0070003800
0071803800
0070e03800
0070783800
00703c3800
00701e3800
00700e3800
0070063800
00e0003800
00e0003800
00e0003801
01c0003801
01c0003803
0380003803
0700003c06
0e00003fff
1c00001fff
3800000ffe
e000000000
ENDCHAR
STARTCHAR 2262
ENCODING 8802
SWIDTH 903 0
DWIDTH 40 0
BBX 40 40 0 -6
BITMAP
00c00c00c0
00e00e00e0
01c01c01c0
0180180180
0300300300
0600600600
0c00c00c00
0600600600
0300300300
0380380380
01c01c01c0
01c01c01c0
00c00c00c0
0000000000
0000000000
06000000e0
07fffffff0
07000000f0
07000000e0
07000000e0
07000000e0
07000000e0
07000000e0
07000000e0
07000000e0
07ffffffe0
07000000e0
07000000e0
07000000e0
07000000e0
07000000e0
07000000e0
07000000e0
07000000e0
07000000e0
07000001e0
070000ffe0
0700000fc0
0700000380
0600000300
ENDCHAR
STARTCHAR 2263
ENCODING 8803
SWIDTH 903 0
DWIDTH 40 0
BBX 40 40 0 -6
BITMAP
0000000000
00000000c0
00000001e0
00063ffff0
000f0380f0
ffff8380e0
01c00380e0
01c00380e0
01c00380e0
01c00380e0
01c00380e0
01c00380e0
01c00380e0
01c00380e0
01c03b80e0
01c00f80e0
01c00780e0
01c003c0e0
01c003e0e0
01c003f0e0
01c003b8e0
01c003bce0
01c0039ce0
01c0038ce0
01c00380e0
01c00380e0
01c00700e0
01c00700e0
01c00700e0
01cf8700e0
01fc0e00e0
ffc00e00e1
fe000c00e1
70001c00e3
30001800e3
00003000e6
00006000ff
0000c0007f
000180003e
0003000000
ENDCHAR
STARTCHAR 2264
ENCODING 8804
SWIDTH 903 0
DWIDTH 40 0
BBX 40 40 0 -6
BITMAP
0180000000
01f0000008
01e000001c
01c03ffffe
01c0001c00
01c0001c00
01c6001c00
61cf001c00
7fff801c00
71c7801c00
71c7001c00
71c7001c00
71c7001c00
71c7001c00
71c7001c00
71c7001c04
71c7001c0e
71c77fffff
71c7001c00
71c7001c00
71c7001c00
71c7001c00
71c7001c00
71c7001c00
71c7001c00
71c7001c00
71c7001c00
71c7001c00
71ff001c00
71ce001c00
61cc001c00
01c0001c00
01c0001c00
01c0001c00
01c0001c00
01c0001c00
01c0001c00
01c0001c00
01c0001c00
0180001800
ENDCHAR
STARTCHAR 2265
ENCODING 8805
SWIDTH 903 0
DWIDTH 40 0
BBX 40 40 0 -6
BITMAP
0180000000
01f000000c
01e000001e
01c01fffff
01c000380f
01c000380e
01c600380e
61cf00380e
7fff80380e
71c780380e
71c700380e
71c700380e
71c718380e
71c70c380e
71c706380e
71c707380e
71c703b80e
71c703b80e
71c701b80e
71c700380e
71c700700e
71c700700e
71c700700e
71c700700e
71c700e00e
71c700e00e
71c700e00e
71c701c00e
71ff01c00e
71ce03801e
61cc07001c
01c007001c
01c00e003c
01c01c0038
01c0380078
01c07000f0
01c0e0ffe0
01c1c00fc0
01c3800380
018e000300
ENDCHAR
STARTCHAR 2266
ENCODING 8806
SWIDTH 903 0
DWIDTH 40 0
BBX 40 40 0 -6
BITMAP
0000600000
0000300000
0000180000
00001c000c
00000c001e
ffffffffff
0380000000
0380000000
0380000000
0380000000
0380000000
0380000000
0380000000
03c0000000
03ffffffe0
01fffffff0
00fffffff0
0000300000
00003e0000
00003c0000
00003800c0
0c003801e0
0ffffffff0
0e003800f0
0e003800e0
0e003800e0
0e003800e0
0e003800e0
0e003800e0
0e003800e0
0e003800e0
0e003800e0
0e003800e0
0e003801e0
0e0038ffe0
0e00380fc0
0e00380380
0c00380300
0000380000
0000300000
ENDCHAR
STARTCHAR 2267
ENCODING 8807
SWIDTH 903 0
DWIDTH 40 0
BBX 40 40 0 -6
BITMAP
0000000000
00c0000600
00f80007c0
00f0000780
01e0000f00
01c0000e00
03c0001e00
0380001c00
0700003800
0600003000
0e00007000
0c00006000
180300c018
3003c1801e
f00387801c
f007078038
780703c038
1c0e00e070
0e0e007070
039c001ce0
01dc000ee0
00f80007c0
00780003c0
0070000380
00e0000700
00e0000700
01c0000e00
0380001c00
0380001c00
070c003860
0e06007030
0e03007018
1c0180e00c
381fc1c0fe
70f8e387c7
ffc0e7fe07
fc00e7e007
7000638003
3000018000
0000000000
ENDCHAR
STARTCHAR 2268
ENCODING 8808
SWIDTH 903 0
DWIDTH 40 0
BBX 40 40 0 -6
BITMAP
0000300000
00001c0000
00000e0000
18000e000c
1c0006001e
1fffffffff
1c00000000
1c00000000
1c00000000
1c00000018
1c0000003c
1dfffffffe
1c00070000
1c00070000
1c00070000
1c00070000
1c00070000
1c00070000
1c00070000
1c0007e000
1c00073800
1c00070e00
1c00070780
1c000703c0
1c000701e0
1c000700f0
1c00070070
1c00070030
3800070000
3800070000
3800070000
3800070000
3000070000
3000070000
7000070000
6000070000
6000070000
c000070000
8000070000
0000060000
ENDCHAR
STARTCHAR 2269
ENCODING 8809
SWIDTH 903 0
DWIDTH 40 0
BBX 40 40 0 -6
BITMAP
0000300000
00001c0000
00000e0000
18000e000c
1c0006001e
1fffffffff
1c00000000
1c00000000
1c00000000
1c00000000
1c00000030
1c18000078
1c1ffffffc
1c1c00003c
1c1c000038
1c1c000038
1c1c000038
1c1c000038
1c1c000038
1c1c000038
1c1c000038
1c1c000038
1c1c000038
1c1c000038
1c1c000038
1c1c000038
1c1c000038
1c1c000038
381c000038
381c000038
381c000038
381c000038
301c000038
301c000038
701ffffff8
601c000038
601c000030
c018000000
8000000000
0000000000
ENDCHAR
STARTCHAR 226a
ENCODING 8810
SWIDTH 903 0
DWIDTH 40 0
BBX 40 40 0 -6
BITMAP
0000000000
0030000010
0078000038
fffc1ffffc
003c001c00
0038001c00
0038001c00
0038001c00
0038001c00
0038001c00
0038001c00
3038001c00
3ff8001c00
3830001c00
3800001c00
3800001c04
3800001c0e
70007fffff
7018001c00
703c001c00
fffe001c00
601e001c00
001c001c00
001c001c00
001c001c00
001c001c00
001c001c00
001c001c00
001c001c00
001c001c00
001c001c00
001c001c00
003c001c00
0038001c00
0078001c00
00f0001c00
ffe0001c00
0fc0001c00
0380001c00
0300001800
ENDCHAR
STARTCHAR 226b
ENCODING 8811
SWIDTH 903 0
DWIDTH 40 0
BBX 40 40 0 -6
BITMAP
0000000000
0030000010
0078000038
fffc1ffffc
003c001c00
0038001c00
0038001c00
0038001c00
0038001c00
0038001c00
0038001c00
3038001c00
3ff8001c00
3830001c00
3800001c04
3800001c0e
38007fffff
7000001c00
7018001c00
703c001c00
fffe001c00
601e001c00
001c001c00
001c001c00
001c001c00
001c001c00
001c001c00
001c001c00
001c001c00
001c001c00
001c001c00
001c001c00
003c001c00
0038001c00
0078001c00
00f0003c00
ffe01ffc00
0fc001f800
0380007000
0300006000
ENDCHAR
STARTCHAR 226c
ENCODING 8812
SWIDTH 903 0
DWIDTH 40 0
BBX 40 40 0 -6
BITMAP
0000000000
0006000030
000f000078
ffff87fffc
000780003c
0007000038
0007000038
0007000038
0007000038
0007000038
0007000038
3007018038
3fff01fff8
380601c030
380001c000
380001c000
380001c000
7000038000
7003038018
700783803c
ffffc7fffe
6003c3001e
000380001c
000380001c
000380001c
000380001c
000380001c
000380001c
000380001c
000380001c
000380001c
000380001c
000780003c
0007000038
000f000078
001e0000f0
3ffc01ffe0
01f8000fc0
0070000380
0060000300
ENDCHAR
STARTCHAR 226d
ENCODING 8813
SWIDTH 903 0
DWIDTH 40 0
BBX 40 40 0 -6
BITMAP
0060001800
0078001f00
00f0001e00
00e0301c00
01c03e1c00
01c03c1c00
0380381c00
0700381c00
0600381c00
0c00381c0c
1818381c1e
301e381fff
603c3ffc0f
0039f81c0e
0070381c0e
00f0381c0e
00e0381c0e
01c0381c0c
03c0381c1c
03c0381c1c
07c0381c18
0fc0381c18
0dc0381c30
19c0381c30
31c0381c20
61c0381c00
c1c0381c00
01c0381800
01c0380000
01c0380000
01c0380001
01c0380001
01c0380003
01c0380003
01c0380006
01c03c000e
01c03fffff
01c01fffff
01c00ffffe
0180000000
ENDCHAR
STARTCHAR 226e
ENCODING 8814
SWIDTH 903 0
DWIDTH 40 0
BBX 40 40 0 -6
BITMAP
0060006000
0078007c00
00f0007800
00e0007000
01c0007000
01c0007000
0380007000
0700007000
0600007000
0c00007000
1818007000
301e007000
603c007000
0038007000
0070007010
00f0007038
00e1fffffc
01c0007000
03c0007000
03c0007000
07c0007000
0fc0007000
0dc0007000
19c0007000
31c0007000
61c0007000
c1c0007000
01c0007000
01c0007000
01c0007000
01c0007000
01c0007000
01c0007000
01c0007000
01c0007000
01c000700c
01c000701e
01c7ffffff
01c0000000
0180000000
ENDCHAR
STARTCHAR 226f
ENCODING 8815
SWIDTH 903 0
DWIDTH 40 0
BBX 40 40 0 -6
BITMAP
0000000000
00000000c0
00000001e0
0ffffffff0
0001c000f0
0001c000e0
0001c000e0
0001c000e0
0001c000e0
0001c000e0
00038000e0
00038000e0
00070000e0
00070000e0
000e0000e0
001c0000e0
00380001e0
00700001c0
00e00003c0
01c003ff80
0380003f00
0e00000e00
3800000c00
0000700000
00003c0000
00301e0000
003e0f0000
003c070000
0838030060
0838000038
183800001c
183800020e
383800020f
7038000607
f03c000607
e03e000c03
c01ffffe00
000ffffe00
0003fffc00
0000000000
ENDCHAR
STARTCHAR 2270
ENCODING 8816
SWIDTH 903 0
DWIDTH 40 0
BBX 40 40 0 -6
BITMAP
03000c0000
03e00f8000
03c00f0000
03800e0000
03800e0000
03800e0000
03800e000c
03800e001e
03800fffff
03c01c000f
13e01c000e
13b018000e
33b838000e
339c30000e
739c60000e
738cc0000e
e38183000e
e38001c00e
c38000e00e
038000700e
038000380e
038000380e
038000180e
038000000e
038000000e
038000000e
038000000e
038000000e
038000000e
038000000e
038000001e
038000001c
038000001c
038000003c
0380000038
03800000f8
038001fff0
0380000fe0
03800003c0
0300000380
ENDCHAR
STARTCHAR 2271
ENCODING 8817
SWIDTH 903 0
DWIDTH 40 0
BBX 40 40 0 -6
BITMAP
0000000000
0000000000
0000000180
00000003c0
07ffffffe0
0000000000
0000000000
0000000000
0000000000
0000000000
0000000000
0000000000
0000000000
0000000000
0000000000
0000000018
000000003c
7ffffffffe
0000000000
0000000000
0000000000
0000600000
0000380000
00001c0000
00300e0000
003e0f0000
003c070000
0838030000
08380000c0
1838000070
1838000038
383800021c
383800020e
703800060f
f03c000607
e03e000c07
c01ffffe03
000ffffe00
0003fffc00
0000000000
ENDCHAR
STARTCHAR 2272
ENCODING 8818
SWIDTH 903 0
DWIDTH 40 0
BBX 40 40 0 -6
BITMAP
0018003000
001f003c00
001e003800
001c003980
001c0838e0
001c1c3870
3ffffe3838
001c003838
001c003818
001c003800
001c003800
001c003804
001c00380e
ffffffffff
0000003800
0000003800
0000003800
0000003800
0000003830
000000383e
0000001c3c
0000001c38
0000001c78
0000001c70
0000001cf0
0000000ee0
0000000fc0
0000000fc0
0000000780
0000000f00
0000000f01
0000001f81
0000003b83
00000071c3
000000e1e6
00000380fe
000007007e
00001c003f
000070001f
0003c00006
ENDCHAR
STARTCHAR 2273
ENCODING 8819
SWIDTH 903 0
DWIDTH 40 0
BBX 40 40 0 -6
BITMAP
0300000000
03e0000018
03c0c0003c
0380fffffe
0380e0001e
0380e0001c
0380e0001c
0380e0001c
0380e0001c
0398e0001c
fffce0001c
0380e0001c
0380e0001c
0380e0001c
0380e0001c
0380e0001c
0380e0001c
0380fffffc
039ce0001c
03f0e0001c
03c0e0001c
0f80e0001c
ff80e0001c
ff80e0001c
7380e0001c
3380e0001c
0380e0001c
0380e0001c
0380e0001c
0380e0001c
0380e0001c
0380e0001c
0380e0001c
0380e0001c
0380e0001c
0780e0003c
ff80e01ffc
0f00e001f8
0e00e00070
0c00c00060
ENDCHAR
STARTCHAR 2274
ENCODING 8820
SWIDTH 903 0
DWIDTH 40 0
BBX 40 40 0 -6
BITMAP
0300003000
03e0003e00
03c0003c00
0380003800
0380003800
0380003800
0380003800
0380c0380c
0380e0381e
0398ffffff
fffce0380f
0380e0380e
0380e0380e
0380e0380e
0380e0380e
0380e0380e
0380e0380e
0380e0380e
039ce0380e
03f0e0380e
03c0e0380e
0f80e0380e
ff80e0380e
ff80e0380e
7380e0380e
3380e0380e
0380e0380e
0380e0380e
0380e0380e
0380e0380e
0380e039fe
0380e0381e
0380e0381c
0380c03818
0380003800
0780003800
ff80003800
0f00003800
0e00003800
0c00003000
ENDCHAR
STARTCHAR 2275
ENCODING 8821
SWIDTH 903 0
DWIDTH 40 0
BBX 40 40 0 -6
BITMAP
0300000000
03e0000030
03c0000078
0380fffffc
038000003c
0380000038
0380000038
0380000038
0380000038
0398000038
fffc000038
0380300038
03803ffff8
0380380030
0380380000
0380380000
0380380000
0380700000
039c700018
03f070003c
03c0fffffe
0f8060001e
ff8000001c
ff8000001c
738000001c
338000001c
038000001c
038000001c
038000001c
038000001c
038000001c
038000003c
0380000038
0380000078
03800000f0
03800001e0
ff801fffc0
1f80007f80
0700000f00
0600000e00
ENDCHAR
STARTCHAR 2276
ENCODING 8822
SWIDTH 903 0
DWIDTH 40 0
BBX 40 40 0 -6
BITMAP
0300000180
03e00001f0
03c00001e0
03800001c0
03800001c0
03800001c0
03800001c0
03800001c0
03800001c0
03980001c0
fffc0001c6
0380ffffff
03800001c0
03800001c0
03800001c0
03800001c0
03800001c0
03801801c0
039c0c01c0
03f00601c0
03c00701c0
0f800381c0
ff800381c0
ff800181c0
73800181c0
33800001c0
03800001c0
03800001c0
03800001c0
03800001c0
03800001c0
03800001c0
03800001c0
03800001c0
03800001c0
03800003c0
ff8001ffc0
1f80001f80
0700000700
0600000600
ENDCHAR
STARTCHAR 2277
ENCODING 8823
SWIDTH 903 0
DWIDTH 40 0
BBX 40 40 0 -6
BITMAP
0000006000
0000007c00
3000007800
3e00007000
3c00007000
3800007000
3800007000
380000700c
380000701e
3803ffffff
3800007000
3808007000
381c007000
3ffe007000
3800007000
3800007030
3800007078
3800fffffc
380010007c
3800180070
3800080070
38000c0070
38000400e0
38000600e0
38000301c0
38000301c0
3800018380
380e00c700
383800ee00
38e0007c00
3fc0003800
3f00007c00
3e0000ef00
1c0001c780
0c000703e0
00000e01f8
00003800ff
0000e0003f
000380001e
001e000006
ENDCHAR
STARTCHAR 2278
ENCODING 8824
SWIDTH 903 0
DWIDTH 40 0
BBX 40 40 0 -6
BITMAP
0000000000
0300000300
0380000780
03ffffffc0
03800003c0
0380000380
0380000380
0380000380
0380000380
0380000380
03ffffff80
0380000380
0380000380
0380000380
0380000380
0380000380
0380000380
03ffffff80
0000000300
0300000000
03e0000000
03c0000000
0380000000
0380000000
0380000300
0380000780
03ffffffc0
0380000000
0380000000
0380000000
0380000008
0380000008
0380000018
0380000018
0380000030
03c0000070
03fffffff8
01fffffff8
00fffffff0
0000000000
ENDCHAR
STARTCHAR 2279
ENCODING 8825
SWIDTH 903 0
DWIDTH 40 0
BBX 40 40 0 -6
BITMAP
0000006000
0000007c00
0000007800
0000007000
6018007000
703c007000
7ffe007000
701e007000
701c007000
701c00700c
701c00701e
701cffffff
701c00700f
701c00700e
701c00700e
701c00700e
701c00700e
701c00700e
7ffc00700e
701c00e00e
701c00e00e
701c00e00e
701c00e00e
701c00e00e
701c01c00e
701c01c00e
701c01c00e
701c03800e
701c03800e
701c07000e
7ffc07000e
701c0e000e
70180e001e
60001c001c
000038003c
0000700078
0000e0fff0
0001c007e0
00070001c0
001c000180
ENDCHAR
STARTCHAR 227a
ENCODING 8826
SWIDTH 903 0
DWIDTH 40 0
BBX 40 40 0 -6
BITMAP
0060000030
007c00003e
007800003c
0070000038
0070000038
007000c038
007000f838
0070c0f038
0071e0e038
fffff0e038
007000e038
007000e038
007000e038
00f000e038
00f000e038
00f800e038
01fc00e038
01f600e038
03f300e038
037380e038
0371c0e038
0771e0e038
0670e0e038
0e70e0e038
0c7060e038
1c7000e038
187000e038
387000e038
307000e038
607000c038
c070000038
8070000038
0070000038
0070000038
0070000038
0070000078
0070003ff8
00700003f0
00700000e0
00600000c0
ENDCHAR
STARTCHAR 227b
ENCODING 8827
SWIDTH 903 0
DWIDTH 40 0
BBX 40 40 0 -6
BITMAP
0000000000
0300000300
0380000780
03ffffffc0
03800003c0
0380000380
0380000380
0380000380
0380000380
0380000380
0380000780
038007ff80
0380003f00
0380000e08
0380000c08
0380000018
0380000018
03c0000030
03fffffff8
01fffffff8
00fffffff0
0000000000
0000300000
00003e0000
00003c0000
000038000c
000038001e
ffffffffff
0000380000
0000380000
0060380000
0078381c00
00f0380780
01e03801e0
03803800f0
0700380078
0e0038003c
380038001c
e00038000c
0000300000
ENDCHAR
STARTCHAR 227c
ENCODING 8828
SWIDTH 903 0
DWIDTH 40 0
BBX 40 40 0 -6
BITMAP
0000000000
000000000c
000800001e
001cffffff
fffe01c000
070001c000
070001c000
070001c000
0700038000
0718038000
0e3c038000
0ffe070000
0e1e070000
0e1c070000
1c1c0e0018
1c1c0e003c
181c1ffffe
381c0c001e
303800001c
7c3800001c
673800001c
c3f800001c
81f000001c
00f000001c
007000001c
00e000001c
00e000001c
01c000001c
01c000003c
0380000038
0380000038
0700000078
0600000070
0e000000f0
0c000001e0
18000003c0
30000fff80
600000ff00
c000001e00
0000001c00
ENDCHAR
STARTCHAR 227d
ENCODING 8829
SWIDTH 903 0
DWIDTH 40 0
BBX 40 40 0 -6
BITMAP
000000c000
000300f800
000780f000
7fffc0e000
038000e000
038000e000
038000e000
038000e000
038000e000
038600e000
070f00e000
07ff80e000
070780e000
0e0700e000
0e0700e000
0c0700e000
1c0e01f000
180e01d000
380e01d000
3e1c01d800
779c01d800
63dc039800
c1f8039800
80f8038c00
0078070c00
0070070c00
0070070e00
00e00e0600
00e00e0700
01c01c0380
01c03c0380
03803801c0
03007001e0
0700e000f0
0e01c00078
0c0380003c
180700003f
300e00001f
603800000e
00e0000006
ENDCHAR
STARTCHAR 227e
ENCODING 8830
SWIDTH 903 0
DWIDTH 40 0
BBX 40 40 0 -6
BITMAP
0000003c00
000007fe00
0003ffff00
01fff00000
0000700000
0000700000
0000700100
0000700380
07ffffffc0
0000700000
0000700000
0000700060
00007000f0
3ffffffff8
0000700000
0000700002
0000700002
0000700006
000078000c
00007ffffe
00003ffffe
00001ffffc
0000000000
001800c000
001f00f800
001e00f000
001c00e000
001c00e000
001c00e000
003800e000
003800e000
007000e001
007000e001
00e000e003
01c000e003
038000f006
070000ffff
0e00007fff
3800003ffe
e000000000
ENDCHAR
STARTCHAR 2321
ENCODING 8993
SWIDTH 903 0
DWIDTH 40 0
BBX 40 40 0 -6
BITMAP
0000001c00
000007fe00
0607ffff00
07fff80000
0700380000
0700380000
0700380000
0700380180
07003803c0
07ffffffe0
07001c0000
07001c0000
07000e0000
0700070000
0700038008
070001c008
070000f018
0707003c18
073c001f30
07f00007f8
07c03001f8
03803e0070
01803c0000
0000380000
0000380000
000038000c
000038001e
ffffffffff
0000380000
0000380000
0000380000
0000380000
0000380000
0000380000
0000380000
0000380000
0000380000
0000380000
0000380000
0000300000
ENDCHAR
STARTCHAR 2322
ENCODING 8994
SWIDTH 903 0
DWIDTH 40 0
BBX 40 40 0 -6
BITMAP
0000000000
0c0000000c
070000001e
0381ffffff
01c000e00f
01c000e00e
00c000e00e
000000e00e
000000e00e
000800e00e
000800e00e
c01800e00e
7010c0e00e
383060e00e
1c3030e00e
1c6038e00e
0c601ce00e
00601ee00e
00c00ee00e
00c00fc00e
01c007c00e
018001c00e
038001c00e
030001c00e
070003800e
070003800e
0e0003800e
1e0007000e
fe0007000e
3c000e001e
1c000e001c
1c001c001c
0e0038003c
0e00700038
0f00e00078
0f01c000f0
0f0380ffe0
0f07000fc0
061c000380
0070000300
ENDCHAR
STARTCHAR 2323
ENCODING 8995
SWIDTH 903 0
DWIDTH 40 0
BBX 40 40 0 -6
BITMAP
0000000000
0c00000060
07000000f8
03800001f0
01c00003c0
01c0000780
00c0000e00
0000001c00
0002007000
000200e000
0006038000
c0040e0000
700c780000
3808000030
1c1800007c
1c180000f8
0c300001e0
00300003c0
0060000700
0060000e00
00e0003c00
00c0007000
01c001c000
0180070000
03801c0000
0380f00018
070000003e
0f0000007c
7f000000f0
1e000001e0
0e000003c0
0e00000780
0700000e00
0700003c00
0780007000
078001c000
0780070000
07803c0000
0301e00000
0000000000
ENDCHAR
STARTCHAR 2324
ENCODING 8996
SWIDTH 903 0
DWIDTH 40 0
BBX 40 40 0 -6
BITMAP
0000000000
0000000c00
0000001e00
1fffffff00
000e000f00
000e000e00
000e000e00
000e001c18
000e001c3c
001c003ffe
001c00181e
003800001c
003800001c
007000001c
00e000003c
01c0000038
0380000078
0700007ff0
0e003007e0
38003e01c0
e0003c0180
0000380000
00003800c0
06003801f0
03803803c0
01e0700700
00f0780e00
0070ec1800
0030e60000
0001c30000
0003818000
000700c000
000e007000
001c003c00
0038001f00
00e00007e0
01c00003ff
07000000ff
1c0000003e
f00000000e
ENDCHAR
STARTCHAR 2325
ENCODING 8997
SWIDTH 903 0
DWIDTH 40 0
BBX 40 40 0 -6
BITMAP
0000300000
00003c0000
0000380000
0000780000
00007c0000
0000e60000
0001c30000
0003818000
000700c000
000e007000
001c003800
0038001c00
0070000f00
00e00007c0
01c00003f8
03803000ff
07003e007f
0e003c001e
3800380006
e000380180
03003803e0
01c0380780
00f0380e00
00783c1c00
0038743000
0018760000
0000e30000
0000e18000
0001c1c000
000380e000
0007007000
000e003800
001c001e00
0038000f00
00700007c0
00e00003f8
03800000ff
070000007f
1c0000001e
f000000006
ENDCHAR
STARTCHAR 2326
ENCODING 8998
SWIDTH 903 0
DWIDTH 40 0
BBX 40 40 0 -6
BITMAP
00c0000030
00f800003e
00f00c003c
18e00f8038
1ee00f0038
1ce00e0038
1ce00e0038
1ce00e0038
1ce20e0038
1ce70e0038
3fff8e0038
38e00e0038
38e00e0038
30e00e0038
70e00e0038
60e00e0038
60e00e0038
c0e00e0038
80e00e0038
00e00e0038
00e70e0038
00fc0e0038
01f00e0038
0fe00e0038
ffe00e0038
fce01ffff8
70e00c0038
30e0000038
00e0000038
00e0000038
00e0000038
00e0000038
00e0000038
00e0000038
00e0000038
00e0000038
00e0000038
00e0000038
00e0000038
00c0000030
ENDCHAR
STARTCHAR 2327
ENCODING 8999
SWIDTH 903 0
DWIDTH 40 0
BBX 40 40 0 -6
BITMAP
00000c0000
00600f8000
60780f0000
30f00e0000
18e00e0000
0dc00e0000
07800e000c
07001c001e
07801fffff
0d801c000f
19c038000e
30c038000e
60e070000e
c0e060000e
0060c0000e
007180000e
00f30c000e
00f006000e
01f003800e
01f801c00e
03b800e00e
073800700e
063800780e
0c3800380e
183800180e
303800000e
603800000e
c03800000e
003800000e
003800000e
003800001e
003800001c
007800001c
007000003c
00f0000038
01e00000f8
7fe000fff0
0fc00007e0
03800001c0
0300000180
ENDCHAR
STARTCHAR 2328
ENCODING 9000
SWIDTH 903 0
DWIDTH 40 0
BBX 40 40 0 -6
BITMAP
0000000070
00600001f8
6078000ffc
30f0003f80
18e001f800
0dc00fe000
0780fce000
070000e000
078000e000
0d8000e000
19c000e000
30c000e000
60e000e000
c0e000e000
006000e000
007000e000
00f000e00c
00f000e01e
01f1ffffff
01f800e000
03b800e000
073800e000
063800e000
0c3800e000
183800e000
303800e000
603800e000
c03800e000
003800e000
003800e000
003800e001
003800e001
007800e003
007000e003
00f000e006
01e000f00e
7fe000ffff
0fc0007fff
0380003ffe
0300000000
ENDCHAR
STARTCHAR 2329
ENCODING 9001
SWIDTH 903 0
DWIDTH 40 0
BBX 40 40 0 -6
BITMAP
0000000030
000000003e
000018003c
00081f0038
001c1e0038
fffe1c0038
03801c0038
03801c0038
03801c0038
03801c0038
03801c0038
03801c0038
03801c0038
03801c0038
03801c0038
03801c0038
03981c0038
7ffc1c0038
03801c0038
03801c0038
03801c0038
03801c0038
03801c0038
03801c0038
03801c0038
03803ffff8
0380180038
0380000038
038e000038
03f8000038
0fe0000038
ff00000038
fc00000038
7000000038
3000000038
0000000038
0000000038
0000000038
0000000038
0000000030
ENDCHAR
STARTCHAR 232a
ENCODING 9002
SWIDTH 903 0
DWIDTH 40 0
BBX 40 40 0 -6
BITMAP
0000000000
0000003000
0000001800
0008001c00
001c000c00
fffe000c00
0380000c00
0380000e00
03800c0600
03800f8600
03800f0600
03800e0600
03800e0700
03800e0300
03800e0300
03800e0300
03980e0300
7ffc0e0380
03800e0180
03801e0180
03801c01c0
03801c01c0
03801c01c0
03801c01c0
03801c00e0
03803800e0
03803800e0
03803800e0
038e380070
03f8700070
0fe0700070
ff00e00078
fc00e00038
7000c0003c
3001c0003c
000180001e
000380001f
000300000f
0006000006
000c000000
ENDCHAR
STARTCHAR 232b
ENCODING 9003
SWIDTH 903 0
DWIDTH 40 0
BBX 40 40 0 -6
BITMAP
0006000000
0007800000
000f000000
000e000000
001c000000
0018000000
0030000000
0060000060
18c00000f0
1ffffffff8
1c00380078
1c00380070
1c00380070
1c00380070
1c00380070
1c00380070
1c00380070
1c00380070
1c00380070
1c00380070
1c00380070
1c00380070
1ffffffff0
1c00380070
1c00380070
1c00380070
1c00380070
1c00380070
1c00380070
1c00380070
1c00380070
1c00380070
1c00380070
1c00380070
1c00380070
1ffffffff0
1c00000070
1c00000060
1800000000
0000000000
ENDCHAR
STARTCHAR 232c
ENCODING 9004
SWIDTH 903 0
DWIDTH 40 0
BBX 40 40 0 -6
BITMAP
0000000c00
00c0000f00
0060001e00
0030001c00
0018003800
001c007000
000e006000
000e00c018
000601803c
7ffffffffe
0000380000
0000380000
0000380000
0000380000
0000380000
0000380000
0000380000
0000380000
0000380000
0000380000
0000380060
00003800f0
1ffffffff8
0000380000
0000380000
0000380000
0000380000
0000380000
0000380000
0000380000
0000380000
0000380000
0000380000
0000380000
0000380000
000038000c
000038001e
ffffffffff
0000000000
0000000000
ENDCHAR
STARTCHAR 232d
ENCODING 9005
SWIDTH 903 0
DWIDTH 40 0
BBX 40 40 0 -6
BITMAP
0000030000
0000018000
000c00c000
000f80e000
000f006000
001e003000
001c003800
003c001c00
0038000e00
0070000700
00e00003c0
01c00001f0
03800000ff
070000003f
0e0000001e
3800000606
e060000f00
007fffff80
0070000780
0070000700
0070000700
0071f00700
00703e0700
00700f8700
0070038700
0070000700
0070000700
0070000700
007001f700
00701f8700
00e7fc0700
00e7e00700
00e3800700
01c1800700
01c0000700
0380000f00
070007ff00
0e00007e00
1c00001c00
7000001800
ENDCHAR
STARTCHAR 232e
ENCODING 9006
SWIDTH 903 0
DWIDTH 40 0
BBX 40 40 0 -6
BITMAP
0060001800
007c001f00
0078001e00
0070801c04
0071c01c0e
ffffe7ffff
0070001c00
0070001c00
0070001c00
0060001800
0000000000
0180000c00
01f0000f80
01e0000f00
01c0000e00
01c0000e00
01c0000e00
01c0000e00
01c0000e00
01c0000e00
01c0000e00
01c0000e00
01c0000e00
01c0000e00
01c0000e00
01c0000e00
01c0000e00
01c0000e00
01c0000e00
03fffffe00
0180000e00
0000000e00
0000000e00
0000000e00
0000000e00
0000000e00
0000000e00
0000000e00
0000000e00
0000000c00
ENDCHAR
STARTCHAR 232f
ENCODING 9007
SWIDTH 903 0
DWIDTH 40 0
BBX 40 40 0 -6
BITMAP
0060001800
007c001f00
0078001e00
0070801c04
0071c01c0e
ffffe7ffff
0070001c00
0070001c00
0070001c00
0060001800
0000000000
0000000000
0030003000
0038007800
003ffffc00
0038003c00
0038003800
0038003800
0038003800
0038003800
0038003800
0038003800
0038003800
0038003800
0038003800
0038003800
0038003800
0038003800
0070003800
0070003800
0070003801
00e0003801
00e0003803
01c0003803
0380003806
0700003c0e
0e00003fff
1c00001fff
3800000ffe
e000000000
ENDCHAR
STARTCHAR 2330
ENCODING 9008
SWIDTH 903 0
DWIDTH 40 0
BBX 40 40 0 -6
BITMAP
0000000000
0000000000
00000000c0
30000001e0
1c01fffff0
0f000701f0
07800701c0
03800701c0
01800701c0
00000701c0
0000070380
0000070380
000007039c
01800707fe
03c007031e
ffe00e001c
03e00e001c
03800e001c
07000e001c
07001c001c
0e001c001c
0e601c001c
1cf038001c
3ff838001c
38f870003c
30e0700038
00e0e00078
01c1c000f0
01c380ffe0
0387000fc0
039c000380
0700000300
0e00000000
1fc0000000
7ff8000000
f87f80000f
600ffffffe
0001fffff8
00003fffe0
0000000000
ENDCHAR
STARTCHAR 2331
ENCODING 9009
SWIDTH 903 0
DWIDTH 40 0
BBX 40 40 0 -6
BITMAP
00c0000000
00f8030030
00f0038078
00e003fffc
00e003807c
00e0038070
00e0038070
00e00380e0
00e08380c0
00e1c380c0
ffffe38180
00e0038180
00e0038300
00e0038300
00e0038180
00e00380c0
00e0038060
00e0038030
00e1c38038
00ef038018
01f803801c
0fe003801c
fee003800e
f8e003800e
70e003800e
30e003800e
00e003800e
00e003801e
00e003801c
00e003803c
00e003bff8
00e00387f0
00e00380e0
00e00380c0
00e0038000
01e0038000
ffe0038000
0fc0038000
0380038000
0300030000
ENDCHAR
STARTCHAR 2332
ENCODING 9010
SWIDTH 903 0
DWIDTH 40 0
BBX 40 40 0 -6
BITMAP
0000000000
0003030030
001f838078
00ffc3fffc
07e003807c
7ce0038070
00e0038070
00e00380e0
00e00380c0
00e00380c0
00e0038180
00e0038180
00e0038300
00e0038300
00e0838180
00e1c380c0
ffffe38060
00e0038030
00e0038038
00e0038018
00e003801c
00e003801c
00e003800e
00e003800e
00e003800e
00e003800e
01c003800e
01c003801e
01c003801c
01c003803c
018003bff8
03800387f0
03000380e0
07000380c0
0600038000
0c00038000
1800038000
3000038000
6000038000
c000030000
ENDCHAR
STARTCHAR 2333
ENCODING 9011
SWIDTH 903 0
DWIDTH 40 0
BBX 40 40 0 -6
BITMAP
0030000000
003e030030
003c038078
003803fffc
007803807c
0070038070
00e0038070
01c00380e0
03800380c0
07060380c0
0e07c38180
1c07838180
7807038300
780f038300
1e0e038180
079e0380c0
01fc038060
0078038030
0070038038
00e0038018
01c303801c
0383e3801c
0703c3800e
0e0383800e
1c0383800e
383f83800e
ffe703800e
fe0703801e
700e03801c
300e03803c
001c03bff8
00380387f0
00700380e0
00e00380c0
01c0038000
0380038000
0700038000
0e00038000
3800038000
e000030000
ENDCHAR
STARTCHAR 2334
ENCODING 9012
SWIDTH 903 0
DWIDTH 40 0
BBX 40 40 0 -6
BITMAP
0000000000
6030000010
7078000038
7ffc7ffffc
703c003800
7038003800
7030003800
7070003800
7060003800
7060003800
70c0003800
70c0003800
7180003800
7180003800
7080003800
70c0003804
706000380e
7071ffffff
7030003800
7038003800
7038003800
701c003800
701c003800
701c003800
701c003800
701c003800
701c003800
703c003800
7ffc003800
71f8003800
7070003800
7060003800
7000003800
7000003800
7000003800
7000003800
7000003800
7000003800
7000003800
6000003000
ENDCHAR
STARTCHAR 2335
ENCODING 9013
SWIDTH 903 0
DWIDTH 40 0
BBX 40 40 0 -6
BITMAP
0000000000
0000000018
000000003c
7ffffffffe
000700e000
000700e000
000700e000
000700e000
000700e000
000700e000
000700e030
180700e078
1fff00fffc
1c0700e03c
1c0700e038
1c0700e038
1c0700e038
1c0700e038
1c0700e038
1c0700e038
1c0700e038
1c0700e038
1c0700e038
3fff00fff8
180700e038
000700e030
000700e000
000700e000
000e00e000
000e00e000
000e00e000
001c00e000
001c00e000
003800e000
007000e000
00e000e000
01c000e000
038000e000
070000e000
1c0000c000
ENDCHAR
STARTCHAR 2336
ENCODING 9014
SWIDTH 903 0
DWIDTH 40 0
BBX 40 40 0 -6
BITMAP
006000c000
007c00f800
007800f000
007000e000
007000e000
007000e000
007000e000
007020e000
007070e000
fffff8e000
007000e000
007000e000
007000e000
007000e000
007000e000
007000e000
007000e000
007060e000
7ffff0e000
000000e000
000000e000
000000e000
000000e000
3000c0e000
3801e0e000
3ffff0e000
3800f0e000
3800e0e000
3800e0e000
3800e0e000
3800e0e001
3800e0e001
3800e0e003
3800e0e003
3800e0e006
3800e0f00e
3fffe0ffff
3800e07fff
3800c03ffe
3000000000
ENDCHAR
STARTCHAR 2337
ENCODING 9015
SWIDTH 903 0
DWIDTH 40 0
BBX 40 40 0 -6
BITMAP
0000c00000
0000700000
0000380000
000038000c
000018001e
ffffffffff
0003000000
0003c00000
0007800000
0007000000
000e000000
001c001800
0038000e00
0070000700
00e0000380
01c00001c0
038003ffe0
0fffffc0f0
0fff8000f0
0780000070
0380000030
0000000000
0300300300
03e03e03e0
03c03c03c0
0380380380
0380380380
0380380380
0380380380
0380380380
0380380380
0700380380
0700380380
0600380380
0e00380380
0c003803c0
18003803fe
30003801ff
60003800ff
c000300000
ENDCHAR
STARTCHAR 2338
ENCODING 9016
SWIDTH 903 0
DWIDTH 40 0
BBX 40 40 0 -6
BITMAP
0060006000
007c007c00
0078007800
0070007000
00f0007000
00e0007000
00e0007000
01c000700c
01c000701e
0387ffffff
0380007000
0780007000
0780007000
0f80007000
0f80007000
1f80007000
3b80007010
3380007038
6381fffffc
c38000f000
038000f800
038001f800
038001fc00
038003f400
0380037600
0380077300
03800e7300
03800e7180
03801c71c0
03803870e0
0380707070
0380e0707c
0381c0703f
038380701f
038700700e
038e007006
03b8007000
0380007000
0380007000
0300006000
ENDCHAR
STARTCHAR 2339
ENCODING 9017
SWIDTH 903 0
DWIDTH 40 0
BBX 40 40 0 -6
BITMAP
0181800000
01f1f00000
01e1e00000
01c1c00000
0381c00018
0381c6003c
0381c77ffe
0701c7081e
0701c7081c
0701cfc81c
0e3fff081c
0e3f87081c
1e1b87081c
1e03870c1c
3e03870c1c
3e03870c1c
6e03870c1c
6e03870c1c
ce07070438
8e070e0638
0e070e0638
0e070e0638
0e070e0670
0e0e1c0370
0e0e1c0370
0e0e1c03e0
0e1fb801e0
0e0cf801c0
0e007803c0
0e007c03e0
0e00ee0760
0e01c70670
0e01c38e30
0e03839c38
0e0701b81c
0e0e00700e
0e1c00e00f
0e3801c007
0e60038003
0c000e0000
ENDCHAR
STARTCHAR 233a
ENCODING 9018
SWIDTH 903 0
DWIDTH 40 0
BBX 40 40 0 -6
BITMAP
0000300000
00003c0000
0000780000
0000740000
0000e60000
0001c30000
000381c000
000700e000
000e007800
001c003c00
0038001f00
00700007e0
00e00003ff
03800000ff
0e0000003c
39ffffff0c
e1c0380700
01c0380700
01c0380700
01c0380700
01c0380700
01c0380700
01ffffff00
01c0380700
01c0380700
01c0380700
01c0380700
01c0380700
01c0380700
01ffffff00
01c0380600
0180380000
0000380000
0000380000
0000380000
0000380000
0000380000
0000380000
0000380000
0000300000
ENDCHAR
STARTCHAR 233b
ENCODING 9019
SWIDTH 903 0
DWIDTH 40 0
BBX 40 40 0 -6
BITMAP
00000000f0
0000003ff8
06000ffffc
0703ff8000
07ff800000
0700060000
070007c000
0700078000
0700070000
0700070000
0700070000
0700070020
0700070070
070007fff8
0700070000
0700070000
0700070000
0700070000
0700070000
070007000c
070007001e
077fffffff
0700000000
0701801800
0e01f01f00
0e01e01e00
0e01c01c00
0e01c01c00
0e01c01c00
1c01c01c00
1c03801c00
1c03801c01
1807001c01
3807001c03
300e001c03
301c001e06
6038001fff
6070000fff
c1c00007fe
8700000000
ENDCHAR
STARTCHAR 233c
ENCODING 9020
SWIDTH 903 0
DWIDTH 40 0
BBX 40 40 0 -6
BITMAP
0000000000
0001800018
0001c0003c
6001fffffe
3801c0701e
1c01c0701c
0e01c0701c
0f01c0701c
0701c0701c
0301c0701c
0011c0701c
0011c0701c
0031fffffc
0021c0701c
0061c0701c
0061c0701c
00c1c0701c
00c1c0701c
0181c0701c
0181c0701c
0381c0701c
0301fffffc
0701c0701c
0601807018
0e00007000
1c00007000
fc00007000
7c00007000
3800007000
3800007000
1c00007000
1c00007000
1c00007000
1e00007000
1e00007000
1e00007000
1e00007000
0c00007000
0000007000
0000006000
ENDCHAR
STARTCHAR 233d
ENCODING 9021
SWIDTH 903 0
DWIDTH 40 0
BBX 40 40 0 -6
BITMAP
0000000000
0001800060
0001c000f0
6001fffff8
3801c00078
1c01c00070
0e01c00070
0f01c00070
0701c00070
0301c00070
0011c00070
0011c00070
0031fffff0
0021c07070
0061c07060
0061c07000
00c1c07000
00c1c07000
0181c07000
0181c07018
0381c0703c
0301fffffe
0701c03800
0601c03800
0e01c03800
1c01c01c00
fc01c01c00
7c01c01c00
3801c00e00
3801c00e00
1c01c00700
1c01c00701
1c01c0c381
1e01c383c3
1e01ce01e3
1e01fc00f6
1e01f0007e
0c01e0003f
0001c0001f
0000c00006
ENDCHAR
STARTCHAR 233e
ENCODING 9022
SWIDTH 903 0
DWIDTH 40 0
BBX 40 40 0 -6
BITMAP
0018000018
001f00001f
001e00001e
001c00001c
001c00001c
001c00301c
301c183e1c
381c3c3c1c
3ffffe381c
381c1e381c
381c18381c
381c30381c
381c20381c
381c00381c
381c00381c
381c00381c
381c00381c
381c70381c
3ffff8381c
390078381c
398070381c
388070381c
38c0e0381c
3840e0381c
3861c0381c
3831c0381c
381b80381c
381f00381c
380f00381c
380f00301c
301f80001c
3039c0001c
7071e0001c
60e0f0001c
61c078001c
c38078003c
8700381ffc
1c001801f8
7000000070
0000000060
ENDCHAR
STARTCHAR 233f
ENCODING 9023
SWIDTH 903 0
DWIDTH 40 0
BBX 40 40 0 -6
BITMAP
0030000018
003e00001f
003c00001e
003800001c
003800001c
003800181c
0038001f1c
0038001e1c
0038041c1c
00380e1c1c
003fff1c1c
0038001c1c
0038001c1c
0038001c1c
0038001c1c
0038001c1c
0038001c1c
0038001c1c
0038001c1c
0038001c1c
6038181c1c
70383c1c1c
7ffffe1c1c
70001e1c1c
70001c1c1c
70001c1c1c
70001c1c1c
70001c1c1c
70001c1c1c
70001c181c
70001c001c
70001c001c
70001c001c
70001c001c
70001c001c
70001c003c
7ffffc0ffc
70001c01f8
7000180070
6000000060
ENDCHAR
STARTCHAR 2340
ENCODING 9024
SWIDTH 903 0
DWIDTH 40 0
BBX 40 40 0 -6
BITMAP
0030000018
003c00001f
007800001e
007800001c
007c00001c
00e700301c
00e3803e1c
01c1e03c1c
01c0f0381c
038078381c
03003c381c
07001c381c
0e000c381c
0c0000381c
180040381c
3000e0381c
67fff0381c
c00000381c
000000381c
000000381c
000000381c
000030381c
000078381c
3ffffc381c
00007c381c
0000f0381c
0000e0381c
0001c0381c
000180381c
060300301c
030600001c
01cc00001c
00f800001c
007800001c
003c00001c
001e00003c
000f001ffc
000f0001f8
0007000070
0003000060
ENDCHAR
STARTCHAR 2341
ENCODING 9025
SWIDTH 903 0
DWIDTH 40 0
BBX 40 40 0 -6
BITMAP
0c00000018
0f8000001f
0f0000001e
0e0000001c
0e0000001c
1c0000181c
1c00181f1c
18003c1e1c
3ffffe1c1c
30001e1c1c
70001c1c1c
60001c1c1c
c0001c1c1c
80001c1c1c
00181c1c1c
183c1c1c1c
1ffe1c1c1c
1c1e1c1c1c
1c1c1c1c1c
1c1c1c1c1c
1c1c1c1c1c
1c1c1c1c1c
1c1c1c1c1c
1c1c1c1c1c
1c1c1c1c1c
1ffc1c1c1c
1c1c1c1c1c
1c181c1c1c
18001c1c1c
00001c181c
00003c001c
000038001c
000038001c
000078001c
000070001c
0001f0003c
01ffe00ffc
000fc001f8
0003800070
0003000060
ENDCHAR
STARTCHAR 2342
ENCODING 9026
SWIDTH 903 0
DWIDTH 40 0
BBX 40 40 0 -6
BITMAP
00001c0018
0000fe001f
0007ff001e
187ff0001c
1ff870001c
1c3870181c
1c38701f1c
1c38701e1c
1c38701c1c
1c38701c1c
1c38701c1c
1c38701c1c
1c38701c1c
1c38701c1c
1c38701c1c
1c38701c1c
1c38701c1c
1c38701c1c
1c38701c1c
1c38701c1c
1c38381c1c
1c38381c1c
1c38381c1c
1c38381c1c
1c38381c1c
1c70381c1c
1c701c1c1c
18701c1c1c
38601c1c1c
38e01c181c
38e00e001c
38c30e001c
31818f001c
3180c7001c
7300e7801c
671ff3803c
6ff873cffc
4fc071e1f8
c70031e070
830000c060
ENDCHAR
STARTCHAR 2343
ENCODING 9027
SWIDTH 903 0
DWIDTH 40 0
BBX 40 40 0 -6
BITMAP
0030000018
003e00001f
003c00001e
003800001c
003800001c
003800301c
0038103e1c
0038383c1c
7ffffc381c
003800381c
003800381c
003800381c
003800381c
003800381c
003800381c
003800381c
003818381c
00383c381c
fffffe381c
003800381c
007800381c
007800381c
00fc00381c
00ff00381c
01fbc0381c
03b9e0381c
03b8f0381c
073878381c
063838381c
0e3818301c
1c3800001c
183800001c
303800001c
603800001c
c03800001c
803800003c
0038001ffc
00380001f8
0038000070
0030000060
ENDCHAR
STARTCHAR 2344
ENCODING 9028
SWIDTH 903 0
DWIDTH 40 0
BBX 40 40 0 -6
BITMAP
030c000c00
03cf800f80
038f000f00
038e000e00
038e000e00
038e300e00
038e780e00
7ffffc0e00
038e3c0e00
038e380e0c
038e380e1e
038e39ffff
038e380e0f
038e380e0e
638e380e0e
7ffff80e0e
638e380e0e
638e300e0e
638e000e0e
638e000e0e
638e000e0e
638e180e0e
638e3c0e0e
fffffe1c0e
638e1e1c0e
038e1c1c0e
038e1c1c0e
038e1c380e
038e1c380e
030e1c380e
070e1c700e
070ffc700e
060e38e00e
0e0e30e01e
0c0e01c01c
1c0e01803c
180e031ff8
300e0603f0
600e0c00e0
c00c1800c0
ENDCHAR
STARTCHAR 2345
ENCODING 9029
SWIDTH 903 0
DWIDTH 40 0
BBX 40 40 0 -6
BITMAP
030000c000
03e000f800
03c000f000
038000e000
038000e000
038000e000
038000e000
038000e00c
038000e01e
03833fffff
038781c000
ffffc1c000
0383c1c000
038381c000
038381c000
038381c000
038381c000
038381c000
0383838000
038383800c
038383fffe
0383838380
0383830380
0383870380
0703870380
0703860380
0703860380
07038e0380
06038c0380
0e038c0380
0e03980380
0c03980380
1c03b00380
1c07b00380
1807600380
380f400380
37fe000380
60fc000386
c03807ffff
8030000000
ENDCHAR
STARTCHAR 2346
ENCODING 9030
SWIDTH 903 0
DWIDTH 40 0
BBX 40 40 0 -6
BITMAP
0000006000
0000007c00
0006007800
000f007000
ffff807000
0700007000
0700007000
0700007000
0600007000
0e0000700c
0e0000701e
0e007fffff
0c0000700f
1c0000700e
1c0c00700e
181e00700e
3fff00700e
3c0f00700e
3c0e00700e
7c0e00e00e
7c0e00e00e
5c0e00e00e
dc0e00e00e
9c0e00e00e
1c0e01c00e
1c0e01c00e
1c0e01c00e
1c0e03800e
1c0e03800e
1c0e07000e
1c0e07000e
1ffe0e000e
1c0e0e001e
1c0c1c001c
1c0038003c
1800700078
0000e0fff0
0001c007e0
00038001c0
000e000180
ENDCHAR
STARTCHAR 2347
ENCODING 9031
SWIDTH 903 0
DWIDTH 40 0
BBX 40 40 0 -6
BITMAP
0000006000
0180007c00
01e0007800
01c0007000
0380007000
0300007000
0700007000
060c007000
6c1e007000
7fff007018
700f00703c
700e7ffffe
700e00701e
700e00701c
700e00701c
700e00701c
700e00701c
700e00701c
700e00701c
700e00e01c
7ffe00e01c
700e00e01c
700e00e01c
700e00e01c
700e01c01c
700e01c01c
700e01c01c
700e03801c
700e03801c
700e07001c
700e07001c
7ffe0e001c
700e0e003c
700c1c0038
6000380078
00007000f0
0000e0ffe0
0001c00fc0
0003800380
000e000300
ENDCHAR
STARTCHAR 2348
ENCODING 9032
SWIDTH 903 0
DWIDTH 40 0
BBX 40 40 0 -6
BITMAP
0000000c00
3000180f80
38003c0f00
3ffffe0e00
3800000e00
3800000e00
3800000e00
3800100e00
3800380e00
3ffffc0e0c
3800000e1e
383001ffff
383e000e0f
383c000e0e
3838000e0e
3838000e0e
3838300e0e
3838780e0e
3bfffc0e0e
38383c0e0e
3838380e0e
3838380e0e
3838380e0e
3838381c0e
3838381c0e
3838381c0e
3838381c0e
383838380e
383038380e
387038380e
387038700e
386038700e
30e038e00e
30c038e01e
71c039c01c
618079803c
631ff31ff8
c601e603f0
8c01cc00e0
18019800c0
ENDCHAR
STARTCHAR 2349
ENCODING 9033
SWIDTH 903 0
DWIDTH 40 0
BBX 40 40 0 -6
BITMAP
0000001800
0000c01f00
0001e01e00
fffff01c00
3001f01c00
1801c01c00
0c01c01c00
0703801c00
0383801c00
01e7001c0c
00fe001c1e
007c07ffff
003e001c0f
007f001c0e
00e7801c0e
01c3c01c0e
0381e01c0e
0700f01c0e
0e30701c0e
383e301c0e
e03c001c0e
0038001c0e
0038001c0e
003800380e
003830380e
3ffff8380e
003800380e
003800700e
003800700e
003800700e
003800e00e
003800e00e
003801c00e
003801c01e
003ffb801c
fffe03003c
ff80061ff8
70000c03f0
30001800e0
00003000c0
ENDCHAR
STARTCHAR 234a
ENCODING 9034
SWIDTH 903 0
DWIDTH 40 0
BBX 40 40 0 -6
BITMAP
0000000000
3000000018
380000003c
3ffffffffe
3800000000
3800000000
3800000000
3800000300
3818000780
381fffffc0
381c0003c0
381c000380
381c000380
381c000380
381c000380
381c000380
381c000380
381c000380
381c000380
381c000380
381c000380
381fffff80
3818000300
3800000000
3803001800
3803c00c00
3807800600
3807000300
380e000380
381c0001c0
38380001e0
38700000e0
38e00000e0
3b80000060
3800000000
380000000c
380000001e
7fffffffff
3000000000
0000000000
ENDCHAR
STARTCHAR 234b
ENCODING 9035
SWIDTH 903 0
DWIDTH 40 0
BBX 40 40 0 -6
BITMAP
0000000000
3000000018
380000003c
3ffffffffe
3800000000
3800000000
3803000000
3803c03000
3803801800
3803800c00
3807000600
3807000300
380e000180
380c0001c0
38180000e0
38300000f0
3860000070
38c0000630
398c000f00
380fffff80
380e000780
380e000700
380e000700
380e000700
380e000700
380e000700
380e000700
380e000700
380e000700
380e000700
380fffff00
380e000700
380e000600
380c000000
3800000000
380000000c
380000001e
7fffffffff
3000000000
0000000000
ENDCHAR
STARTCHAR 234c
ENCODING 9036
SWIDTH 903 0
DWIDTH 40 0
BBX 40 40 0 -6
BITMAP
0000003000
0000303e00
0000783c00
fffffc3800
01c03c3800
01c0383800
01c0383800
01c0383800
01c0383800
01c0383800
0380383800
0380383800
0380383800
0300383e00
0700783b80
06007039c0
0e7ff038e0
0c07e03870
1801c03838
300180381c
600000381e
c00000380f
0000703807
3ffff83807
3800783803
3800703800
3800703800
3800703800
3800703800
3800703800
3800703800
3800703800
3800703800
3800703800
3800703800
3800703800
3ffff03800
3800703800
3800603800
3000003000
ENDCHAR
STARTCHAR 234d
ENCODING 9037
SWIDTH 903 0
DWIDTH 40 0
BBX 40 40 0 -6
BITMAP
0000300000
00003e0000
00003c0000
0000380000
0000380018
000038003c
00003ffffe
0000380000
0000380000
0000380000
0000380000
1800380030
1c00380078
1ffffffffc
1c0000003c
1c00000038
1c00001838
1c00001e38
1c38003c38
1c0e003838
1c03807038
1c01c0e038
1c0071c038
1c003b8038
1c001f0038
1c000f0038
1c001f8038
1c0039e038
1c0070f038
1c00e07838
1c01c03c38
1c07001e38
1c0e000e38
1c38000638
1ce0000038
1c00000038
1c00000038
1ffffffff8
1c00000038
1800000030
ENDCHAR
STARTCHAR 234e
ENCODING 9038
SWIDTH 903 0
DWIDTH 40 0
BBX 40 40 0 -6
BITMAP
0000000000
006000180c
0038001c1e
001c001fff
000e001c0f
0007181c0e
00071f1c0e
01831e1c0e
01e01c1c0e
01c03c1c0e
01c0381c0e
01c0381c0e
01c0701c0e
01c0701c0e
01c0e01c0e
01c0e01c0e
01c1c01c0e
01c1c01c0e
11c3801c0e
11c3981c0e
11c70c1c0e
31c7061c0e
31ce071c0e
31ce039c0e
71dc039c0e
f1dc039c0e
e1f8019c0e
e1f0001c0e
c1f0001c1e
01e0001ffe
01e0081c3c
03e0081c38
03e0181c30
07e0181c00
0ef0301c00
0cfff81c00
187ff81c00
303ff01c00
6000001c00
c000001800
ENDCHAR
STARTCHAR 234f
ENCODING 9039
SWIDTH 903 0
DWIDTH 40 0
BBX 40 40 0 -6
BITMAP
0000300000
00003e0000
00003c0000
000038000c
000038001e
ffffffffff
0000380000
0000380000
0000380180
06003803c0
07ffffffe0
07003801e0
07003801c0
07003801c0
07003801c0
07003801c0
07003801c0
07ffffffc0
0600380180
0000380000
0000380000
0000381c00
03fffffe00
0010001e00
0018001c00
000c003c00
000e003800
0007007000
000380e000
0001c1c000
0000f38000
00007f0000
00003e0000
00007f8000
0001f3f000
0007c0ff00
001f003fff
00f80007ff
0fc00000fc
fc0000001c
ENDCHAR
STARTCHAR 2350
ENCODING 9040
SWIDTH 903 0
DWIDTH 40 0
BBX 40 40 0 -6
BITMAP
0c000000c0
0e000001e0
0ffffffff0
0e000000f0
0e000000e0
0e180070e0
0e1ffff8e0
0e1c0070e0
0e1c0070e0
0e1c0070e0
0e1c0070e0
0e1ffff0e0
0e1c0060e0
0e1c0000e0
0e1c0000e0
0e1e0000e0
0e0ffff8e0
0e07fff8e0
0e000000e0
0c000000c0
0000000000
0000001c00
03fffffe00
0010001e00
0018001c00
000c003c00
000e003800
0007007000
000380e000
0001c1c000
0000f38000
00007f0000
00003e0000
00007f8000
0001f3f000
0007c0ff00
001f003fff
00f80007ff
0fc00000fe
fc0000000e
ENDCHAR
STARTCHAR 2351
ENCODING 9041
SWIDTH 903 0
DWIDTH 40 0
BBX 40 40 0 -6
BITMAP
0000006000
0000007c00
0000007800
0000007000
0000007000
6060007000
70f0007000
7ff8407000
707840700c
707040701e
7070ffffff
7070c0701f
7071c0701c
7073c07018
7073807030
7073007020
7070007000
707000e000
707000e000
707000f800
707000ff00
707001de00
707001dc00
707001dc00
7070039c00
7070039c00
7070071c00
7070071c00
7ff00e1c00
70700e1c00
70601c1c00
60001c1c01
0000381c01
0000701c03
0000e01c03
0001c01e06
0003801fff
0007000fff
001c0007fe
0070000000
ENDCHAR
STARTCHAR 2352
ENCODING 9042
SWIDTH 903 0
DWIDTH 40 0
BBX 40 40 0 -6
BITMAP
0000000000
000000000c
000000001e
0001ffffff
0000003800
6060003800
70f0003800
7ff8003800
707800380c
7070c0381e
7070ffffff
7070e0380f
7070e0380e
7070e0380e
7070e0380e
7070e0380e
7070e0380e
7070e0380e
7070e0380e
7070e0380e
7070e0380e
7070e0380e
7070e0380e
7070e0380e
7070e0380e
7070e0380e
7070e0380e
7070e0380e
7ff0e0380e
7070e0381e
7060e03bfe
6000e0383c
0000e03838
0000c03830
0000003800
0000003800
0000003800
0000003800
0000003800
0000003000
ENDCHAR
STARTCHAR 2353
ENCODING 9043
SWIDTH 903 0
DWIDTH 40 0
BBX 40 40 0 -6
BITMAP
00000000e0
0000000ff0
000000fff8
00000ff800
0000fce000
606000e000
70f000e000
7ff800e000
707800e000
707000e000
707000e000
707000e010
707000e038
7071fffffc
707000e000
707000e000
707000e000
707000e000
707000e000
707000e000
707000e000
707000e00c
707000e01e
7073ffffff
707000e000
707000e000
707000e000
707000e000
7ff000e000
707000e000
706000e001
600000e001
000000e003
000000e003
000000e006
000000f00e
000000ffff
0000007fff
0000003ffe
0000000000
ENDCHAR
STARTCHAR 2354
ENCODING 9044
SWIDTH 903 0
DWIDTH 40 0
BBX 40 40 0 -6
BITMAP
0000000070
00000007f8
0000007ffc
00000ffe00
0001fe7000
6060007000
70f0007000
7ff8007000
7078007000
7070007000
7070007000
7070007000
7070007000
707000700c
707000701e
7077ffffff
7070007000
7070007000
707000f800
707000f800
707000f800
707000ec00
707001cc00
707001cc00
707001c600
7070038600
7070038700
7070070300
7ff0070380
70700e0180
70601c01c0
60001c00e0
00003800f0
0000700078
0000e0007c
0001c0003f
000380001f
000700000e
000e000006
0038000000
ENDCHAR
STARTCHAR 2355
ENCODING 9045
SWIDTH 903 0
DWIDTH 40 0
BBX 40 40 0 -6
BITMAP
0000180000
00001f0000
00001e0000
00001c0000
00001c0000
60603c0000
70f038000c
7ff838001e
70787fffff
707070000f
7070e0000e
7070e0000e
7071c0000e
707180000e
707303000e
707603c00e
707003800e
707007000e
707007000e
70700e000e
70700c000e
70701c180e
7070380c0e
707030060e
707060ff0e
7070ffc70e
7070fe070e
707070030e
7ff030000e
707000000e
706000001e
600000001c
000000001c
000000003c
0000000038
00000000f8
000003fff0
0000001fe0
00000003c0
0000000380
ENDCHAR
STARTCHAR 2356
ENCODING 9046
SWIDTH 903 0
DWIDTH 40 0
BBX 40 40 0 -6
BITMAP
0000000c00
00000c0600
00000f0300
00000e0180
00000e0180
60600e00c0
70f01c00e0
7ff81c0070
7078380078
707038003c
707070001f
707060001f
7070c0000e
7071bfffe6
7073070000
7076070000
7070070000
70700e0000
70700e0000
70701c0060
70701c00f0
70703ffff8
7070180078
7070000070
7070000070
7070000070
7070000070
7070000070
7ff0000070
70700000e0
70600000e0
60000000e0
00000001c0
00000001c0
0000000380
0000000780
00001fff00
000001fe00
0000003c00
0000003800
ENDCHAR
STARTCHAR 2357
ENCODING 9047
SWIDTH 903 0
DWIDTH 40 0
BBX 40 40 0 -6
BITMAP
0000000038
00000001fc
0000000ffe
000060fe00
00007fc000
6060700000
70f0700000
7ff8700000
707870000c
707070001e
70707fffff
707070000f
707070000e
707070000e
707070000e
707070000e
707070000e
707070000e
707070000e
707070000e
70707ffffe
707070000e
707070000c
7070700000
7070700000
7070700000
7070700000
7070e00000
7ff0e00000
7070e00000
7061c00000
6001c00000
0003800000
0003800000
0007000000
000e000000
001c000000
0038000000
0070000000
01c0000000
ENDCHAR
STARTCHAR 2358
ENCODING 9048
SWIDTH 903 0
DWIDTH 40 0
BBX 40 40 0 -6
BITMAP
0000000000
000060000c
000070001e
00007fffff
0000700000
6060700000
70f0700000
7ff8700000
7078700000
7070700000
7070700030
7070700078
70707ffffc
707071003c
7070710038
7070710038
7070718038
7070718038
7070708070
707070c070
707070c070
70707060e0
70707060e0
7070e031c0
7070e031c0
7070e01b80
7070e01f00
7070c00f00
7ff1c00e00
7071c01f00
7061803b80
60038071c0
000300e1e0
000701c0f0
000603807c
000c07003f
00180e001f
00301c000e
0000700006
0001c00000
ENDCHAR
STARTCHAR 2359
ENCODING 9049
SWIDTH 903 0
DWIDTH 40 0
BBX 40 40 0 -6
BITMAP
00000c0000
00000f0180
00000e00e0
00001c0070
00001c0038
606038001c
70f038001e
7ff870000f
707860000f
7070c00007
70718800c3
70730800f0
70700800e0
70700c00e0
70700c00e0
70700400e0
70700601c0
70700601c0
70700301c0
7070030380
7070018380
7070018700
707000c700
707000ee00
7070007e00
7070007c00
7070003800
7070007c00
7ff0007e00
707000ef00
706001c780
60000383c0
00000701e0
00000e00f0
00001c007c
000038003f
0000e0001f
0001c0000e
0007000006
001c000000
ENDCHAR
STARTCHAR 235a
ENCODING 9050
SWIDTH 903 0
DWIDTH 40 0
BBX 40 40 0 -6
BITMAP
0000001e00
00000fff00
0c0fffff80
0fff1c0000
0e001c0000
0e001c0000
0e001c0000
0e001c00c0
0e001c01e0
0ffffffff0
0e000e0000
0e000e0000
0e00070000
0e00070000
0e00038000
0e0001c010
0e0000e010
0e0e007030
0e78003c30
0fe0001f60
0f800007f0
07000003f0
03000000e0
0000000000
0000000300
0300000780
03ffffffc0
03800003c0
0380000380
0380000380
0380000380
0380000380
0380000380
0380000380
0380000380
0380000380
03ffffff80
0380000380
0380000300
0300000000
ENDCHAR
STARTCHAR 235b
ENCODING 9051
SWIDTH 903 0
DWIDTH 40 0
BBX 40 40 0 -6
BITMAP
0000000000
0180000600
01c0000f00
01ffffff80
01c0000780
01c0000700
01c0000700
01c0000700
01c0000700
01c0000700
01c0000700
01c0000700
01c0000700
01ffffff00
01c0000600
0180000000
0000000000
00000000c0
00000001e0
1ffffffff0
0000380000
0000380000
0000380000
0000380000
0000380000
0000380000
0000380180
00003803c0
0fffffffe0
0000380000
0000380000
0000380000
0000380000
0000380000
0000380000
000038000c
000038001e
ffffffffff
0000000000
0000000000
ENDCHAR
STARTCHAR 235c
ENCODING 9052
SWIDTH 903 0
DWIDTH 40 0
BBX 40 40 0 -6
BITMAP
0000000000
0000000008
000000001c
0001fffffe
00000e01c0
60600e01c0
70f00e01c0
7ff80e01c0
70780e01c0
70700e01c0
70700e01c0
70700e01c0
70700e01c0
70700e01c0
70700e01c0
70700e01c0
70700e01c6
7073ffffff
70700e01c0
70700e01c0
70700e01c0
70700e01c0
70700e01c0
70700e01c0
70700e01c0
70700e01c0
70701c01c0
70701c01c0
7ff01c01c0
70701c01c0
70603801c0
70003801c0
60007001c0
00007001c0
0000e001c0
0000c001c0
00018001c0
00030001c0
00060001c0
000c000180
ENDCHAR
STARTCHAR 235d
ENCODING 9053
SWIDTH 903 0
DWIDTH 40 0
BBX 40 40 0 -6
BITMAP
0060180000
007c1f0000
00781e0000
00701c0000
00f01c0000
00e01c0000
01e01c0030
01c01c0078
03c01ffffc
07c01c0000
07c01c0000
0dc01c0000
19c01c0000
31c01c0004
61c01c0004
c1c01c000c
01c01c000c
01c01e0018
01c01ffffc
01c00ffffc
01c007fff8
0180000000
0000000000
0000000000
0000000180
03000003c0
03ffffffe0
03800001e0
03800001c0
03800001c0
03800001c0
03800001c0
03800001c0
03800001c0
03800001c0
03800001c0
03ffffffc0
03800001c0
0380000180
0300000000
ENDCHAR
STARTCHAR 235e
ENCODING 9054
SWIDTH 903 0
DWIDTH 40 0
BBX 40 40 0 -6
BITMAP
00000c0180
06000f81f0
07c00f01e0
07800e01c0
07000e01c0
07000e01c0
07000e01c0
07000e01c0
07000e01c0
07000e01cc
0731fffffe
fff80e01c0
07000e01c0
07000e01c0
07000e01c0
07000e01c0
07000e01c0
07000e01c0
07000e01c0
07000e01c0
07000e01c0
07000e01c6
0703ffffff
07000e01c0
07000e01c0
07000e01c0
07000e01c0
07001c01c0
07381c01c0
07e01c01c0
07801c01c0
1f003801c0
fc003801c0
f8003001c0
70007001c0
30006001c0
0000c001c0
00018001c0
00030001c0
0006000180
ENDCHAR
STARTCHAR 235f
ENCODING 9055
SWIDTH 903 0
DWIDTH 40 0
BBX 40 40 0 -6
BITMAP
0000030000
0300018000
03e000c000
03c000e000
0380006000
0380007000
0380c0700c
0380e0301e
0380ffffff
0380e0380f
038ce0380e
fffee03c0e
0380e03c0e
0380e07c0e
0380e07e0e
0380e0760e
0380e0660e
0380e0e30e
0380e0e30e
0380e0c38e
0380e1c38e
0380e181ce
0380e381ce
0380e301ee
0380e700ee
0380e600ee
0380ec006e
0380f8000e
038ee0000e
03f8e0000e
03e0e0000e
0f80e0000e
fe00e0000e
fc00e0000e
7000e0000e
3000e0001e
0000e00ffe
0000e000fc
0000e00038
0000c00030
ENDCHAR
STARTCHAR 2360
ENCODING 9056
SWIDTH 903 0
DWIDTH 40 0
BBX 40 40 0 -6
BITMAP
0000000000
0000000060
00000000f0
1ffffffff8
07001c0000
07001c0000
07001c0000
07001c0000
0e001c0000
0e00380030
0e00380078
1ffffffffc
0c00738000
0000e38000
0001c38000
0003838002
0007038002
000e038006
001c038006
007003c00c
00e003fffe
038001fffe
1e0000fffc
f000300000
00003e0000
00003c0000
0000380000
0000380000
00003800c0
00003801e0
0ffffffff0
0000380000
0000380000
0000380000
0000380000
0000380000
000038000c
000038001e
ffffffffff
0000000000
ENDCHAR
STARTCHAR 2361
ENCODING 9057
SWIDTH 903 0
DWIDTH 40 0
BBX 40 40 0 -6
BITMAP
0000000000
0000000030
0000000078
3ffffffffc
0000000000
0000000000
00600c0180
00780f01e0
00700e01c0
00e01c0380
00c0180300
0180300600
0300600c00
0600c01800
0c01803000
0600c01800
0300600c00
0180300600
00c0180300
00e01c0380
00700e01c0
00700e01c0
00300600c0
0000000000
0000300000
00003e0000
00003c0000
0000380000
00003800c0
00003801e0
0ffffffff0
0000380000
0000380000
0000380000
0000380000
0000380000
000038000c
000038001e
ffffffffff
0000000000
ENDCHAR
STARTCHAR 2362
ENCODING 9058
SWIDTH 903 0
DWIDTH 40 0
BBX 40 40 0 -6
BITMAP
0000600000
0000780000
0000f00000
0000e00018
0001c0003c
7ffffffffe
000700c000
000e006000
001c003000
0038001c00
0070000f00
00e00007e0
01c00001ff
07000000ff
0e0000003e
3800000386
e3ffffffc0
03803803c0
0380380380
0380380380
0380380380
0380380380
0380380380
0380380380
0380380380
03ffffff80
0380000380
0380000300
0380000000
0380000000
0380000008
0380000008
0380000018
0380000018
0380000030
03c0000070
03fffffff8
01fffffff8
00fffffff0
0000000000
ENDCHAR
STARTCHAR 2363
ENCODING 9059
SWIDTH 903 0
DWIDTH 40 0
BBX 40 40 0 -6
BITMAP
0000600000
0000780000
0000f00000
0000e00018
0001c0003c
7ffffffffe
000700c000
000e006000
001c003000
0038001c00
0070000f00
00e03007e0
01c03e01ff
07003c00ff
0e0038003e
380038000e
e000380060
1ffffffff0
0000380000
0000380000
0300380300
03e03803e0
03c03803c0
0380380380
0380380380
0380380380
0380380380
0380380380
0380380380
07ffffff80
0300380380
0000380304
0000380004
000038000c
000038000c
00003c0018
00003ffffc
00001ffffc
00000ffff8
0000000000
ENDCHAR
STARTCHAR 2364
ENCODING 9060
SWIDTH 903 0
DWIDTH 40 0
BBX 40 40 0 -6
BITMAP
0000600000
0000780000
0000f00000
0000e00018
0001c0003c
7ffffffffe
000700c000
000e006000
001c003000
0038301c00
00703c0f00
00e07807e0
01c07801ff
0700ec00ff
0e01c6003e
380383000e
e00701c000
000e00e000
001c007800
0038003e00
0070000fc0
01d80067ff
039e0079ff
0e1c00707e
381c00700e
e01c007000
001c007000
001c007000
001c007000
001c007000
0038007000
0038007000
0070007000
0070007000
00e0007000
01c0007000
0380007000
0700007000
0e00007000
3800006000
ENDCHAR
STARTCHAR 2365
ENCODING 9061
SWIDTH 903 0
DWIDTH 40 0
BBX 40 40 0 -6
BITMAP
0000300000
00003e0000
00003c0000
0000380000
0000380000
000038000c
000038001e
ffffffffff
0000380000
0000380000
0600380c00
0300380600
0180380300
00c0380180
00e03801c0
01f03803e0
01b0380360
03b8380770
031c3c0638
061c740c38
0c0e76181c
180e76301c
300673600c
6000e30000
0000e18000
0001c18000
0001c0c000
0003806000
0003807000
0007003800
000e001c00
001c000e00
0038000780
00700003e0
00e00001f8
01c00000ff
070000003f
0e0000001e
3800000006
e000000000
ENDCHAR
STARTCHAR 2366
ENCODING 9062
SWIDTH 903 0
DWIDTH 40 0
BBX 40 40 0 -6
BITMAP
0000600000
0000780000
0000f00000
0000e00018
0001c0003c
7ffffffffe
000700c000
000e006000
001c003000
0038001c00
0070000f00
00e00007e0
01c00001ff
07000000ff
0e0000003c
380000000c
e000000000
1ffffffff8
000e000000
000e000000
000e000000
001c000c00
001c001e00
001fffff00
0038000f00
0038000e00
0038000e00
0070001c00
0070001c00
0070001c00
00e0003800
00e0003800
01fffff800
00c0007000
0000007000
0000007000
000000e00c
000000e01e
ffffffffff
0000000000
ENDCHAR
STARTCHAR 2367
ENCODING 9063
SWIDTH 903 0
DWIDTH 40 0
BBX 40 40 0 -6
BITMAP
0000003000
0c00003e00
0f80003c00
0f00003800
0e00003800
0e00003800
0e00003800
0e30003818
0e3800383c
0e38fffffe
0efe003800
fff8003800
ff38003800
6e38003800
0e38003800
0e38003800
0e3800380c
1c3800381e
1c39ffffff
1c38007800
1c38007800
3870007800
3870007c00
387000ec00
707000ec00
70e000e600
7ce001c600
0fc001c300
03c0038300
03e0038180
07f00701c0
07780700e0
0e3c0e00f0
0c1c1c0078
180c38003c
300070003f
6000e0001f
c001c0000e
0007000006
001c000000
ENDCHAR
STARTCHAR 2368
ENCODING 9064
SWIDTH 903 0
DWIDTH 40 0
BBX 40 40 0 -6
BITMAP
0000006000
0000007c00
0006007800
000f007000
7fff807000
0707807030
070700703c
0707007038
0707007038
070700703a
07071fffff
0707007038
0707007038
0707007038
0707007038
0707007038
070700e038
070700e038
070700e038
ffffe0e038
0e0e01c070
0e0e01c070
0e0e01c070
0e0e0380e0
0e0e0380e0
0e0e0701c0
0e0e0f81c0
0e0e06f380
0e0e003f80
0e0e000f00
0e0e000fc0
0e0e001cf0
0e0e003878
0e0e00703c
0e0e00e01e
0e0e01c00f
7fffc38007
0000070003
00001c0000
0000700000
ENDCHAR
STARTCHAR 2369
ENCODING 9065
SWIDTH 903 0
DWIDTH 40 0
BBX 40 40 0 -6
BITMAP
0000000000
0c00000000
0f80000018
0f0018003c
0e001ffffe
0e001c1c1e
0e001c1c1c
0e181c1c1c
0e1c1c1c1c
0e1c1c1c1c
0e3f1c1c1c
fffc1c1c1c
fe1c1c1c1c
6e1c1c1c1c
0e1c1c1c1c
0e1c1c1c1c
0e1c1c1c1c
1c1c1c1c1c
1c1c1ffffc
1c1c1c001c
1c1c1c0018
38381c0000
38381c0000
38381c0000
70701c0000
70701c0000
7ce01c0000
0fe01c0000
03c01c0000
01e01c0001
03f81c0001
073c1c0003
061e1c0003
0c0f1c0006
18071e000e
30031fffff
60000fffff
c00007fffe
0000000000
0000000000
ENDCHAR
STARTCHAR 236a
ENCODING 9066
SWIDTH 903 0
DWIDTH 40 0
BBX 40 40 0 -6
BITMAP
0000001800
0c00001f00
0f80001e00
0f00001c00
0e00001c00
0e00001c00
0e00001c00
0e18001c00
0e1c001c0c
0e1c301c1e
0e3f3fffff
fffc381c0f
fe1c381c0e
6e1c381c0e
0e1c381c0e
0e1c381c0e
0e1c381c0e
1c1c381c0e
1c1c381c0e
1c1c381c0e
1c1c381c0e
3838381c0e
3838381c0e
38383ffffe
7070381c0e
7070381c0c
7ce0301c00
0fe0001c00
03c0001c00
01e0001c00
03f8001c00
073c001c00
061e001c00
0c0f001c00
1807001c00
3003001c00
6000001c00
c000001c00
0000001c00
0000001800
ENDCHAR
STARTCHAR 236b
ENCODING 9067
SWIDTH 903 0
DWIDTH 40 0
BBX 40 40 0 -6
BITMAP
0000000000
0c00060180
0f800703c0
0f0007ffe0
0e000701e0
0e000701c0
0e000701c0
0e180701c0
0e1c0701c0
0e1c0701c0
0e3f0701c0
fffc0e01e0
fe1c0e01fe
6e1c0e00ff
0e1c1c007f
0e1c180000
0e1c300000
1c1c600060
1c1cc000f0
1c1c1ffff8
1c1c0400f8
38380600e0
38380600e0
38380301c0
70700301c0
7070018380
7ce0018380
0fe000c700
03c000ee00
01e0007e00
03f8007c00
073c003e00
061e007f00
0c0f00e7c0
180701c3f8
30030700ff
60000e007f
c00038001e
0000e00006
0007800000
ENDCHAR
STARTCHAR 236c
ENCODING 9068
SWIDTH 903 0
DWIDTH 40 0
BBX 40 40 0 -6
BITMAP
0000000300
03c0000fc0
0078003e00
000f00f000
0001e3c000
00007f0000
00003fc000
0000f9f800
0003c03f00
000f000fe0
003c0003f8
01e00000f8
0f0c000038
780f800000
000f000000
000e00000c
000e00001e
ffffffffff
001c000000
001c000000
00380001c0
003bffffe0
00700003e0
00e0000780
00e0000e00
01c0001800
0380007000
070001c000
0e0001c00c
1c0001c01e
39ffffffff
e00001c000
000001c000
000001c000
000001c000
000003c000
0001ffc000
00001f8000
0000070000
0000060000
ENDCHAR
STARTCHAR 236d
ENCODING 9069
SWIDTH 903 0
DWIDTH 40 0
BBX 40 40 0 -6
BITMAP
0000000000
0018000060
003c0000f0
7ffe3ffff8
003e0000f8
00380001e0
00700001c0
0060000380
00c0030300
038001c600
038000ec00
0380007800
0380007800
038000380c
038000181e
0381ffffff
038000381f
039c00381c
03f0003818
07c0003830
ff80003820
ff80003800
7380003800
3380003800
0380003800
0380003800
0380003800
0380003800
0380003800
0380003800
0380003800
0380003800
0380003800
0380003800
0380003800
0780007800
ff801ff800
0f0003f000
0e0000e000
0c0000c000
ENDCHAR
STARTCHAR 236e
ENCODING 9070
SWIDTH 903 0
DWIDTH 40 0
BBX 40 40 0 -6
BITMAP
0000600000
0000300000
080038000c
080018001e
1fffffffff
180000001f
380000001c
7000000018
f000000030
e000000020
c000000000
1ffffffff8
0000380000
0000380000
0000380000
0000380000
03003800c0
03e03801e0
03c03ffff0
03803800f0
03803800e0
03803800e0
03803800e0
03803800e0
03803800e0
07ffffffe0
03000000e0
00000000e0
00000000e0
00000000e0
00000000e0
00000000e0
00000001e0
00000001c0
00000003c0
0000000780
00003fff00
000001fe00
0000003c00
0000003800
ENDCHAR
STARTCHAR 236f
ENCODING 9071
SWIDTH 903 0
DWIDTH 40 0
BBX 40 40 0 -6
BITMAP
0000600000
0000300000
080038000c
080018001e
1fffffffff
180000001f
380000001c
7000000018
f000300030
e0003e1820
c0003c0e00
0000380700
0000380380
0000380380
0000380180
0000380000
0000380018
000038003c
7ffffffffe
0000380000
00003c0000
0000740000
0000740000
0000760000
0000e20000
0000e30000
0001c18000
0001c18000
000380c000
000380e000
0007007000
000e003800
001c001e00
0038000f00
00700007c0
00e00003f8
03800000ff
070000007f
1c0000001e
f000000006
ENDCHAR
STARTCHAR 2370
ENCODING 9072
SWIDTH 903 0
DWIDTH 40 0
BBX 40 40 0 -6
BITMAP
0000600000
0000300000
080038000c
080018001e
1fffffffff
180000001f
380000001c
7000300018
f0003c0030
e000780020
c000780000
0000ec0000
0001c60000
0003830000
000701c000
000e00e000
001c007800
0038003e00
0070000fc0
01d80067ff
039e0079ff
0e1c00707e
381c00700e
e01c007000
001c007000
001c007000
001c007000
001c007000
001c007000
0038007000
0038007000
0038007000
0070007000
0070007000
00e0007000
01c0007000
0380007000
0700007000
0e00007000
3800006000
ENDCHAR
STARTCHAR 2371
ENCODING 9073
SWIDTH 903 0
DWIDTH 40 0
BBX 40 40 0 -6
BITMAP
0000000060
000100007c
0003800078
3fffc00070
0000000070
0000000070
0000000070
0000000072
00000fffff
0000000070
0000000070
0000000070
0000600070
fffff30070
070e018070
070e00c070
070e00e070
070e007070
070e007070
070e003070
070e000070
070e000070
070e000070
070e000070
070e000070
0e0e000070
0e0e000070
0e0e0000f0
0e0e007ff0
0c0e0007e0
1c0e0001c1
1c0e000181
180e000003
180e000003
300e000006
300f00000e
600fffffff
6007ffffff
c003fffffe
8000000000
ENDCHAR
STARTCHAR 2372
ENCODING 9074
SWIDTH 903 0
DWIDTH 40 0
BBX 40 40 0 -6
BITMAP
0000300000
00003e0000
00003c0000
0000380000
00c0380000
00f0380c00
00e0380700
00e0380380
01c03801c0
01c03800e0
0380380070
0300380078
0600380038
0c00380038
1800380018
3000380000
6000300000
0000000000
0000000000
0000300000
00003e0000
00003c0000
0000380000
0000380180
06003801e0
03803803c0
01e0780700
00f07c0e00
0070e61800
0030e30000
0001c1c000
000380e000
0007007800
000e003e00
001c000fc0
00780007ff
00e00001ff
038000007e
1e0000000e
f000000000
ENDCHAR
STARTCHAR 2373
ENCODING 9075
SWIDTH 903 0
DWIDTH 40 0
BBX 40 40 0 -6
BITMAP
0300000c00
03e0000f80
03c0000f00
0380000e00
0380000e00
0380000e00
0380000e00
0380000e04
0380000e0e
03811fffff
0383800e00
ffffc01e00
039c001f00
039c003f00
039c003f80
039c007e80
039c006ec0
039c00eec0
039c00ce60
039c01ce70
039c018e38
039c038e3c
071c070e1f
071c060e1f
071c0c0e0e
071c180e06
071c300e00
0e1c000e00
0e1c000e00
0e1c000e00
0c1c000e01
1c1c000c01
1c1c000003
181c000003
381c000006
301e00000e
701fffffff
600fffffff
c007fffffe
8000000000
ENDCHAR
STARTCHAR 2374
ENCODING 9076
SWIDTH 903 0
DWIDTH 40 0
BBX 40 40 0 -6
BITMAP
0300000600
03e00007c0
03c0000780
0380000700
0380000700
0380000700
0380000700
0380000700
038000070c
03803fe71e
038180e73f
ffffc0e778
039c00e7e0
039c00e780
039c00e700
039c01c700
039c01c780
039c0187c0
039c038760
039c030770
039c07073c
039c06073f
071c0c071f
071c18070e
071c300706
071c600700
071c000f00
0e1c03ff00
0e1c001e00
0e1c001c00
0c1c001801
1c1c000001
1c1c000003
181c000003
381c000006
301e00000e
701fffffff
600fffffff
c007fffffe
8000000000
ENDCHAR
STARTCHAR 2375
ENCODING 9077
SWIDTH 903 0
DWIDTH 40 0
BBX 40 40 0 -6
BITMAP
0000300000
00003e0000
0c003c00c0
0f803800f8
0f003800f0
0e003800e0
0e003800e0
0e003800e0
0e003800e0
1fffffffe0
0c007000e0
00007000c0
0000e00000
0001c00000
0003800000
0007000000
001c000000
0038000000
00e0000000
0780c00000
0000700000
0000380000
000038000c
000018001e
ffffffffff
0000000000
0000000000
0000000000
0000000000
0030000000
003c000c00
0078000700
00700003c0
00e00001e0
01c00000f0
0380000078
070000003c
0e0000003c
380000001c
e00000000c
ENDCHAR
STARTCHAR 2376
ENCODING 9078
SWIDTH 903 0
DWIDTH 40 0
BBX 40 40 0 -6
BITMAP
0000300000
00003e0000
0c003c00c0
0f803800f8
0f003800f0
0e003800e0
0e003800e0
0e003800e0
1fffffffe0
0c007000e0
0000e000c0
0001c00000
0003800000
0007000000
001c000000
0038000000
00e0000000
0780000060
00000000f0
3ffffffff8
0000380000
0000380000
0000380000
0000380000
0000380000
0000380000
0000380100
0000380380
07ffffffc0
0000380000
0000380000
0000380000
0000380000
0000380000
0000380000
0000380000
000038000c
000038001e
ffffffffff
0000000000
ENDCHAR
STARTCHAR 2377
ENCODING 9079
SWIDTH 903 0
DWIDTH 40 0
BBX 40 40 0 -6
BITMAP
0000300000
00003e0000
0c003c00c0
0f803800f8
0f003800f0
0e003800e0
0e003800e0
0e003800e0
1fffffffe0
0c007000e0
0000e000c0
0001c00000
0003800000
000e000000
0038000000
01e0018000
000c00c000
000f007000
001e003800
001c001c00
0038000f00
0070000380
00e00001e0
01c00000f8
038000077f
07ffffffbf
0e0380079e
3803800706
e003800700
0007000700
0007000700
000e000700
001c000700
0038000f00
0070000e00
00e0001e00
03801ffc00
070001f800
1c00007000
7000006000
ENDCHAR
STARTCHAR 2378
ENCODING 9080
SWIDTH 903 0
DWIDTH 40 0
BBX 40 40 0 -6
BITMAP
00000c0000
06000f8000
07c00f0000
07800e0000
07000e0000
07000e0008
07000e001c
07001ffffe
07001c1c00
c7181c1c00
e71e181c00
c71c381c00
c71c301c00
c71c701c00
c71c601c00
c71cc01c00
c71c801c00
c71c001c00
c71c001c04
c71c001c0e
c71cffffff
c71c001c00
c71c001c00
c71c001c00
c71c001c00
c71c001c00
c71c001c00
c71c001c00
c71c001c00
c71c001c00
fffc001c00
c01c001c00
0018001c00
0000001c00
0000001c00
0000001c00
0000001c00
0000001c00
0000001c00
0000001800
ENDCHAR
STARTCHAR 2379
ENCODING 9081
SWIDTH 903 0
DWIDTH 40 0
BBX 40 40 0 -6
BITMAP
0000300000
00003e0000
00003c0000
0c003800c0
0f803800f8
0f003800f0
0e003800e0
0e003800e0
0e003800e0
0e003800e0
0e003800e0
1fffffffe0
0c000000e0
00000000c0
0000000000
0000000000
0300000300
0380000780
03ffffffc0
03800003c0
0380000380
0380000380
0380000380
0380000380
0380000380
0380000380
0380000380
03ffffff80
0380000380
0380000380
0380000380
0380000380
0380000380
0380000380
0380000380
0380000380
03ffffff80
0380000380
0380000300
0300000000
ENDCHAR
STARTCHAR 237a
ENCODING 9082
SWIDTH 903 0
DWIDTH 40 0
BBX 40 40 0 -6
BITMAP
0000300000
00003e0000
0c003c00c0
0f803800f8
0f003800f0
0e003800e0
0e003800e0
0e003800e0
0e003800e0
1fffffffe0
0c000000e0
00000000c0
0000000000
0006000000
000f000000
003f8c0060
18f80e00f0
1f800ffff8
1c000e0078
1c000e0070
1c000e0070
1c000e0070
1c000e0070
1c000e0070
1c000e0070
1c000e0070
1c000e0070
1c000e0070
1c018e0070
1c070e0070
1c1c0e0070
1c700e00f0
1fe00e7ff0
1f800e07e0
1f000e01c0
0e000e0180
06000e0000
00000e0000
00000e0000
00000c0000
ENDCHAR
STARTCHAR 237b
ENCODING 9083
SWIDTH 903 0
DWIDTH 40 0
BBX 40 40 0 -6
BITMAP
0000300000
00003e0000
0c003c00c0
0f803800f8
0f003800f0
0e003800e0
0e003800e0
0e003800e0
0e003800e0
0e003800e0
1fffffffe0
0c000000e0
00018000c0
0000e00000
0000700000
0000380000
0000380000
0000180180
00000003c0
07ffffffe0
00000007e0
0000000f80
0000001f00
0000007c00
000001f800
000007e000
00001f0000
0000780000
0001e00000
000f000000
003c000000
01f0000000
0ff0000000
1ffc000000
3e1f80000f
3c07fffffe
1801fffff8
00007fffe0
0000000000
0000000000
ENDCHAR
STARTCHAR 237c
ENCODING 9084
SWIDTH 903 0
DWIDTH 40 0
BBX 40 40 0 -6
BITMAP
0000003000
0600003e00
07c0003c00
0780003800
0700003800
0700003800
0700003800
0700003800
070000380c
c718c0380f
e71e60381e
c71c70381c
c71c383838
c71c3c3838
c71c1c3870
c71c1c3860
c71c1c38c0
c71c0c3880
c71c003800
c71c007c00
c71c007c00
c71c007c00
c71c007600
c71c00e600
c71c00e700
c71c00e300
c71c01c380
c71c01c380
c71c0381c0
c71c0381c0
fffc0700e0
c01c0f00f0
00180e0070
00001c0078
000038003c
000070001f
0000e0001f
0001c0000e
0007000006
001c000000
ENDCHAR
STARTCHAR 237d
ENCODING 9085
SWIDTH 903 0
DWIDTH 40 0
BBX 40 40 0 -6
BITMAP
0000300000
00003e0000
0c003c00c0
0f803800f8
0f003800f0
0e003800e0
0e003800e0
0e003800e0
0e003800e0
1fffffffe0
0c000000c0
0000000000
0000000000
0000000780
000003ffc0
0303ffffe0
03fff00000
0380000000
0380000000
0380000000
0380000000
0380000018
038000003c
03fffffffe
0380007000
0380007000
0380007000
0380007000
0380007000
0700007000
0700007000
0700007000
0600007000
0e00007000
0c00007000
1c00007000
1800007000
3000007000
6000007000
c000006000
ENDCHAR
STARTCHAR 237e
ENCODING 9086
SWIDTH 903 0
DWIDTH 40 0
BBX 40 40 0 -6
BITMAP
0000000000
0600000180
07000003c0
07ffffffe0
07000001e0
07000001c0
07000001c0
07000001c0
07000001c0
07000001c0
07ffffffc0
07000001c0
07000001c0
07000001c0
07000001c0
07000001c0
07000001c0
07ffffffc0
0700000180
0600000000
0000000000
0000000000
01800c0060
01e00f0078
03c01e00f0
03801c00e0
07003801c0
0600300180
0c00600300
1800c00600
3001800c00
1800c00600
0e00700380
07003801c0
03801c00e0
01c00e0070
01e00f0078
00e0070038
00e0070038
0060030018
ENDCHAR
STARTCHAR 2421
ENCODING 9249
SWIDTH 903 0
DWIDTH 40 0
BBX 40 40 0 -6
BITMAP
0300001800
03e0001f00
03c0001e00
0380001c00
0380001c00
0380001c00
038c001c00
639e001c00
7fff001c00
638f0c1c60
638e0f1c30
638e0e1c18
638e0e1c1c
638e1c1c0e
638e1c1c0f
638e181c07
638e381c07
638e301c03
638e301c00
638e601c00
638e401c00
638e001c18
638e001c1e
638e001c3c
638e001c38
638e001c70
638e0018e0
638e0001c0
63fe000380
639c000700
6398000e00
0380001c00
0380003800
0380007000
038000e000
0380038000
0380070000
03801c0000
0380700000
0303c00000
ENDCHAR
STARTCHAR 2422
ENCODING 9250
SWIDTH 903 0
DWIDTH 40 0
BBX 40 40 0 -6
BITMAP
0300000000
03e00000c0
03c00001e0
0381fffff0
03800e00f0
03800e00e0
03800e00e0
038c0e00e0
639e0e01c0
7fff0e01c0
638f0e01c0
638e0e01c0
638e0e0380
638e0e0398
638e0e03bc
638e0ffffe
638e0e401e
638e0e401c
638e0e601c
638e0e601c
638e0e2038
638e0e3038
638e1c3038
638e1c1870
638e1c1870
638e1c1ce0
638e180ce0
63fe380fc0
639c3807c0
6398300780
0380700780
0380600fc0
0380e01de0
0380c038f0
0381c0707c
038180e03f
038303801f
038607000e
038c1c0006
0318700000
ENDCHAR
STARTCHAR 2423
ENCODING 9251
SWIDTH 903 0
DWIDTH 40 0
BBX 40 40 0 -6
BITMAP
0000000fe0
00000ffff0
180ffffff8
1fffe00000
1c00000000
1c00000018
1c0000003c
1ffffffffe
1c0000001e
1c0000001c
1c0000001c
1c0000001c
1c0000001c
1c0000001c
1ffffffffc
1c00000018
1c00060000
1c0007c000
1c00078000
1c00070060
1c600700f0
1c7ffffff8
1c70070078
1c70070070
1c70070070
1c70070070
1c70070070
1c70070070
3870070070
3870070070
3870070070
3870070070
30700700f0
7070077ff0
60700707e0
60700701c0
c060070180
c000070000
8000070000
0000060000
ENDCHAR
STARTCHAR 2424
ENCODING 9252
SWIDTH 903 0
DWIDTH 40 0
BBX 40 40 0 -6
BITMAP
0300001800
03e0001f00
03c0001e00
0380001c00
0380001c00
0380001c00
0380001c00
038c001c08
639e001c1c
7fff3ffffe
638f001c00
638e001c00
638e001c00
638e001c00
638e001c00
638e001c00
638e001c04
638e001c0e
638e7fffff
638e003c00
638e003c00
638e003c00
638e003e00
638e007600
638e007600
638e007300
638e00e300
63fe00e180
639c01c180
639801c1c0
03800380e0
03800380e0
0380070070
03800e0078
03801c003c
038038001f
038070001f
0380e0000e
0383800006
030e000000
ENDCHAR
STARTCHAR 2425
ENCODING 9253
SWIDTH 903 0
DWIDTH 40 0
BBX 40 40 0 -6
BITMAP
0000300000
00003e0000
00003c0300
03003803c0
0180380780
00c0380700
0060380e00
0070380c00
0038381800
0038383000
0018386000
1800380060
1c003800f0
1ffffffff8
1c00380078
1c00380070
1c00380070
1c00380070
1c06380070
1c07b98070
1c0738c070
1c07386070
1c0e383070
1c0e383870
1c1c381c70
1c18381e70
1c30380e70
1c60380e70
1cc0380670
1d80380070
1c00380070
1c00380070
1c00380070
1c00380070
1c00380070
1c003800f0
1c00387ff0
1c003807e0
1c003001c0
1800000180
ENDCHAR
STARTCHAR 2426
ENCODING 9254
SWIDTH 903 0
DWIDTH 40 0
BBX 40 40 0 -6
BITMAP
0000000000
0000000180
00000003c0
0fffffffe0
0000380000
0000380000
0000380000
0000380000
000038000c
000038001e
ffffffffff
0000380000
0000380000
0000380000
0600380180
07003803c0
07ffffffe0
07003801e0
07003801c0
07003801c0
07003801c0
07003801c0
07ffffffc0
07003801c0
07003801c0
07003801c0
07003801c0
07003801c0
07ffffffc0
07003801c0
0600380180
0000380000
0000380000
0000380000
0000380000
0000380000
0000380000
0000380000
0000380000
0000300000
ENDCHAR
STARTCHAR 2427
ENCODING 9255
SWIDTH 903 0
DWIDTH 40 0
BBX 40 40 0 -6
BITMAP
0000001800
0180001f00
01e0001e00
01c0001c00
03c0001c00
0380001c00
0300001c00
0700001c00
0600001c00
0e00061cc0
0c00079c70
1c00071c38
180c071c1c
300f0e1c0e
f00e0e1c0f
f00e0c1c07
781c1c1c07
1c1c181c03
0e38181c00
0738301c00
03f0301c18
01f0601c1e
00e0401c1c
00e0001c38
01c0001c38
0180001c70
0380001870
03000000e0
07000001c0
0630000380
0e18000700
1c0c000e00
1806001c00
383f003800
71e3807000
ff8381c000
fc01838000
70000e0000
3000380000
0001e00000
ENDCHAR
STARTCHAR 2428
ENCODING 9256
SWIDTH 903 0
DWIDTH 40 0
BBX 40 40 0 -6
BITMAP
0000300000
00001c0000
00000e0000
18000e000c
1c0006001e
1fffffffff
1c00000000
1c00030000
1c0003c000
1c00078000
1c0007c000
1c000e6000
1c001c3000
1c00381800
1c00700e00
1c00e00700
1c01c003c0
1c038001f0
1c070000ff
1c0e00007f
1c1d80061e
1c71e00786
1dc1c00700
1c01c00700
1c01c00700
1c01c00700
1c01c00700
1c01c00700
3801c00700
3803800700
3803800700
3803800700
3007000700
3007000700
700e000700
601c000700
6038000700
c070000700
80e0000700
0380000600
ENDCHAR
STARTCHAR 2429
ENCODING 9257
SWIDTH 903 0
DWIDTH 40 0
BBX 40 40 0 -6
BITMAP
0000001800
0000001f00
0000001e00
0000001c00
0180001c00
03c0001c00
ffe0001c00
01e0001c00
01c0001c00
0380301c00
03803e1c00
07003c1c00
0700381c08
0e00381c1c
0e00381ffe
1c60381c00
1cf0381c00
3ff8381c00
1878381c00
0070381c00
0070381c00
4070381c00
4070381c00
60e0381c00
20e0381c00
30e0381c00
31c0381c00
19c0381c04
1dc0381c0e
0f87ffffff
0f80000000
0700000000
0780000000
0fc0000000
0ef0000000
1c7e000000
183fffffff
300ffffffe
6003fffffc
c000000000
ENDCHAR
STARTCHAR 242a
ENCODING 9258
SWIDTH 903 0
DWIDTH 40 0
BBX 40 40 0 -6
BITMAP
0000300000
00007c00c0
0000f001e0
0001fffff0
00038001f0
00070001c0
000ee00380
0038380700
00701e0e00
01c00f1c00
0738073800
1c0e00e000
000781c000
0003870000
00001c0000
0000f00000
0007c00000
003e000000
03f0000000
7e00000000
0018003000
001f003e00
001e003c00
001c003800
001c00380c
001c00381e
ffffffffff
001c003800
001c003800
0038003800
0038003800
0070003800
0070003800
00e0003800
01c0003800
0380003800
0700003800
0e00003800
3800003800
e000003000
ENDCHAR
STARTCHAR 242b
ENCODING 9259
SWIDTH 903 0
DWIDTH 40 0
BBX 40 40 0 -6
BITMAP
000c006000
300f807c00
3e0f007860
3c0e007038
380e00701c
380e00701c
380e00700c
380e007000
380e007000
380e007004
380e00700e
380e7fffff
380e007000
380e007000
7ffe007000
300e007000
000e007000
000e007000
000e007000
000e007000
300e007000
3ffe003800
380e003800
380e003800
380e003800
380e001c00
380e001c00
380e001c00
380e000e00
380e000e00
380e000700
380e000701
380e000381
300e0003c3
700e0001e3
700e0000f6
600e00007e
600e00003f
c00e00001f
800c000006
ENDCHAR
STARTCHAR 242c
ENCODING 9260
SWIDTH 903 0
DWIDTH 40 0
BBX 40 40 0 -6
BITMAP
0060000000
0078000000
00f000000c
00e000001e
01c1ffffff
01c0003800
0380003800
0700003800
0600003800
0c00003800
1818003800
301e003800
603c003800
0038003800
0070003800
00f0003800
00e0003800
01c0003800
03c0003800
03c0003818
07c07ffffc
0fc0003800
0dc0003800
19c0003800
31c0003800
61c0003800
c1c0003800
01c0003800
01c0003800
01c0003800
01c0003800
01c0003800
01c0003800
01c0003800
01c0003800
01c0003804
01c000380e
01c1ffffff
01c0000000
0180000000
ENDCHAR
STARTCHAR 242d
ENCODING 9261
SWIDTH 903 0
DWIDTH 40 0
BBX 40 40 0 -6
BITMAP
0300003000
03e0003e00
03c0003c00
0380003800
0380003800
0380003800
0380003800
0380003818
038000383c
03c0fffffe
13e0003800
13b0003800
33b8003800
339c003800
739c003800
738c003800
e380003804
e38000380e
c381ffffff
0380007800
0380007800
0380007800
0380007c00
038000ec00
038000ec00
038000e600
038001c600
038001c300
0380038300
0380038180
03800701c0
03800700e0
03800e00f0
03801c0078
038038003c
038070003f
0380e0001f
0381c0000e
0387000006
031c000000
ENDCHAR
STARTCHAR 242e
ENCODING 9262
SWIDTH 903 0
DWIDTH 40 0
BBX 40 40 0 -6
BITMAP
0300003000
03e0003e00
03c0003c00
0380003800
0380003800
0380003804
038000380e
0381ffffff
0380003800
03c0003800
13e0003800
13b0003800
33b800380c
339cc0381e
739cffffff
738ce0380f
e380e0380e
e380e0380e
c380e0380e
0380e0380e
0380e0380e
0380e0380e
0380e0380e
0380e0380e
0380e0380e
0380e0380e
0380e0380e
0380e0380e
0380e0380e
0380e0380e
0380e0381e
0380e03bfe
0380e0383c
0380e03838
0380c03830
0380003800
0380003800
0380003800
0380003800
0300003000
ENDCHAR
STARTCHAR 242f
ENCODING 9263
SWIDTH 903 0
DWIDTH 40 0
BBX 40 40 0 -6
BITMAP
0300000000
03e0000008
03c018001c
03801ffffe
03801c0380
03801c0380
03801c0380
03801c0380
0380380380
03c0380380
13e0380380
13b0380380
33b8700380
339c700380
739c700384
738c70038e
e380ffffff
e380603b80
c380003b80
0380007380
0380007380
038000e380
038000e380
038001c380
038001c380
0380038380
0380070380
0380070380
03800e0380
03801c0380
0380380380
0380700380
0380e00380
0381c00380
0383800380
038e000780
03b803ff80
0380003f00
0380000e00
0300000c00
ENDCHAR
STARTCHAR 2430
ENCODING 9264
SWIDTH 903 0
DWIDTH 40 0
BBX 40 40 0 -6
BITMAP
0300000000
03e060000c
03c070001e
03807fffff
0380700000
0380700000
0380700000
0380700000
0380700000
03c0700000
13e0700030
13b0700078
33b87ffffc
339c71003c
739c710038
738c710038
e380718038
e380718038
c380708070
038070c070
038070c070
03807060e0
03807060e0
0380e031c0
0380e031c0
0380e01b80
0380e01f00
0380c00f00
0381c00e00
0381c01f00
0381803b80
03838071c0
038300e1e0
038701c0f0
038603807c
038c07003f
03980e001f
03b01c000e
0380700006
0301c00000
ENDCHAR
STARTCHAR 2431
ENCODING 9265
SWIDTH 903 0
DWIDTH 40 0
BBX 40 40 0 -6
BITMAP
0006000000
0007c00000
0007800000
0007003000
000f003c00
000e00380c
000e00381e
ffffffffff
001c003800
0038007000
0038007000
007000e000
007000e000
00e001c000
00e0038000
01ff070000
00c3fe0000
00003fc000
0000f1f800
0003c03f00
000f000fc0
00780003e0
03e00000f0
3e00000070
0000300000
00001c0000
00300e0000
003e070000
083c070000
0838030060
1838000038
183800021c
383800020e
383800060f
703c000607
f03e000c07
e01ffffe03
c00ffffe00
0003fffc00
0000000000
ENDCHAR
STARTCHAR 2432
ENCODING 9266
SWIDTH 903 0
DWIDTH 40 0
BBX 40 40 0 -6
BITMAP
0600000030
07c000003c
0780700078
07001c0070
07000700e0
07000381c0
070000e380
0700007f00
0700003e00
0780001f80
27c0003bc0
27600070f0
277000e078
673803803c
673807001e
67181c000e
e700700006
e701c00000
c700000000
c700000060
070010007c
0700100078
0700180070
07000800e0
07000c00e0
07000601c0
07000301c0
0700038380
070001c700
070000ee00
0700007c00
0700003800
0700007c00
070000ef00
070001c7c0
07000703f8
07000e00ff
070038007f
0700e0001e
0607800006
ENDCHAR
STARTCHAR 2433
ENCODING 9267
SWIDTH 903 0
DWIDTH 40 0
BBX 40 40 0 -6
BITMAP
0600000070
07c00007f8
0780007ffc
070007fe00
0700fe7000
0700007000
0700007000
0700007000
0700007000
0780007000
27c0007000
2760007000
2770007000
673800700c
673800701e
671bffffff
e700007000
e700007000
c70000f800
c70000f800
070000f800
070000ec00
070001cc00
070001cc00
070001c600
0700038600
0700038700
0700070300
0700070380
07000e0180
07001c01c0
07001c00e0
07003800f0
0700700078
0700e0007c
0701c0003f
070380001f
070700000e
070e000006
0638000000
ENDCHAR
STARTCHAR 2434
ENCODING 9268
SWIDTH 903 0
DWIDTH 40 0
BBX 40 40 0 -6
BITMAP
0000000f00
000007ff80
0c07ffffc0
0fffc00000
0e00000000
0e00000000
0e00000070
0ffffffff8
0e00000078
0e00000070
0e00000070
0e00000070
0e00000070
0e00000070
0ffffffff0
0e00000060
0e00000000
0e00000000
0e30000070
0e3ffffff8
0e38000078
0e38000070
0e38000070
0c38000070
1c38000070
1c38000070
1c3ffffff0
1c38000060
1838000000
3838000000
3838000004
3838000004
303800000c
703800000c
603c000018
603ffffffc
c01ffffffc
c00ffffff8
8000000000
0000000000
ENDCHAR
STARTCHAR 2435
ENCODING 9269
SWIDTH 903 0
DWIDTH 40 0
BBX 40 40 0 -6
BITMAP
0300003000
03e0003e00
03c0003c00
0380003800
0380003838
0380003bfc
0380003ffe
038007fe00
0380fe3800
0398003800
fffc003800
0380003800
0380003800
0380003800
0380003808
038000381c
0380fffffe
0380003800
039c003800
03f0003800
03c0003800
0f80003800
ff80003800
ff80003804
738000380e
3381ffffff
0380003800
0380003800
0380003800
0380003800
0380003800
0380003800
0380003800
0380003800
0380003800
0780003800
ff80003800
0f00003800
0e00003800
0c00003000
ENDCHAR
STARTCHAR 2436
ENCODING 9270
SWIDTH 903 0
DWIDTH 40 0
BBX 40 40 0 -6
BITMAP
0300003000
03e0003e00
03c0003c00
0380003800
0380003800
0380003804
038000380e
0381ffffff
0380003800
0398003800
fffc003800
0380003800
038000380c
0380c0381e
0380ffffff
0380e0380f
0380e0380e
0380e0380e
039ce0380e
03f0e0380e
03c0e0380e
0f80e0380e
ff80e0380e
ff80e0380e
7380e0380e
3380e0380e
0380e0380e
0380e0380e
0380e0380e
0380e0380e
0380e0381e
0380e03bfe
0380e0383c
0380e03838
0380c03830
0780003800
ff80003800
0f00003800
0e00003800
0c00003000
ENDCHAR
STARTCHAR 2437
ENCODING 9271
SWIDTH 903 0
DWIDTH 40 0
BBX 40 40 0 -6
BITMAP
0601800000
07c1f00000
0781e00000
0701c0000c
0701c0001e
0701c1ffff
0701c00e0f
0701c00e0e
0701c00e0e
0721c00e0e
fff1c20e0e
0701c70e0e
071fff8e0e
0701c00e0e
0701c00e0e
0701c00e0e
0701c00e0e
0701c00e0e
0761c00e0e
07c1c00e0e
0781c00e0e
1f01c00e0e
ff01c00e0e
ff01c01c0e
7701c01c0e
3701c31c0e
0701c61c0e
0701dc380e
0701f8380e
0701f0380e
0701e0701e
0701c0701c
0700c0e01c
070000e03c
070001c038
07000380f8
ff00071ff0
0f000e03e0
0e003801c0
0c00e00180
ENDCHAR
STARTCHAR 2438
ENCODING 9272
SWIDTH 903 0
DWIDTH 40 0
BBX 40 40 0 -6
BITMAP
0300006000
03e0007c00
03c0007800
0380007000
0380007000
0380007000
0380007000
038000700c
038000701e
0398007fff
fffc007000
0380007000
0380007000
0380007000
0380007000
0380007030
0380007078
0380fffffc
039c10007c
03f0180070
03c0080070
0f800c0070
ff800c00e0
ff800600e0
73800601c0
33800301c0
0380038380
038001c700
038000ee00
038000fc00
0380007c00
0380007c00
038000ff00
038001c780
03800783e0
07800e01f8
ff803c00ff
0f00f0003f
0e03c0001e
0c1e000006
ENDCHAR
STARTCHAR 2439
ENCODING 9273
SWIDTH 903 0
DWIDTH 40 0
BBX 40 40 0 -6
BITMAP
0300030000
03e0018000
03c000c000
038000e000
0380006000
038000700c
0380c0301e
0380ffffff
0380e0380f
0398e03c0e
fffce03c0e
0380e03c0e
0380e07e0e
0380e0760e
0380e0760e
0380e0e70e
0380e0e30e
0380e0c38e
039ce1c38e
03f0e181ce
03c0e381ce
0f80e301ee
ff80e700ee
ff80e600ee
7380ec006e
3380f8000e
0380e0000e
0380e0000e
0380e0000e
0380e0000e
0380e0000e
0380e0000e
0380e0000e
0380e0000e
0380e0000e
0780e0001e
ff80e00ffe
0f00e000fc
0e00e00038
0c00c00030
ENDCHAR
STARTCHAR 243a
ENCODING 9274
SWIDTH 903 0
DWIDTH 40 0
BBX 40 40 0 -6
BITMAP
0300300000
03e03e0000
03c03c0000
0380380018
038038003c
03807ffffe
0380700000
0380600000
0380e00000
0398c00020
fffd800070
03833ffff8
0386000000
0380000000
0380000000
0380000060
03800000f0
0381fffff8
039c000078
03f0000070
03c0000070
0f80000070
ff80000070
ff80000070
7380000070
3380000070
0380000070
0380000070
0380000070
0380000070
0380000070
0380000071
0380000039
038000003b
038000003b
078000001e
ff8000001e
0f0000000f
0e00000007
0c00000003
ENDCHAR
STARTCHAR 243b
ENCODING 9275
SWIDTH 903 0
DWIDTH 40 0
BBX 40 40 0 -6
BITMAP
0300061800
03e007df00
03c0079e00
0380071c00
03800e1c00
03800e1c00
03800e1c00
03801c1c00
03801c1c00
03981c1c00
fffc381c00
0380381c00
0380781c04
0380781c0e
0380f81fff
0380f81c00
0381b81c00
0381b81c00
039b381c00
03f2381c00
03c0381c00
0f80381c00
ff80381c00
ff80381c00
7380381c00
3380381c00
0380381c00
0380381c00
0380381c00
0380381c00
0380381c01
0380381c01
0380381c03
0380381c03
0380381c06
0780381e0e
ff80381fff
0f00380fff
0e003807fe
0c00300000
ENDCHAR
STARTCHAR 243c
ENCODING 9276
SWIDTH 903 0
DWIDTH 40 0
BBX 40 40 0 -6
BITMAP
0300000000
03e0000018
03c000003c
0380fffffe
0380003800
0380003800
0380003800
0380003800
0380003800
0398003800
fffc003800
0380003800
0380003800
0380003800
0380003804
038000380e
0381ffffff
0380003800
039c003800
03f0003800
03c0007600
0f800077c0
ff80007780
ff80007700
738000e700
338000e700
038000e700
038001c700
038001c700
0380038700
0380070700
0380070701
03800e0701
03801c0703
0380380703
0380700786
ff80e007ff
1f81c003ff
07070001fe
061c000000
ENDCHAR
STARTCHAR 243d
ENCODING 9277
SWIDTH 903 0
DWIDTH 40 0
BBX 40 40 0 -6
BITMAP
0000300000
00003e0000
00003c0000
000038000c
000038001e
ffffffffff
0000380000
0000380000
0000381e00
03ffffff00
0030001f00
001c003c00
0007007800
0003c1e000
0000f78000
00003e0000
00007f8000
0001f3f000
000780ff80
003e001fff
01f03007ff
0f803e00fe
f8003c000e
0000380000
0c003800e0
0ffffffff0
0e003800f0
0e003800e0
0e003800e0
0e003800e0
0e003800e0
0e003800e0
0e003800e0
0e003801e0
0e0038ffe0
0e00380fc0
0e00380380
0c00380300
0000380000
0000300000
ENDCHAR
STARTCHAR 243e
ENCODING 9278
SWIDTH 903 0
DWIDTH 40 0
BBX 40 40 0 -6
BITMAP
000000c000
000100f800
000380f000
7fffc0e000
00e000e000
00e000e000
00e000e000
00e000e000
00e001c004
00e001c00e
00e001ffff
00e001c038
00e0038038
00e0038038
00e0838038
00e1c68038
ffffe6c070
00e00cc070
00e0084070
00e0006070
00e00060e0
00e00030e0
00e00030e0
00e00039c0
00e00019c0
00e0001f80
00e0000f80
00e0000f00
00e0000f00
00e0001f80
00e0001f80
00e00039c0
00e00071e0
00e000e0f0
00e001c078
00e003807c
00e007003f
00e00e001f
00e038000e
00c0e00006
ENDCHAR
STARTCHAR 243f
ENCODING 9279
SWIDTH 903 0
DWIDTH 40 0
BBX 40 40 0 -6
BITMAP
0000018000
000001f000
600301e000
700781c000
7fffc1c000
7003c1c000
700381c000
700381c000
700383800c
700383801e
700383ffff
7003838070
7003870070
7003870070
7003870070
70038d0070
7fff8d80e0
70039980e0
70031180e0
700000c0e0
700000c1c0
700000c1c0
70000061c0
7000006380
7000007380
7000003700
7000003f00
7000001e00
7001801e00
7007003e00
701c003f00
7078007780
71e000e3c0
7f8001c1e0
7e000380f0
7c0007007c
38000e003f
18001c001f
000070000e
0001c00006
ENDCHAR
STARTCHAR 2440
ENCODING 9280
SWIDTH 903 0
DWIDTH 40 0
BBX 40 40 0 -6
BITMAP
0c00006000
0f80007c00
0f00007800
0e00007000
0e00407000
0e00e07000
0ffff07000
1c00007000
180000e004
300000e00e
600000ffff
c00000e070
000301c070
000781c070
7fffc1c070
0003c34070
0007036070
000e066070
001c042070
00380030e0
00700030e0
00e00010e0
01c00018e0
03800019c0
0700000dc0
0e00000f80
1c00000f80
3800000700
7000000700
7000200f80
e000200f80
e000601dc0
e0006038e0
f000c070f0
ffffe0e078
7fffe1c03c
3fffc3803f
000007001f
00001c000e
0000700006
ENDCHAR
STARTCHAR 2441
ENCODING 9281
SWIDTH 903 0
DWIDTH 40 0
BBX 40 40 0 -6
BITMAP
00000000c0
06000000f8
07c00000f0
07800000e0
07000300e0
070001c0e0
070000e0e0
07060070e0
070f0070e0
0fff8030e0
0e078000e0
0e070000e0
0c070000e0
1c070000e0
1c0e0c00e0
180e0700e0
380e0380e0
3e1c01c0e0
779c01c0e0
63dc00c0e0
c1f80000e0
80f80000e0
00780000e0
00700000e0
00700000e6
00707fffff
00e00000e0
00e00000e0
01c00000e0
01c00000e0
03800000e0
03000000e0
07000000e0
0e000000e0
0c000000e0
18000000e0
30000000e0
60000000e0
c0000000e0
00000000c0
ENDCHAR
STARTCHAR 2442
ENCODING 9282
SWIDTH 903 0
DWIDTH 40 0
BBX 40 40 0 -6
BITMAP
0600003000
0300003c00
0380003800
01c0003c00
01c1007400
00c3807600
ffffc0e300
0e0000e180
0e0001c1c0
0e000180e0
0e00038070
0e0007007c
0e0006003f
0e0c0c181f
0e1e181f0e
0fff301e06
0e0f601c00
0e0e001c00
0e0e001c00
0e0e001c00
0e0e001c00
0e0e001c00
0e0e001c00
0e0e001c00
0c0e001c00
1c0e001c00
1c0e001c00
1c0e001c00
1c0e001c00
180e001c00
380e001c00
380e001c00
300e001c00
301e001c00
701c001c00
603c001c00
6ff8001c00
c0f0001c00
c0e0001c00
80c0001800
ENDCHAR
STARTCHAR 2443
ENCODING 9283
SWIDTH 903 0
DWIDTH 40 0
BBX 40 40 0 -6
BITMAP
0000000000
0300000300
0380000780
03ffffffc0
03800003c0
0380000380
0380000380
0380000380
0380000380
0380000380
03ffffff80
0380000380
0380000380
0380000380
0380000380
0380000380
0380000380
03ffffff80
0300000000
0030003000
003e003e00
003c003c00
0038003800
0038003800
003800380c
003800381e
ffffffffff
0038003800
0038003800
0070003800
0070003800
00e0003800
00e0003800
01c0003800
0380003800
0700003800
0e00003800
1c00003800
3800003800
e000003000
ENDCHAR
STARTCHAR 2444
ENCODING 9284
SWIDTH 903 0
DWIDTH 40 0
BBX 40 40 0 -6
BITMAP
0000000000
0300000300
0380000780
03ffffffc0
03800003c0
0380000380
0380000380
0380000380
0380000380
03ffffff80
0380000380
0380000380
0380000380
0380000380
0380000380
03ffffff80
0380000300
0300c00000
0000700000
0000380000
000038000c
000018001e
ffffffffff
0380000000
0380000000
0380000000
0380000000
0380000000
0380000000
0380000000
0380000000
0380000000
0380000000
0380000000
03c0000000
03fffffff0
01fffffff8
00fffffff8
0000000000
0000000000
ENDCHAR
STARTCHAR 2445
ENCODING 9285
SWIDTH 903 0
DWIDTH 40 0
BBX 40 40 0 -6
BITMAP
0180060000
01f007c000
01e0078000
01c0070000
01c0070000
01c0070000
01c0070000
01c4070000
01ce070000
ffff070180
01c00703c0
01c1ffffe0
01c00701e0
03c00701c0
03c00701c0
03e00701c0
07f00701c0
07d87701c0
07dc1f01c0
0fce0f01c0
0fce0781c0
0dc607c1c0
1dc007e1c0
19c00e71c0
39c00e79c0
31c00e39c0
71c00e19c0
61c01c01c0
c1c01c01c0
81c01c01c0
01c03801c0
01c03801c1
01c07001c1
01c07001c3
01c0e001c3
01c0c001e6
01c18001ff
01c30000ff
01c600007e
018c000000
ENDCHAR
STARTCHAR 2446
ENCODING 9286
SWIDTH 903 0
DWIDTH 40 0
BBX 40 40 0 -6
BITMAP
0000300000
00003e0000
00003c0000
0000380000
0000380030
0000380078
3ffffffffc
0000380000
0000380000
0000380300
03003803c0
0180380380
00c0380700
00e0380600
0070380c00
0070381800
0030383000
000038000c
000038001e
ffffffffff
00007c0000
0000fe0000
0000ff0000
0001bb8000
0003b9c000
000738e000
000e387000
001c383800
0038381e00
0070380f00
00e03807c0
01c03803f8
03803800ff
070038007f
0e0038001e
3800380006
e000380000
0000380000
0000380000
0000300000
ENDCHAR
STARTCHAR 2447
ENCODING 9287
SWIDTH 903 0
DWIDTH 40 0
BBX 40 40 0 -6
BITMAP
0180000000
01f000000c
01e000001e
01c01fffff
01c000000f
01c000000e
01c000000e
01c400000e
01ce00000e
ffff00000e
01c018000e
01c01f000e
01c01e000e
03c01c000e
03c01c000e
03e01c000e
07f01c000e
07d81ffffe
07dc1c000e
0fce1c000c
0fce1c0000
0dc61c0000
1dc01c0000
19c01c0000
39c01c0000
31c01c0000
71c01c0000
61c01c0000
c1c01c0000
81c01c0000
01c01c0001
01c01c0001
01c01c0003
01c01c0003
01c01c0006
01c01e000e
01c01fffff
01c00fffff
01c007fffe
0180000000
ENDCHAR
STARTCHAR 2448
ENCODING 9288
SWIDTH 903 0
DWIDTH 40 0
BBX 40 40 0 -6
BITMAP
0300000000
03e0003000
03c0003e00
0380003c00
0380007800
0380007000
038000f000
038800e000
039c01c000
fffe038000
0380038000
0380070060
07800e0078
07801c0070
07c07800e0
0fe07800e0
0fb07801c0
0fb81e0380
1f9c070380
1b9c01c700
1b8c00ee00
3b80003c00
3380001c00
3380003800
6380007000
638000e000
c38000e000
c38001c000
8380038000
0380070060
0380070030
03800e0018
03801c000c
03803801fe
0380703f8f
0381fff807
0381ff0007
0380f00007
0380700003
0300000000
ENDCHAR
STARTCHAR 2449
ENCODING 9289
SWIDTH 903 0
DWIDTH 40 0
BBX 40 40 0 -6
BITMAP
0000000300
00000007c0
0f00001f00
01f0003c00
003e00f000
0007e3c000
0000ff0000
00001f8000
00007ff000
0000f0fe00
0003c01f80
000f0007e0
003c0001f8
01e00000f8
0f00000038
7800300000
00003e1800
00003c0e00
0000380700
0000380380
0000380184
000038000e
ffffffffff
0000380000
0000380000
0000380000
0030380000
003c383800
0078380e00
0070380380
00e03801e0
01c03800f0
0380380078
070038003c
0e0038001e
1c0038000e
3800380006
e000380000
0000380000
0000300000
ENDCHAR
STARTCHAR 244a
ENCODING 9290
SWIDTH 903 0
DWIDTH 40 0
BBX 40 40 0 -6
BITMAP
0000018000
000001f000
000001e000
000601c000
000f01c000
ffff81c000
0007838000
0007038000
000703800c
000707001e
000707ffff
0007061c1f
00070e1c1c
00070c1c18
00071c1c30
3007181c20
3807301c00
3fff201c00
3807001c00
3806001c00
3800001c00
3800003e00
3800003a00
3800003a00
3800007300
3800007300
3800007300
380000e180
3801c0e180
380701c1c0
381c0380c0
38780380e0
39e0070070
3f800e0078
3e001c003c
3c0038003f
380070001f
1800e0000e
0003800006
000e000000
ENDCHAR
STARTCHAR 244b
ENCODING 9291
SWIDTH 903 0
DWIDTH 40 0
BBX 40 40 0 -6
BITMAP
000000c000
000000f800
180180f000
1c03c0e000
1fffe0e000
1c01e0e000
1c01c0c000
1c01c1c000
1c01c1c00c
1c01c1801e
1c01c1ffff
1c01c38e1f
1c01c30e1c
1c01c30e18
1c01c60e30
1c01c60e20
1fffcc0e00
1c01c80e00
1c01800e00
1c00000e00
1c00000e00
1c00001f00
1c00001d00
1c00001d00
1c00001d80
1c00003980
1c00003980
1c000070c0
38000070c0
380000e0e0
380000e060
380001c070
3000038070
3000070038
70000e003c
60001c001f
600038001f
c00070000e
c001c00006
8007000000
ENDCHAR
STARTCHAR 244c
ENCODING 9292
SWIDTH 903 0
DWIDTH 40 0
BBX 40 40 0 -6
BITMAP
0000006000
0000007c00
0018007800
003c007000
fffe007000
0e00007000
0e00007000
0e00007000
0e00007000
0e30007000
1c78007008
1ffc00701c
1c3dfffffe
1c38007000
3838007000
3838007000
3038007000
7038007000
607000f800
787000f800
ee7000f800
c7f000cc00
83e001cc00
01e001cc00
00e001c600
01c0038600
01c0038700
01c0070300
0380070380
03800e03c0
03000e01c0
07001c01e0
06003800f0
0e00380078
1c0070007c
1800e0003f
3001c0001f
600380000e
c007000006
001c000000
ENDCHAR
STARTCHAR 244d
ENCODING 9293
SWIDTH 903 0
DWIDTH 40 0
BBX 40 40 0 -6
BITMAP
0000000000
00c0000000
00f8000018
00f000003c
00e01ffffe
00e082001e
00e1c2001c
00ffe2001c
00e002001c
30e0030038
3ce0030038
38e0030038
38e7010038
3fff818070
3807818070
3807018070
38070180e0
380700c0e0
3c0700c0e0
770e00c1c0
63ce0061c0
61ee006380
c0fc007380
807c003700
001c003f00
0038001e00
0038001e00
0070003f00
0070003f00
00e0007380
00c000e1c0
01c001c1e0
03800380f0
0300070078
06000e007c
0c001c003f
180038001f
300070000e
6001c00006
c007000000
ENDCHAR
STARTCHAR 244e
ENCODING 9294
SWIDTH 903 0
DWIDTH 40 0
BBX 40 40 0 -6
BITMAP
0000000000
0018000000
007c0c0030
03fe0e0078
1fc00ffffc
f3800e003c
03800e0038
03800e0038
03800e0038
03800e0038
03800e0038
03800e0038
038c0e0038
fffe0e0038
03800e0038
03800e0038
03800e0038
03800e0038
03800e0038
03800e0038
03800e0038
03840e0038
038e0e0038
ffff0e0038
03800e0038
03800e0038
03800e0038
03800ffff8
03800e0038
03800e0030
03800c0001
0380000001
0380000003
0380000003
0380000006
03c000000e
03ffffffff
01ffffffff
00fffffffe
0000000000
ENDCHAR
STARTCHAR 244f
ENCODING 9295
SWIDTH 903 0
DWIDTH 40 0
BBX 40 40 0 -6
BITMAP
0000000000
180000000c
0e0300001e
0703ffffff
0703800000
0303800000
0003803000
0003803e00
0003803c00
0023803800
0023803800
c063803800
7063803800
3863803800
38c3803800
18c3803800
00c3803800
01c3803800
0183803800
0183803800
0383803c00
0303807400
0303807400
0703807600
0603807600
0e0380e600
0e0380e300
1e0701c300
fc0701c380
3c07038180
1c070381c0
1c070701c0
0e0e0700e0
0e0e0e00f0
0f0c1c0078
0f1838003c
0f1870003f
0f30e0001f
0621c0000e
0007000006
ENDCHAR
STARTCHAR 2450
ENCODING 9296
SWIDTH 903 0
DWIDTH 40 0
BBX 40 40 0 -6
BITMAP
0000003000
0c00003e00
0700003c00
0380003800
01c0003800
01c0003800
00c0003800
0000003800
0000003800
0008003800
0008603800
c0187c3800
7010783800
3830703800
1c30703800
1c60703818
0c6070383c
0060703ffe
00c0703800
00c0703800
01c0703800
0180703800
0380703800
0300703800
0700703800
0700e03800
0e00e03800
1e00e03800
fe00e03800
3c01c03800
1c01c03800
1c01c03800
0e03e03800
0e03b03800
0f071c3800
0f060f3800
0f0c07ffff
0f1801fffe
0630007ffc
0060000000
ENDCHAR
STARTCHAR 2451
ENCODING 9297
SWIDTH 903 0
DWIDTH 40 0
BBX 40 40 0 -6
BITMAP
0000000000
0c0000000c
070000001e
0387ffffff
01c0003c00
01c0003800
00c0003800
0000007000
0000007000
000800e000
000800f000
c01801f000
701001f000
383003f000
1c30037000
1c60077000
0c60067300
00600e7180
00c00c70c0
00c01c7060
01c0387030
0180387038
038070701c
030060700e
0700e0700f
0701c07007
0e01807007
1e03007003
fe06007000
3c0c007000
1c00007000
1c00007000
0e00007000
0e00007000
0f00007000
0f00007000
0f00007000
0f00007000
0600007000
0000006000
ENDCHAR
STARTCHAR 2452
ENCODING 9298
SWIDTH 903 0
DWIDTH 40 0
BBX 40 40 0 -6
BITMAP
0000000000
0000000180
00000003c0
0fffffffe0
0000380000
0000380000
0000380000
0000380000
0000380000
0000380018
000038003c
7ffffffffe
0000380000
0000380000
0000380000
0000380000
0000380000
0000380000
0000380000
0000380000
0000300000
0000000000
0000300000
00003e0000
00003c0000
0000380180
06003803c0
03803807e0
01e0700f00
00e0781c00
0060ec3000
0001c60000
0003838000
000701e000
001c007800
0038003f00
00e0000fff
03800003ff
1e0000007c
f00000000c
ENDCHAR
STARTCHAR 2453
ENCODING 9299
SWIDTH 903 0
DWIDTH 40 0
BBX 40 40 0 -6
BITMAP
0000c00000
0000f80000
0000f00000
0000e00000
0000e00018
0001c0003c
7ffffffffe
0003806000
0007003000
000e001800
001c000c00
0038000700
0070000380
00e00001e0
01c00000f8
038030007f
07003e003f
0e003c001e
3800380006
e0003800c0
06003801f0
03803803c0
01e0380700
00f03c0e00
0070741800
0030760000
0000e30000
0000e18000
0001c1c000
000380e000
0007007000
000e003800
001c001e00
0038000f00
00700007c0
00e00003f8
03800000ff
070000007f
1c0000001e
f000000006
ENDCHAR
STARTCHAR 2454
ENCODING 9300
SWIDTH 903 0
DWIDTH 40 0
BBX 40 40 0 -6
BITMAP
0300003000
03e0003e00
03c0003c00
0380003800
0380003800
0380003800
0380003800
0380003800
038000380c
0398c0380f
fffc60381e
038030381c
0380383838
03801c3830
03801c3860
03801c38c0
03800c3880
0380003800
039c007c00
03f0007400
03c0007400
0f80007600
ff8000e200
ff8000e300
738000e300
338001c180
038001c180
03800380c0
03800380c0
03800700e0
03800e0070
03800e0070
03801c0038
038038003c
038070003c
0780e0001e
ff81c0001f
0f0380000f
0e0700000e
0c1c000006
ENDCHAR
STARTCHAR 2455
ENCODING 9301
SWIDTH 903 0
DWIDTH 40 0
BBX 40 40 0 -6
BITMAP
00c0000000
00f8180018
00f01f001f
18e01e001e
1ee01c181c
1ce01c1e1c
1ce01c1c1c
1ce01c1c1c
1ce21c1c1c
1ce71c1c1c
3fff9c1c1c
38e01c1c1c
38e01c1c1c
30e01c1c1c
70e01c1c1c
60e01c1c1c
60e01c1c1c
c0e01c1c1c
80e01c1c1c
00e01c1c1c
00e71c1c1c
00fc1c1c1c
01f01c1c1c
0fe01c1c1c
ffe01c1c1c
fce0381c1c
70e0381c1c
30e0381c1c
00e0381c1c
00e0301c1c
00e0701c1c
00e0701c1c
00e0601c1c
00e0e01c1c
00e0c0181c
00e1c0001c
00e180001c
00e300001c
00e600001c
00cc000018
ENDCHAR
STARTCHAR 2456
ENCODING 9302
SWIDTH 903 0
DWIDTH 40 0
BBX 40 40 0 -6
BITMAP
000000c000
006000f800
607800f000
30f000e000
18e000e000
0dc000e000
078000e000
070000e060
078000e0f0
0d80fffff8
19c000e078
30c000e070
60e000e070
c0e000e070
006000e070
007000e070
00f000e070
00f000e070
01f000e070
01f800e070
03b800e072
0739ffffff
063801c000
0c3801c000
183801c000
303801c000
6038038300
c038038180
00380380c0
0038070060
0038070070
00380e0038
00781c001c
00701c001e
00f038000e
01e070000f
7fe0e00007
0fc1c00007
0383800003
030e000000
ENDCHAR
STARTCHAR 2457
ENCODING 9303
SWIDTH 903 0
DWIDTH 40 0
BBX 40 40 0 -6
BITMAP
0000001800
00c1801f00
c0f1f01e00
61e1e01c00
31c1c01c00
1b81c01c00
0f01c01c00
0e01c01c00
0f01c01c00
1b01c01c00
3381c01c00
6181c01c00
c1c1c01c00
01c1c01c00
00c1c11c0c
00e1c39c1e
01e1ffdfff
01e1c01c00
03e1c01c00
03f1c01c00
0771c01c00
0e71c01c00
0c71c01c00
1871c01c00
3071c01c00
6071c01c00
c071c01c00
0071c01c00
0071c01c00
0071c01c00
0071c01c01
0071c01c01
00f1c19c03
00e1c71c03
01e1de1c06
03c1fc1e0e
7fc1f01fff
1f81e00fff
0701c007fe
0600c00000
ENDCHAR
STARTCHAR 2458
ENCODING 9304
SWIDTH 903 0
DWIDTH 40 0
BBX 40 40 0 -6
BITMAP
0000000000
0060000000
6078600018
30f070003c
18e07ffffe
0dc070001e
078070001c
070070001c
078070001c
0d8070001c
19c070001c
30c070001c
60e070001c
c0e070001c
006070001c
007070001c
00f070001c
00f070001c
01f070001c
01f87ffffc
03b870001c
073870001c
063870001c
0c3870001c
183870001c
303870001c
603870001c
c03870001c
003870001c
003870001c
003870001c
003870001c
007870001c
007070001c
00f07ffffc
01e070001c
7fe070001c
0fc0700018
0380600000
0300000000
ENDCHAR
STARTCHAR 2459
ENCODING 9305
SWIDTH 903 0
DWIDTH 40 0
BBX 40 40 0 -6
BITMAP
0000000070
00600003f8
6078001ffc
30f061fc00
18e07f9c00
0dc0701c00
0780701c00
0700701c00
0780701c00
0d80701c00
19c0701c00
30c0701c00
60e0701c00
c0e0701c00
0060701c0c
0070701c1e
00f07fffff
00f0701c00
01f0701c00
01f8701c00
03b8700e00
0738700e00
0638700e00
0c38700e00
1838700700
3038700700
6038700700
c038700380
0038700380
0038700380
00387001c0
00387001c1
00787000e1
007070c0e3
00f0738073
01e07e007e
7fe07c003e
0fc078001f
038070000f
0300300006
ENDCHAR
STARTCHAR 245a
ENCODING 9306
SWIDTH 903 0
DWIDTH 40 0
BBX 40 40 0 -6
BITMAP
0000006000
0060007c00
6078007800
30f0007000
18e0007000
0dc0007000
0780007000
0700207000
078020700c
0d8020701e
19c07fffff
30c060701f
60e0e0701c
c0e1e07018
0061c07030
0071807020
00f0007000
00f000e000
01f000e000
01f800f800
03b800ff00
073801de00
063801dc00
0c3801dc00
1838039c00
3038039c00
6038039c00
c038071c00
0038071c00
00380e1c00
00380e1c00
00381c1c01
00781c1c01
0070381c03
00f0701c03
01e0e01e06
7fe1c01fff
0fc3800fff
038e0007fe
0338000000
ENDCHAR
STARTCHAR 245b
ENCODING 9307
SWIDTH 903 0
DWIDTH 40 0
BBX 40 40 0 -6
BITMAP
0000000000
0060000000
6078600018
30f070003c
18e07ffffe
0dc070381e
078070381c
070070381c
078070381c
0d8070381c
19c070381c
30c070381c
60e070381c
c0e070381c
006070381c
007070381c
00f070381c
00f070381c
01f07ffffc
01f870001c
03b8700018
0738700000
0638700000
0c38700000
1838700000
3038700000
6038700000
c038700000
0038700000
0038700001
0038700001
0038700003
0078700003
0070700006
00f078000e
01e07fffff
7fe03fffff
0fc01ffffe
0380000000
0300000000
ENDCHAR
STARTCHAR 245c
ENCODING 9308
SWIDTH 903 0
DWIDTH 40 0
BBX 40 40 0 -6
BITMAP
0000000000
00000000c0
00000001e0
0009fffff0
001c0380f0
fffe0380e0
03800380e0
03800380e0
03800380e0
03800380e0
03800380e0
03800380e0
03800380e0
03800380e0
03800380e0
03800380e0
03980384e0
7ffc038ee0
0381ffffe0
03800380e0
03800380e0
03800380e0
03800380e0
03800380e0
03800380e0
03800380e0
03800380e0
03800380e0
038e0380e0
03f80380e0
0fe00380e0
ff000380e1
fc000380e1
70000380e3
30000380e3
00000380e6
00000380ff
000003807f
000003803e
0000030000
ENDCHAR
STARTCHAR 245d
ENCODING 9309
SWIDTH 903 0
DWIDTH 40 0
BBX 40 40 0 -6
BITMAP
0000003000
0000003e00
0000003c00
0008003800
001c003800
fffe003800
0380003800
0380003800
0380003800
0380003800
0380003800
0380003800
0380003800
0380003800
0380003818
038000383c
0398fffffe
7ffc003800
0380003800
0380003800
0380003800
0380003800
0380003800
0380003800
0380003800
0380003800
0380003800
0380003800
038e003800
03f8003800
0fe0003800
ff00003800
fc00003800
7000003800
3000003800
000000380c
000000381e
0003ffffff
0000000000
0000000000
ENDCHAR
STARTCHAR 245e
ENCODING 9310
SWIDTH 903 0
DWIDTH 40 0
BBX 40 40 0 -6
BITMAP
0000000000
000200000c
000700001e
ffffbfffff
01c0038000
01c0038000
01c0038000
01c0038000
01c0038000
01c0038000
01c0038060
01c00380f0
01c003fff8
01c0070078
01c0070070
01c0070070
01c0070070
01c0070070
01c0076070
01c0073070
01c0071870
01c0071c70
01c0070e70
01c0070e70
01c00706e0
01c00e00e0
01c00e00e0
01c00e00e0
01c00e00e0
01c00e00e0
01c00e00e0
01c00e00e1
01c00e00e1
01c00e00e3
01c00e1ee3
03c00ef0e6
ffc07fc0ff
1f807e007f
070038003e
0600180000
ENDCHAR
STARTCHAR 245f
ENCODING 9311
SWIDTH 903 0
DWIDTH 40 0
BBX 40 40 0 -6
BITMAP
0000003018
0000003e1f
0000003c1e
000000381c
000000381c
c00c007038
e01e007038
ffff006030
e38f00e070
e38e00c060
e38e01c0e0
e38e0180c0
e38e0381c0
e38e030180
e38e060300
e38e0e0700
e38e0c0600
e38e180c00
fffe301800
e38e603000
e38e603000
e38e301800
e38e180c00
e38e0c0600
e38e060300
e38e030180
e38e0381c0
e38e01c0e0
e38e00c060
fffe00e070
e00e007038
e00c007038
c00000381c
000000381c
0000003c1e
0000001c0e
0000001e0f
0000001e0f
0000000e07
0000000c06
ENDCHAR
STARTCHAR 2460
ENCODING 9312
SWIDTH 903 0
DWIDTH 40 0
BBX 40 40 0 -6
BITMAP
0000180000
00000e0000
0000070000
060007000c
070003001e
07ffffffff
0700000000
0700000000
0700000000
c700000000
67000000c0
77000001e0
771ffffff0
37010001f0
37010001c0
07018001c0
07008001c0
0700c00380
0700c00380
0700600700
0f00600700
1f00300e00
3700300e00
e700181c00
e7001c3800
67000e3800
0e00077000
0e0007e000
0e0003c000
0e0003e000
1c0007f000
1c000e7800
1c001c3c00
1800381f00
3800700fc0
3001c007f0
70078001ff
601e0000ff
c078000038
83c0000018
ENDCHAR
STARTCHAR 2461
ENCODING 9313
SWIDTH 903 0
DWIDTH 40 0
BBX 40 40 0 -6
BITMAP
0000180000
00000e0000
0000070000
030007000c
038003001e
03ffffffff
0380000000
0380000000
0380000180
c3818001f0
6381f001e0
7381e001c0
3b81c001c0
3b81c001c0
1b81c001c0
0381c001c0
0381c001c0
0381c001c0
0381c001c0
0381c001c0
0381c001c0
0781c001c0
0f81c001c0
3b81c001c0
f381c001c0
e381c001c0
6701c001c0
0701c001c0
0703ffffc0
07018001c0
0e000001c0
0e000001c0
0e000001c0
0c000001c0
1c000001c0
18000001c0
38000001c0
30000001c0
60000001c0
c000000180
ENDCHAR
STARTCHAR 2462
ENCODING 9314
SWIDTH 903 0
DWIDTH 40 0
BBX 40 40 0 -6
BITMAP
0000180000
00000e0000
0000070000
030007000c
038003001e
03ffffffff
0380000000
0380000000
0380000000
c38000000c
638000001e
739fffffff
3b80700000
3b80700000
1b80700000
0380e00000
0380e00000
0380e00000
0381c00000
0381c00030
0381c00078
0783fffffc
0f8180003c
3b80000038
f380000038
e380000038
6700000038
0700000038
0700000038
0700000038
0e00000038
0e00000078
0e00000070
0c000000f0
1c000000e0
18000001e0
38001fffc0
3000007f80
6000000f00
c000000e00
ENDCHAR
STARTCHAR 2463
ENCODING 9315
SWIDTH 903 0
DWIDTH 40 0
BBX 40 40 0 -6
BITMAP
0000010000
0003010180
00078183c0
3fffc087e0
0003c0cf00
000380dc00
0003807018
380700603c
0e0700307e
078e0018f0
039c001dc0
01b8000f00
0070000700
00e00003c0
01c00001f0
0380000cff
0700001e7f
0effffff1e
38e0000f06
e0e0000e00
00e0000e00
00e0000e00
00e0000e00
00e0000e00
00e0000e00
00e0000e00
00e0000e00
00e0001e00
00e00ffe00
00e000fc00
00e0003810
00e0003010
00e0000030
00e0000030
00e0000060
00f00000e0
00fffffff0
007ffffff0
003fffffe0
0000000000
ENDCHAR
STARTCHAR 2464
ENCODING 9316
SWIDTH 903 0
DWIDTH 40 0
BBX 40 40 0 -6
BITMAP
0000000030
000000003e
003030003c
60783e0038
7ffc3c0038
703c380038
7038380038
7038380038
7038380038
7038380038
7038380038
7038380038
7038380038
7ff8380038
7038380038
7038380038
7038380038
7038380038
7038380038
7038380038
7038380038
7038380038
7ff8380038
7038380038
7038380038
70387ffff8
7038300038
7038000038
7038000038
7038000038
7038000038
7038000038
7ff8000038
7038000038
7030000038
6000000038
0000000038
0000000038
0000000038
0000000030
ENDCHAR
STARTCHAR 2465
ENCODING 9317
SWIDTH 903 0
DWIDTH 40 0
BBX 40 40 0 -6
BITMAP
0180000000
01f0000000
01e0000000
01c0000000
03c0000000
0380000018
038000003c
07fffffffe
070000001e
070000001c
0e0000001c
0e0001801c
1cc003c01c
18ffffe01c
38e001e01c
30e001c01c
60e001c01c
40e001c01c
00e001c01c
00ffffc01c
00e001c01c
00e001c01c
00e001c01c
00e001c01c
00e001c01c
00ffffc01c
00e001c01c
00e001c01c
00e001c01c
00e001c01c
00e001c03c
00ffffc038
00e0018038
00e0000078
00c0000070
00000001f0
000003ffe0
0000003fc0
0000000780
0000000700
ENDCHAR
STARTCHAR 2466
ENCODING 9318
SWIDTH 903 0
DWIDTH 40 0
BBX 40 40 0 -6
BITMAP
0000000000
0300000180
03800003c0
03ffffffe0
03800001e0
03800001c0
03800001c0
03800001c0
03ffffffc0
03800001c0
03800001c0
03800001c0
03800001c0
03ffffffc0
03800001c0
03800001c0
03800001c0
03800001c0
03ffffffc0
00000001c0
0300000180
03e0000000
03c0000000
0380000000
0380000000
0380000180
03800003c0
03ffffffe0
0380000000
0380000000
0380000000
0380000008
0380000008
0380000018
0380000018
03c0000030
03fffffff8
01fffffff8
00fffffff0
0000000000
ENDCHAR
STARTCHAR 2467
ENCODING 9319
SWIDTH 903 0
DWIDTH 40 0
BBX 40 40 0 -6
BITMAP
0000000000
0000000000
000c180018
001e1c003c
7fff1ffffe
07001c001e
07001c001c
07001c001c
06001c001c
0e001c001c
0e001c001c
0e001c001c
0c001c001c
1c001c001c
1c181c001c
183c1c001c
3ffe1c001c
3c1e1c001c
3c1c1c001c
7c1c1c001c
7c1c1c001c
5c1c1c001c
dc1c1c003c
9c1c1c1ffc
1c1c1c01f8
1c1c1c0070
1c1c1c0060
1c1c1c0000
1c1c1c0000
1c1c1c0000
1c1c1c0000
1ffc1c0001
1c1c1c0001
1c181c0003
1c001c0003
18001e0006
00001fffff
00000fffff
000007fffe
0000000000
ENDCHAR
STARTCHAR 2468
ENCODING 9320
SWIDTH 903 0
DWIDTH 40 0
BBX 40 40 0 -6
BITMAP
0000001f00
00000fff80
000fffffc0
0ffff80000
0000380000
0000380000
0000380018
000038003c
7ffffffffe
0000f80000
0001ff0000
0003b9c000
0007387800
000e381f00
001c3807c0
00383801f0
007038007c
01c038001e
070038000e
1c00300000
f000000000
0000000000
0000300000
00003e0000
00003c0000
0000380000
0000700000
0000700000
0000ec0000
0001c60000
0003838000
000701c000
000e007000
001c003c00
0078000f00
00e00007c0
01c00001ff
07000000ff
1c0000003c
f00000000c
ENDCHAR
STARTCHAR 2469
ENCODING 9321
SWIDTH 903 0
DWIDTH 40 0
BBX 40 40 0 -6
BITMAP
0000600000
0000380000
08001c0000
08001c000c
18000c001e
1fffffffff
380e00e01f
700e00e01c
f01c00e018
e01c00e030
c03800e020
007000f000
00e000fff8
01c0007ffc
0700003ffc
3c00000000
0000000000
0000000018
000000003c
7ffffffffe
0000380000
0000380000
0000380000
0000380000
0000380000
0000380000
0000380000
0000380000
0000380000
0000380000
0000380000
0000380000
0000380000
0000380000
0000380000
0000780000
01fff80000
000ff00000
0001e00000
0001c00000
ENDCHAR
STARTCHAR 246a
ENCODING 9322
SWIDTH 903 0
DWIDTH 40 0
BBX 40 40 0 -6
BITMAP
0000000000
1800000060
1c000000f0
1ffffffff8
1c0701c078
1c0701c070
1c0701c070
1c0701c070
1c0701c070
1c0701c070
1c0701c070
1ffffffff0
1c00000060
1800000000
0000000000
000000000c
000000001e
ffffffffff
0000380000
0000380000
0000380000
0000380000
0000380000
0000380000
0000380000
0000380000
0000380000
0000380000
0000380000
0000380000
0000380000
0000380000
0000380000
0000380000
0000380000
0000780000
00fff80000
000ff00000
0001e00000
0001c00000
ENDCHAR
STARTCHAR 246b
ENCODING 9323
SWIDTH 903 0
DWIDTH 40 0
BBX 40 40 0 -6
BITMAP
0000000000
1800000060
1c000000f0
1ffffffff8
1c00300078
1c003c0070
1c00380070
1c007c0070
1c00e70070
1c01c1c070
1c0380f070
1c07007870
1c0e003c70
1c38001c70
1ce0000c70
1c00000070
1800c00060
0000700000
0000380000
000038000c
000018001e
ffffffffff
0380000000
0380000000
0380000000
0380000000
0380000000
0380000000
0380000000
0380000000
0380000000
0380000000
0380000000
0380000000
03c0000000
03fffffff0
01fffffff8
00fffffff8
0000000000
0000000000
ENDCHAR
STARTCHAR 246c
ENCODING 9324
SWIDTH 903 0
DWIDTH 40 0
BBX 40 40 0 -6
BITMAP
000c00c000
000f00f000
000e00e000
000e00e00c
000e00e01e
fffe00ffff
000e00e000
000e00e000
000e00e000
000c30c000
00003e0000
00003c0000
0000380000
0000380000
00003800c0
00003801e0
1ffffffff0
0000380000
0000380000
0000380000
0000380000
0000380000
0000380000
000038000c
000038001e
ffffffffff
0000380000
0000380000
0000380000
0000380000
0000380000
0000380000
0000380000
0000380000
0000380000
0000380000
0000380000
0000380000
0000380000
0000300000
ENDCHAR
STARTCHAR 246d
ENCODING 9325
SWIDTH 903 0
DWIDTH 40 0
BBX 40 40 0 -6
BITMAP
0000000000
0001000018
000380003c
ffffcffffe
1c1c00001e
1c1c000038
1c1c000070
1c1c0000e0
1c1c0001c0
1c1c000380
1c1c000700
1c1c000e00
1ffc001c00
1c1c001c00
1c1c003800
1c1c007000
1c1c00e000
1c1c00e000
1c1c01c000
1c1c038000
1c1c038000
1ffc070000
1c1c070000
1c1c0e0000
1c1c0e0000
1c1c1c0000
1c1c1c0000
1c1c380000
1c1c380000
1c7c380000
1fdc380001
ff1c380001
fc1c380003
701c380003
301c3c0006
001c3e000e
001c1fffff
001c0fffff
001c03fffe
0018000000
ENDCHAR
STARTCHAR 246e
ENCODING 9326
SWIDTH 903 0
DWIDTH 40 0
BBX 40 40 0 -6
BITMAP
0000000000
3018000008
383c00001c
3ffe3ffffe
381e001c00
381c001c00
381c001c00
381c001c00
381c001c00
381c001c00
381c001c00
3f1c001c00
39dc001c00
38fc001c00
387c001c04
381c001c0e
381c7fffff
381c001c00
381c001c00
381c001c00
381c001c00
383c001c00
38fc001c00
3fdc001c00
3f9c001c00
3b1c001c00
381c001c00
381c001c00
381c001c00
381c001c00
381c001c00
301c001c00
701c001c00
701c001c00
701c001c00
603c003c00
67fc1ffc00
c07801f800
c070007000
8060006000
ENDCHAR
STARTCHAR 246f
ENCODING 9327
SWIDTH 903 0
DWIDTH 40 0
BBX 40 40 0 -6
BITMAP
0000000000
3030300180
38783803c0
3ffc3fffe0
383c3801e0
38383801c0
38383801c0
38383801c0
38383801c0
38383801c0
38383801c0
3e383801c0
3bb83801c0
39f83981c0
38f838c1c0
383838e1c0
38383871c0
38383879c0
38383839c0
38383839c0
38383819c0
38783801c0
39f83801c0
3fb83801c0
3f383801c0
3a383801c0
38383801c0
38383801c0
38383001c0
38387001c0
38387001c0
30387001c1
70386001c1
7038e001c3
7038c001c3
6079c001c6
67f98001ff
c0f30000ff
c0e600007e
80cc000000
ENDCHAR
STARTCHAR 2470
ENCODING 9328
SWIDTH 903 0
DWIDTH 40 0
BBX 40 40 0 -6
BITMAP
0000000030
303000003e
387821803c
3ffc20c038
383c206038
3838307038
3838303838
3838103870
3838101870
3838180070
3838180070
3e380800e0
3bb80c00e0
39f80c00e0
38f80c01c0
38380601c0
38380601c0
3838060380
3838030380
3838030700
3838038700
3878018e00
39f801ce00
3fb800dc00
3f3800fc00
3e3800f800
3838007800
383800fc00
383800fc00
383801ce00
3838038f00
3038070780
70380e03c0
70381c03e0
70383801f0
60787000f8
67f8e0007f
c0f1c0003f
c0e700001c
80dc00000c
ENDCHAR
STARTCHAR 2471
ENCODING 9329
SWIDTH 903 0
DWIDTH 40 0
BBX 40 40 0 -6
BITMAP
0000000000
1800000030
1c00000078
1ffffffffc
1c00070000
1c00070000
1c00070000
1c00070000
1c00070000
1c00070000
1c00070000
1c00070000
1c18070180
1c1c0703c0
1c1fffffe0
1c1c0001e0
1c1c0001c0
1c1c0001c0
1c1c0001c0
1c1c0001c0
1c1c0001c0
1c1c0001c0
1c1c0001c0
1c1c0001c0
1c1c0001c0
1c1fffffc0
1c1c0701c0
1c18070180
1c00070000
1c00070000
1c00070000
1c00070000
1c00070000
1c00070000
1c00070000
1c00070018
1c0007003c
3ffffffffe
1800000000
0000000000
ENDCHAR
STARTCHAR 2472
ENCODING 9330
SWIDTH 903 0
DWIDTH 40 0
BBX 40 40 0 -6
BITMAP
0000000000
000000000c
000000001e
ffffffffff
0000c00000
0000f00000
0000e00000
0001c00000
0301800180
03830003c0
03ffffffe0
03800001e0
03800001c0
03800001c0
03800001c0
03800001c0
03800001c0
03800001c0
03800001c0
03ffffffc0
03800001c0
03800001c0
03800001c0
03800001c0
03800001c0
03800001c0
03800001c0
03800001c0
03ffffffc0
03800001c0
03800001c0
03800001c0
03800001c0
03800001c0
03800001c0
03800001c0
03800001c0
03ffffffc0
03800001c0
0300000180
ENDCHAR
STARTCHAR 2473
ENCODING 9331
SWIDTH 903 0
DWIDTH 40 0
BBX 40 40 0 -6
BITMAP
006000c000
007800f800
007000f000
00e000e000
00c0c0e000
3181e0e000
3ffff0e000
3800f0e000
3800e0e000
3800e0e000
3800e0e000
3800e0e000
3800e0e000
3800e0e000
3800e0e000
3800e0e000
3fffe0e000
3800e0e000
3800e0e000
3800e0e000
3800e0e000
3800e0e000
3800e0e000
3800e0e000
3800e0e000
3800e0e000
3fffe0e000
3800e0e000
3800e0e000
3800e0e000
3800e0e001
3800e0e001
3800e0e003
3800e0e003
3800e0e006
3800e0f00e
3fffe0ffff
3800e07fff
3800c03ffe
3000000000
ENDCHAR
STARTCHAR 2474
ENCODING 9332
SWIDTH 903 0
DWIDTH 40 0
BBX 40 40 0 -6
BITMAP
0000000000
0001800000
0003c00000
000fe00000
003e000030
18f0000078
1f8003fffc
1c0000003c
1c00000038
1c00000038
1c00000038
1c00000038
1c00000038
1c00000038
1c00000038
1c00000038
1c00000038
1c00000038
1c01000038
1c03800038
1fffc3fff8
1c00000038
1c00000038
1c00000038
1c00000038
1c00000038
1c00000038
1c00000038
1c00000038
1c00000038
1c00000038
1c00000038
1c00000038
1c01000038
1c03800038
1fffc3fff8
1c00000038
1c00000038
1800000030
0000000000
ENDCHAR
STARTCHAR 2475
ENCODING 9333
SWIDTH 903 0
DWIDTH 40 0
BBX 40 40 0 -6
BITMAP
0060001800
007c001f00
0078001e00
0070801c04
0071c01c0e
ffffe7ffff
0070001c00
0070001c00
0070001c00
0060001800
0000000000
00000000c0
00000001e0
1ffffffff0
0000380000
0000380000
0000380000
0000380000
0000380000
0000380000
0000380000
0000380000
000038000c
000038001e
ffffffffff
0000380000
0000380000
0000380000
0000380000
0000380000
0000380000
0000380000
0000380000
0000380000
0000380000
0000380000
0000380000
0000380000
0000380000
0000300000
ENDCHAR
STARTCHAR 2476
ENCODING 9334
SWIDTH 903 0
DWIDTH 40 0
BBX 40 40 0 -6
BITMAP
0060001800
007c001f00
0078001e00
0070801c04
0071c01c0e
ffffe7ffff
0070001c00
0070001c00
0070001c00
0060001800
0000000000
0000000600
0000000f00
3fffffff80
0007000780
0007000700
0007000700
0007000700
0007000700
0007000700
0007000700
0007008700
000701c700
3fffffe700
0007000700
0007000700
0007000700
0007000700
0007000700
0007000700
0007000700
0007000701
0007000701
0007000703
0007000703
0007000786
00070007ff
00070003ff
00070001fe
0006000000
ENDCHAR
STARTCHAR 2477
ENCODING 9335
SWIDTH 903 0
DWIDTH 40 0
BBX 40 40 0 -6
BITMAP
0060001800
007c001f00
0078001e00
0070801c04
0071c01c0e
ffffe7ffff
0070001c00
0070001c00
0070001c00
0060001800
0000030000
000003e000
000003c000
0000038000
0000038000
0000038018
000003803c
7ffffffffe
0000078000
00000f8000
00000f8000
00001b8000
00003b8000
0000738000
0000e38000
0001c38000
0003838000
0007038000
000e038000
001c038000
0038038000
0070038000
00e0038000
01c0038000
0700038000
0e00038000
3800038000
e000038000
0000038000
0000030000
ENDCHAR
STARTCHAR 2478
ENCODING 9336
SWIDTH 903 0
DWIDTH 40 0
BBX 40 40 0 -6
BITMAP
0060001800
007c001f00
0078001e00
0070801c04
0071c01c0e
ffffe7ffff
0070001c00
0070001c00
0070001c00
0060001800
0000000000
0000000000
000000000c
000000001e
ffffffffff
000e00e000
000e00e000
000e00e000
000e00e000
000e00e000
000e00e000
000e00e000
001c00e000
001c00e000
001c00e000
001c00e000
003800e000
003800e000
003800e000
007000e000
007000e001
00e000e001
00e000e003
01c000e003
038000e006
070000f00e
0e0000ffff
1c00007fff
3800003ffe
e000000000
ENDCHAR
STARTCHAR 2479
ENCODING 9337
SWIDTH 903 0
DWIDTH 40 0
BBX 40 40 0 -6
BITMAP
0060001800
007c001f00
0078001e00
0070801c04
0071c01c0e
ffffe7ffff
0070001c00
0070001c00
0070001c00
0060301800
00003e0000
00003c0000
0000380000
0000380000
0000380000
0000380000
0000380018
000038003c
7ffffffffe
0000380000
00003c0000
0000740000
0000740000
0000760000
0000e20000
0000e30000
0001c18000
0001c18000
000380c000
000380e000
0007007000
000e003800
001c001e00
0038000f00
00700007c0
00e00003f8
03800000ff
070000007f
1c0000001e
f000000006
ENDCHAR
STARTCHAR 247a
ENCODING 9338
SWIDTH 903 0
DWIDTH 40 0
BBX 40 40 0 -6
BITMAP
0060001800
007c001f00
0078001e00
0070001c00
0070801c0c
0071c01c1e
ffffe7ffff
0070001c00
0070001c00
0070001c00
0070001c00
0060001800
0000000000
0000000180
06000003c0
07ffffffe0
07000001e0
07000001c0
07000001c0
07000001c0
07000001c0
07000001c0
07000001c0
07000001c0
07000001c0
07000001c0
07000001c0
07000001c0
07000001c0
07000001c0
07000001c0
07000001c0
07000001c0
07000001c0
07000001c0
07000001c0
07ffffffc0
07000001c0
0700000180
0600000000
ENDCHAR
STARTCHAR 247b
ENCODING 9339
SWIDTH 903 0
DWIDTH 40 0
BBX 40 40 0 -6
BITMAP
0060001800
007c001f00
0078001e00
0070801c04
0071c01c0e
ffffe7ffff
0070001c00
0070001c00
0070001c00
0060301800
00003e0000
00003c0000
0000380000
0000380000
0c003800c0
0e003801e0
0ffffffff0
0e003800f0
0e003800e0
0e003800e0
0e003800e0
0e003800e0
0e003800e0
0e003800e0
0e003800e0
0e003800e0
0e003800e0
0e003800e0
0e003800e0
0e003800e0
0e003800e0
0e003800e0
0e003800e0
0e003801e0
0e0038ffe0
0e00380fc0
0e00380380
0c00380300
0000380000
0000300000
ENDCHAR
STARTCHAR 247c
ENCODING 9340
SWIDTH 903 0
DWIDTH 40 0
BBX 40 40 0 -6
BITMAP
0060001800
007c001f00
0078001e00
0070801c04
0071c01c0e
ffffe7ffff
0070001c00
0070001c00
0070001c00
0060001800
0000000000
00000007c0
000001ffe0
00007ffff0
007ffe0000
1ff9c00000
0001c00000
0001c00000
0001c00000
0001c00000
0001c00000
0001c0000c
0001c0001e
ffffffffff
0001c00000
0001c00000
0001c00000
0001c00000
0001c00000
0001c00000
0001c00004
0001c00004
0001c0000c
0001c0000c
0001c00018
0001e00038
0001fffffc
0000fffffc
00007ffff8
0000000000
ENDCHAR
STARTCHAR 247d
ENCODING 9341
SWIDTH 903 0
DWIDTH 40 0
BBX 40 40 0 -6
BITMAP
0060001800
0078001e00
0070801c04
0071c01c0e
ffffe7ffff
0070001c00
0070001c00
0060001800
0600000000
07c0000000
0780000000
0700000030
0700000078
07fffffffc
0e00000000
0e00000000
1c00000000
1800000000
3000000300
6000000780
c3ffffffc0
0000000fc0
0000003e00
000000f800
000003c000
00001f0000
00007c0000
0001e00000
0007800000
003e000004
00f8000004
01e0000004
078000000c
0f0000000c
1e00000018
1f00000038
1ffffffffc
0ffffffffc
03fffffff8
0000000000
ENDCHAR
STARTCHAR 247e
ENCODING 9342
SWIDTH 903 0
DWIDTH 40 0
BBX 40 40 0 -6
BITMAP
0000000000
0000030000
000001c000
300000e000
1c0000e004
0f0000600e
078fffffff
0380e00000
0180e00000
0000e00000
0000e00000
0000e00000
0000e00000
0180e00000
03c0e00000
ffe0e00000
03e0e00000
0380e00000
0700e00000
0700e00000
0e00e00000
0e60e00000
1cf0e00000
3ff8e00000
38f8e00000
30e0e00000
00e0f00000
01c0fffffc
01c07ffffe
03803ffffe
0380000000
0700000000
0e00000000
1fc0000000
7ff8000000
f87f80000f
600ffffffe
0001fffff8
00003fffe0
0000000000
ENDCHAR
STARTCHAR 2521
ENCODING 9505
SWIDTH 903 0
DWIDTH 40 0
BBX 40 40 0 -6
BITMAP
0000000000
0000000030
0000000078
3001fffffc
1c00007000
0f00007000
0780007000
0380007000
0180007000
0000007000
0000007000
0000007000
0000007000
0180007008
03c000701c
ffe3fffffe
03e0007000
0380007000
0700007000
0700007000
0e00007000
0e60007000
1cf0007000
3ff8007000
38f8007000
30e0007000
00e0007000
01c0007000
01c0007000
0380007000
0380007000
0700007000
0e00006000
1fc0000000
7ff8000000
f87f80000f
600ffffffe
0001fffff8
00003fffe0
0000000000
ENDCHAR
STARTCHAR 2522
ENCODING 9506
SWIDTH 903 0
DWIDTH 40 0
BBX 40 40 0 -6
BITMAP
0000000000
0000000000
0000000018
300000003c
1c03fffffe
0f001c01c0
07801c01c0
03801c01c0
01801c01c0
00001c01c0
00001c01c0
00001c01c0
00001c01c0
01801c01c0
03c01c01c0
ffe01c01c0
03e01c01c0
03801c01c0
07001c01c0
07001c01c0
0e003801c0
0e603801c0
1cf03801c0
3ff83801c0
38f87001c0
30e07001c0
00e06001c0
01c0e001c0
01c0c001c0
03818001c0
03830001c0
0706000180
0e00000000
1fc0000000
7ff8000000
f87f80000f
600ffffffe
0001fffff8
00003fffe0
0000000000
ENDCHAR
STARTCHAR 2523
ENCODING 9507
SWIDTH 903 0
DWIDTH 40 0
BBX 40 40 0 -6
BITMAP
0000000000
0000000020
0000000070
3000fffff8
1c00000000
0f00000000
0780000000
0380000000
0180000000
0000000008
000000001c
0003fffffe
00001c0000
01801c0000
03c01c0000
ffe0380000
03e0380060
03803800f0
07007ffff8
0700300078
0e00000070
0e60000070
1cf0000070
3ff8000070
38f8000070
30e0000070
00e0000070
01c00000f0
01c00000e0
03800001e0
03800fffc0
0700007f80
0e00000f00
1fc0000e00
7ff8000000
f87f80000f
600ffffffe
0001fffff8
00003fffe0
0000000000
ENDCHAR
STARTCHAR 2524
ENCODING 9508
SWIDTH 903 0
DWIDTH 40 0
BBX 40 40 0 -6
BITMAP
0000000000
0000c00060
0000e000f0
3000fffff8
1c00e00078
0f00e00070
0780e00070
0380e00070
0180e00070
0000e00070
0000e00070
0000e00070
0000e00070
0180e00070
03c0e00070
ffe0fffff0
03e0e00070
0380e00060
0700e00000
0700e00000
0e00e00000
0e60e00000
1cf0e00000
3ff8e00004
38f8e00004
30e0e0000c
00e0e0000c
01c0f00018
01c0fffffc
03807ffffc
03803ffff8
0700000000
0e00000000
1fc0000000
7ff8000000
f87f80000f
600ffffffe
0001fffff8
00003fffe0
0000000000
ENDCHAR
ENDFONT
